<svg width="1389" height="671" fill="none" xmlns="http://www.w3.org/2000/svg"><g opacity=".4" stroke="#D3D3D3" stroke-miterlimit="10"><path d="M1 325.75c193.574-106.278 388.731 9.257 590.039 25.954 98.457 8.173 246.274 16.932 332.164-42.3C1015.77 245.544 971.772 90.961 959.498 1"/><path d="M8.968 338.756c192.373-109.646 387.588 4.57 588.486 23.435 97.988 9.14 241.822 17.576 327.858-40.455 94.298-63.684 54.487-216.773 42.711-308.755"/><path d="M19.572 352.788c190.177-113.66 384.601-1.758 584.62 18.455 97.929 9.901 237.867 18.103 324.577-38.551 96.671-63.157 62.249-214.283 51.352-308.491"/><path d="M32.549 367.727c90.665-57.298 180.128-68.137 284.151-47.924 98.574 19.158 194.278 48.891 294.522 59.583 98.222 10.458 234.351 18.192 322.233-36.646 99.595-62.249 71.655-210.915 62.015-307.847"/><path d="M47.606 383.458c88.087-59.29 175.764-73.234 279.318-54.691 97.725 17.576 192.491 46.87 291.534 57.826 99.043 10.955 231.422 18.045 320.622-34.743 103.06-60.843 82.35-206.432 74.44-306.91"/><path d="M64.451 399.863c85.099-61.341 170.93-79.093 273.694-62.22 96.67 15.848 190.235 44.409 287.783 55.336 99.6 11.161 228.903 17.722 319.715-32.809 106.807-59.437 94.297-201.336 88.407-305.387"/><path d="M82.848 416.97c81.759-63.42 165.305-85.244 267.307-70.304 95.176 13.797 187.481 41.509 283.419 52.289 100.303 11.307 226.882 17.254 319.304-30.876 110.792-57.65 107.012-195.682 103.672-303.746"/><path d="M102.475 434.371c78.156-65.442 159.183-91.748 260.335-79.093 93.741 11.542 184.552 38.257 278.556 48.774 101.211 11.307 225.329 16.697 319.597-28.972 114.857-55.658 120.367-189.53 120.107-301.724"/><path d="M123.098 452.123c74.318-67.376 152.592-98.456 252.894-88.467 91.778 9.374 181.418 34.889 273.401 44.995 102.177 11.249 224.128 16.141 320.154-27.038 118.843-53.49 133.903-183.086 137.063-299.762"/><path d="M144.395 470.373c70.305-69.133 145.708-105.282 245.131-98.017 89.991 6.591 178.02 31.081 267.747 40.718 103.115 11.073 223.249 15.643 320.945-25.075 123.032-51.293 148.022-176.524 154.932-297.595"/><path d="M166.043 488.681c66.321-70.744 138.648-112.165 237.281-107.742 87.882 3.955 174.475 27.272 262.005 36.383 104.052 10.868 222.634 15.203 321.941-23.113 127.02-49.067 161.94-169.903 173.04-295.339"/><path d="M187.983 507.019c62.338-72.15 131.53-118.932 229.138-117.497 85.919 1.26 170.93 23.435 256.234 32.018 105.107 10.575 221.99 14.647 322.966-21.209 130.919-46.489 175.759-163.868 191.289-292.936"/><path d="M209.719 525.357c58.412-73.234 124.47-125.582 221.169-127.223 83.781-1.406 167.386 19.598 250.522 27.712 105.985 10.311 221.492 14.295 323.93-19.275 134.75-44.087 189.21-157.922 209.37-290.769"/><path d="M231.016 543.431c55.658-75.871 119.665-133.462 217.566-137.036 80.382-2.929 161.117 16.287 240.913 23.787 108.71 10.223 225.769 14.646 331.025-19.276 135.25-43.618 196.27-152.473 220.76-286.58"/><path d="M251.609 561.3c52.173-76.662 113.046-139.76 210.038-146.468 78.391-5.332 157.982 12.889 235.758 20.007 109.325 10.048 225.563 14.647 331.785-17.254 138.71-41.626 208.66-147.083 237.72-284.5"/><path d="M271.266 578.788c49.008-77.569 106.717-145.296 202.919-155.256 76.369-7.939 155.258 9.755 231.012 16.609 109.764 9.931 225.007 15.028 332.193-15.291 142.02-40.132 220.23-142.309 253.8-282.743"/><path d="M289.662 595.808c46.021-78.156 101.035-150.833 196.445-163.635 74.583-10.047 152.563 6.943 226.736 13.681 110.028 9.959 224.303 15.408 332.107-13.3 145.03-38.667 231.01-138.002 268.86-281.219"/><path d="M306.652 612.242c43.414-78.683 95.997-155.872 190.733-171.31 73.001-11.893 150.337 4.599 223.074 11.337 110.028 10.194 223.249 15.994 331.371-11.366 147.88-37.349 240.94-134.224 282.69-279.813"/><path d="M321.564 627.885c41.217-79.093 91.661-160.442 185.841-178.135 71.741-13.504 148.609 2.695 220.174 9.638 256.791 24.899 537.601-2.783 624.901-288.221"/><path d="M334.541 642.883c38.727-78.244 86.593-162.492 178.342-183.261 71.711-16.229 149.75.585 221.608 7.997 256.674 26.364 542.409-1.494 633.279-285.643"/><path d="M345.146 656.915c37.437-78.771 83.985-165.89 175.763-188.036 71.126-17.196 149.165-.147 220.437 7.909 256.235 29.001 545.394-1.26 638.604-283.504"/><path d="M353.113 669.921c36.559-79.298 82.316-168.644 174.211-191.639 71.009-17.782 149.4 0 220.32 8.788 255.296 32.223 546.716-1.904 640.746-281.893"/></g></svg>