<svg width="445" height="234" fill="none" xmlns="http://www.w3.org/2000/svg"><path d="M326.13 212.438s-19.1 5.156-66.966-6.62c-39.401-9.696-94.18-36.031-118.494-50.092a93.399 93.399 0 01-11.015-7.06s32.927 2.314 53.93-3.457c21.004-5.771 50.24-6.415 75.901 11.718 21.062 14.793 36.998 39.898 54.663 50.766a34.718 34.718 0 0011.981 4.745z" fill="#9CC448"/><path opacity=".44" d="M157.338 158.626h17.577a7.149 7.149 0 01-5.098 4.687c-.79.175-1.904.703-1.552 1.406.118.182.279.333.469.439 6.21 3.955 12.918 8.085 20.3 7.821 6.152-.205 12.743-3.427 18.104-.38a49.462 49.462 0 01-13.534 5.126l12.86 6.415a20.153 20.153 0 006.269 2.285 27.543 27.543 0 0010.107-1.669 11.54 11.54 0 019.901 1.025l-10.165 3.896c.322 2.05 2.578 3.076 4.54 3.779l11.718 4.101a24.673 24.673 0 005.859 1.523c7.382.82 15.086-4.628 21.941-1.728l-12.04 4.54a77.895 77.895 0 0041.891 4.922 17.763 17.763 0 01-6.972 4.277 59.152 59.152 0 0117.342 3.075c-1.641 2.315-4.951 2.461-7.793 2.344-15.818-.557-31.842-1.172-46.87-5.859-8.495-2.666-16.522-6.562-24.812-9.813-8.29-3.252-17.049-5.859-25.574-8.788-7.967-2.695-15.818-5.595-23.435-8.788a143.63 143.63 0 01-29.587-15.233 51.732 51.732 0 01-12.508-11.073c-3.369-4.716 2.929-1.758 5.302-.82a38.76 38.76 0 0015.76 2.49z" fill="#7EA42B"/><path d="M314.149 207.575a15.359 15.359 0 01-3.281-.732 35.483 35.483 0 01-11.718-7.733 247.128 247.128 0 01-16.492-16.141c-5.625-6.064-11.103-12.479-18.368-16.434-4.452-2.431-9.374-3.867-13.856-6.21a123.59 123.59 0 00-13.944-7.851c-5.331-1.933-11.161-1.816-16.756-2.754-4.833-.82-9.55-2.46-14.442-2.929a70.574 70.574 0 00-20.242 1.787c-10.809 2.021-21.648 3.808-32.516 5.595-3.955.674-7.968 1.348-11.981 1.641a93.457 93.457 0 01-10.898-7.148s32.927 2.314 53.93-3.457c21.004-5.771 50.24-6.415 75.901 11.718 21.062 14.676 36.998 39.781 54.663 50.648z" fill="#9CC448" opacity=".31"/><path d="M326.13 212.438l-3.31 1.757c-13.974 7.177-69.134 32.634-109.472 9.872-42.418-23.903-61.957-45.493-78.801-68.576-1.669-2.256-3.281-4.541-4.892-6.825a168.637 168.637 0 0021.004 12.625c27.243 14.647 73.821 36.002 108.388 44.526a234.053 234.053 0 0051.733 7.734 62.687 62.687 0 0015.35-1.113z" fill="#6F9617"/><path d="M303.896 218.179a97.086 97.086 0 01-31.491-4.452c-1.231-.41-2.93-.615-3.457.556 1.025 1.787 2.08 3.545 3.135 5.332.38.644.732 1.582.175 2.08a1.56 1.56 0 01-1.084.322c-5.155 0-9.344-3.896-13.065-7.47-3.72-3.574-8.407-7.265-13.475-6.327a11.704 11.704 0 015.595 4.452c-3.105 1.436-6.444-1.084-9.139-3.164a54.492 54.492 0 00-18.163-9.374 72.89 72.89 0 01-9.403-2.929 42.601 42.601 0 01-6.884-4.248 31.548 31.548 0 0014.647 16.962c.264 1.464-2.08 1.523-3.398.878-14.999-7.704-24.9-23.435-40.426-30.084a40.698 40.698 0 00-8.056-2.49 9.872 9.872 0 003.955 7.411c-1.875 1.435-4.453-.498-5.859-2.314-4.218-4.57-8.114-9.433-12.157-14.149-3.193-3.72-5.068-5.156-4.628-7.88 27.243 14.647 73.821 36.002 108.387 44.526a234.061 234.061 0 0051.733 7.734v.381c.059 3.046-3.896 4.159-6.942 4.247z" fill="#6F9617" opacity=".31"/><path d="M322.819 214.195c-13.973 7.177-69.134 32.633-109.471 9.872-42.418-23.903-61.957-45.493-78.801-68.576h.498c5.273 1.64 8.349 10.34 11.717 14.354a73.56 73.56 0 009.14 8.788c20.506 17.312 41.012 34.888 65.882 45.083a45.278 45.278 0 0010.282 3.105c4.805.703 9.726 0 14.647.498 3.311.263 6.562 1.025 9.843 1.201a59.242 59.242 0 0011.718-.938c18.367-2.753 37.32-5.683 54.545-13.387z" fill="#9CC448" opacity=".31"/><path d="M118.934 136.011l.381.41.586.586 1.23 1.171 2.578 2.315c1.758 1.552 3.545 2.929 5.332 4.599a51.253 51.253 0 005.419 4.159c1.904 1.289 3.896 2.52 5.859 3.721 8.026 4.804 16.346 9.286 24.695 13.592 16.756 8.612 33.863 16.58 51.293 23.728a321.06 321.06 0 0053.725 17.371 242.594 242.594 0 0027.859 4.775c4.687.557 9.403.849 14.12.937 4.716.188 9.44-.127 14.09-.937a68.752 68.752 0 01-14.09 1.26c-4.717 0-9.462-.176-14.179-.616a252.032 252.032 0 01-28.063-4.189 323.105 323.105 0 01-54.399-16.287c-17.577-6.796-35.153-14.412-52.085-22.702-8.524-4.16-16.961-8.437-25.251-13.153-2.08-1.201-4.131-2.402-6.181-3.721a55.461 55.461 0 01-5.859-4.335c-1.875-1.465-3.72-2.929-5.537-4.511a77.4 77.4 0 01-2.724-2.373l-1.377-1.23-.586-.703-.351-.381-.469-.528 3.984-2.958z" fill="#9CC448"/><path d="M370.803 53.666a701.4 701.4 0 01-19.51 14.15 517.614 517.614 0 01-63.568 38.315c-5.448 2.93-11.131 5.39-16.756 8.085l-8.554 3.691-4.247 1.816-4.365 1.67a311.336 311.336 0 01-35.446 11.718 359.4 359.4 0 01-36.529 7.587 315.961 315.961 0 01-37.204 3.515 288.425 288.425 0 01-74.494-6.738 252.426 252.426 0 01-36.032-10.926c-5.859-2.256-11.717-4.775-17.313-7.529-2.929-1.406-5.624-2.929-8.407-4.394-2.783-1.464-5.449-3.134-8.378-5.097l5.859-8.29c2.168 1.523 4.833 3.164 7.353 4.629a168.527 168.527 0 007.909 4.306c5.331 2.724 10.839 5.214 16.405 7.499a252.234 252.234 0 0034.537 11.102 280.833 280.833 0 0072.239 7.763 310.088 310.088 0 0036.412-2.929 358.612 358.612 0 0035.973-6.826 312.62 312.62 0 0034.948-10.809l4.306-1.582 4.248-1.728 8.495-3.486c5.566-2.52 11.22-4.892 16.668-7.675a514.36 514.36 0 0063.656-36.91c6.533-4.394 12.977-8.788 19.334-13.534l2.461 2.607z" fill="#9CC448"/><path d="M321.062 85.215a166.681 166.681 0 0132.223-38.638c18.836-15.526 53.959-11.015 74.172 2.93L321.062 85.214z" fill="#6F9617"/><path d="M444.653 58.119l-5.683.38c-19.744 1.495-85.392 8.144-121.921 32.224 0 0 .791-1.23 2.314-3.31 1.523-2.08 2.929-3.926 5.185-6.504a127.22 127.22 0 0142.828-32.72c30.905-14.208 60.228.322 74.377 8.23l2.9 1.7z" fill="#9CC448"/><path d="M438.912 58.5c-19.744 1.494-85.392 8.144-121.922 32.223 0 0 .791-1.23 2.314-3.31a33.797 33.797 0 003.838-1.963c5.419-3.515 9.14-9.345 15.174-12.04a1.672 1.672 0 011.436 0c1.259.791-.908 3.486.498 4.014 8.348-2.344 16.932-4.746 23.933-9.843 3.837-2.93 8.612-11.337 11.717-7.85 1.582 1.698-3.984 4.774-2.577 6.414l15.408-3.222a39.226 39.226 0 0012.86-4.306c3.457-2.138 7.06-5.507 10.927-4.248a11.72 11.72 0 01-2.93 4.13c2.139 1.934 5.449.938 8.261.323a51.207 51.207 0 0112.157-.703c2.988.117 5.947.205 8.906.38z" fill="#7EA42B"/><path d="M441.753 56.508c-1.816-.82-3.603-1.7-5.449-2.49a97.812 97.812 0 00-38.609-8.144 43.763 43.763 0 00-9.374.82 54.225 54.225 0 00-9.228 3.34c-11.717 5.097-23.435 10.194-35.153 15.79a35.158 35.158 0 00-8.114 4.95c-2.695 2.373-6.913 8.026-11.395 10.223a127.218 127.218 0 0142.827-32.72c31.023-14.208 60.346.321 74.495 8.23z" fill="#9CC448" opacity=".31"/><path d="M191.933 135.893l-.439-3.749C178.986 12.977 323.317 0 323.317 0l-1.406 2.168-1.231 1.875C266.926 85.86 206.434 126.812 194.189 134.517l-2.256 1.376z" fill="#6F9617"/><path d="M196.65 136.626c-2.929-.41-4.687-.733-4.687-.733S262.561 94.296 323.288 0c0 0-.586 6.386-2.168 16.346a420.338 420.338 0 01-1.992 11.16c-4.951 25.662-15.145 63.216-34.772 84.952-17.313 19.246-43.15 24.49-63.07 25.252a151.488 151.488 0 01-24.636-1.084z" fill="#9CC448"/><path opacity=".44" d="M196.65 136.626c-2.929-.41-4.687-.733-4.687-.733S262.561 94.296 323.288 0c0 0-2.93 3.398-4.482 13.358a76.808 76.808 0 01-6.679 8.056 72.754 72.754 0 00-8.027 8.788c-5.331 5.653-7.148 13.914-12.391 19.656-2.314 2.578-5.273 4.57-7.529 7.206a10.022 10.022 0 00-2.578 9.608c.526.882.752 1.91.645 2.93a3.394 3.394 0 01-1.025 1.377 80.69 80.69 0 01-19.686 13.475 15.588 15.588 0 00-5.859 3.837 4.625 4.625 0 00-1.135 3.169 4.624 4.624 0 001.311 3.1c2.051 1.67 6.386 1.435 6.21 4.072a3.306 3.306 0 01-1.699 2.314c-4.277 2.929-9.813 3.193-14.647 5.009-9.257 3.486-15.789 12.479-25.31 15.204a13.878 13.878 0 00-5.653 2.226c-1.524 1.347-1.905 4.218 0 5.214.937.528 2.519 1.465 1.64 2.08-7.353 1.201-14.295 1.904-19.744 5.947z" fill="#7EA42B"/><path d="M221.228 137.71l.732-.293a31.058 31.058 0 016.386-.879 51.568 51.568 0 0017.196-6.064l12.596-6.181a61.01 61.01 0 008.788-4.98 58.95 58.95 0 009.023-8.495l12.596-13.534a43.933 43.933 0 004.775-5.653 50.951 50.951 0 004.394-8.408c2.549-5.858 5.126-11.541 7.675-17.341a196.677 196.677 0 008.554-21.502c1.23-4.013 2.197-8.085 3.515-12.069.432-1.628.95-3.232 1.553-4.804-4.951 25.661-15.145 63.216-34.772 84.952-17.196 19.245-43.033 24.489-63.011 25.251z" fill="#9CC448" opacity=".31"/><path d="M191.935 135.894l-.44-3.75c.938-1.142 2.344-2.167 3.31-3.281a26.57 26.57 0 005.01-8.612c1.201-3.369 2.05-7.411 5.243-9.022a8.783 8.783 0 01-.556 7.997c5.507.673 10.018-4.541 12.069-9.726 2.05-5.185 2.929-11.014 6.62-15.203a1.324 1.324 0 011.055-.557c.41 0 .615.528.761.938l2.93 7.557a42.745 42.745 0 0021.912-24.636c1.318-3.837 2.167-8.085 5.009-10.985 1.787.645.381 3.896 1.904 5.039 1.523 1.142 2.637-.176 3.633-1.143l11.717-11.717a23.206 23.206 0 005.449-6.855c1.787-4.13 1.025-8.788 2.021-13.24a3.286 3.286 0 01.937-1.934 3.107 3.107 0 013.809.644 13.104 13.104 0 003.251 2.637c3.252 1.201 5.859-2.607 7.5-5.712a105.683 105.683 0 0123.435-31.257c.879-.79 2.05-1.64 3.134-1.171h.235C261.478 94.94 191.935 135.894 191.935 135.894z" fill="#6F9617" opacity=".31"/><path d="M191.933 135.893l-.439-3.749C178.986 12.977 323.317 0 323.317 0l-1.406 2.168-1.231 1.875h-.761a135.708 135.708 0 00-23.435 4.189 137.694 137.694 0 00-43.561 17.576c-3.808 2.49-7.499 5.214-11.131 7.968-16.346 12.361-32.927 25.954-41.012 44.731-7.616 17.342-7.118 37.057-6.474 56.01l-2.373 1.376z" fill="#9CC448" opacity=".31"/></svg>