<svg width="201" height="273" fill="none" xmlns="http://www.w3.org/2000/svg"><path d="M90.156 127.039c-2.933-4.822-5.988-9.637-10.165-13.418-7.175-6.467-17.23-9.483-23.334-16.97a34.843 34.843 0 01-5.616-10.877c-4.199-12.243-4.703-26.27 1.328-37.732 1.46-2.79 3.448-5.521 6.422-6.716a10.873 10.873 0 019.237.99 24.934 24.934 0 016.922 6.553A74.992 74.992 0 0190.602 87.45c.974 9.537.139 19.333 2.023 28.656 2.442 12.099 9.279 22.84 13.162 34.549a93.442 93.442 0 014.814 22.42c.12 1.71-.219 9.429-3.093 6.542-1.159-1.169-.047-8.898-.166-10.456-1.441-15.093-9.45-29.365-17.186-42.123z" fill="url(#paint0_radial_1552_6072)"/><path d="M55.623 76.794c-1.05-.978-2.1-1.956-3.182-2.897a9.764 9.764 0 003.182 2.897zm30.617 7.648a9.879 9.879 0 00-.574 2.099c.19-.704.396-1.398.574-2.099z" fill="#367542" opacity=".23"/><path d="M80.217 100.717l-.094.11c-2.18-3.72-4.347-7.442-6.246-11.295a5.576 5.576 0 002.258-1.823 33.588 33.588 0 007.553-18.172c-1.528 2.2-1.679 4.622-2.555 7.124a28.85 28.85 0 01-4.437 8.164 6.855 6.855 0 01-3.716 2.745 63.78 63.78 0 01-2.582-6.484c-.99-2.987-1.819-6.034-2.557-9.106a5.106 5.106 0 001.473-1.313c3.82-4.642 5.363-11.08 5.935-16.887-1.536 3.406-2.621 6.99-4.128 10.402-.75 1.719-1.96 5.103-3.642 6.309-.566-2.36-1.11-4.74-1.653-7.119-1.071-4.653-4.143-9.823-4.113-14.647-.044 4.773 1.345 8.783 2.251 13.343.587 2.977 1.25 5.931 2.016 8.857a2.319 2.319 0 01-.985-.401c-1.16-.781-10.398-9.81-9.943-10.755-1.25 2.745 7.18 10.133 9.278 11.592.605.458 1.3.781 2.04.95l.442 1.577c1.313 4.72 2.928 9.35 4.835 13.863-4.357-.23-8.65-6.15-12.104-8.584-1.204-.838-2.589-1.529-3.87-2.345 2.785 2.622 5.51 5.371 8.41 7.809a25.556 25.556 0 006.837 4.625c.483.211.99.362 1.51.447a97.24 97.24 0 002.981 6.082 129.372 129.372 0 003.006 5.23l.368.769c-.774-.835-1.593-.743-2.935-1.183a42.145 42.145 0 01-13.428-6.842c4.403 4.09 9.252 8.292 15.099 9.39a8.623 8.623 0 012.766.925 440.646 440.646 0 012.184 3.538 94.898 94.898 0 016.057 11.264c2.39 5.501 4.014 11.534 8.045 15.978-1.399-1.53-2.095-4.946-2.915-6.93l-3.102-7.348a129.047 129.047 0 00-6.104-12.123c-1.127-2.091-2.324-4.135-3.525-6.192a32.194 32.194 0 004.411-13.041c.098-.885.166-1.776.322-2.65a110.839 110.839 0 01-3.781 11.19 10.24 10.24 0 01-1.662 2.957z" fill="#367542" opacity=".23"/><path d="M86.484 164.212c-4.08-6.838-6.459-15.012-12.569-20.104a69.598 69.598 0 00-6.052-4.098c-3.73-2.482-7.194-5.646-8.923-9.782s-1.327-9.313 1.829-12.524a11.012 11.012 0 015.79-2.694 11.01 11.01 0 016.312.97 16.714 16.714 0 018.235 9.601 36.126 36.126 0 011.767 12.802c-.112 12.719 5.016 22.501 14.555 31.57 2.829 2.679 15.603 11.186 6.653 10.821-2.794-.087-6.53-4.02-8.415-5.704a47.243 47.243 0 01-9.182-10.858z" fill="url(#paint1_radial_1552_6072)"/><path d="M79.301 144.257c-.466-.921-.881-1.759-1.266-2.537a76.557 76.557 0 012.585-12.542 60.572 60.572 0 00-3.584 10.512 107.555 107.555 0 00-2.987-5.706 271.425 271.425 0 00-1.622-2.769c.11-4.073.462-8.136 1.056-12.168a27.206 27.206 0 00-1.672 11.11c-.608-1.033-1.233-2.075-1.829-3.112-1.927-3.361-4.236-6.061-4.902-8.531.944 3.361 3.135 7.021 4.894 10.18-1.063-.629-2.243-1.183-2.647-1.388a16.269 16.269 0 00-4.603-1.599 24.586 24.586 0 016.624 3.273 9.575 9.575 0 011.743 1.67c1.5 2.775 3.098 5.509 4.632 8.26-.614-.312-1.325-.527-1.99-.825-1.417-.557-2.617-1.576-4.06-2.028a23.393 23.393 0 00-5.199-.962c1.63.229 3.213.719 4.686 1.452 1.615.819 3.118 1.241 4.624 2.216a16.95 16.95 0 013.47 2.983c2.137 4.063 4.265 8.142 6.075 12.366 1.213 2.842 2.28 5.753 3.764 8.477a35.434 35.434 0 009.21 11.251c-7.85-8.381-11.729-19.039-17.002-29.583z" fill="#367542" opacity=".23"/><path d="M131.282 49.227a17.555 17.555 0 00-9.034 1.014 26.302 26.302 0 00-7.951 3.838 24.82 24.82 0 00-6.773 8.82 49.267 49.267 0 00-4.867 27.837c.667 5.582 2.288 11.008 2.997 16.592.476 4.466.659 8.958.55 13.448l-.064 16.193c-.136 5.97.085 11.942.66 17.886.568 4.932-2.33 17.148-2.796 23.823a17.871 17.871 0 018.389.288c-.184-9.731-1.254-20.791-1.337-30.357-.156-10.417-2.673-28.307 4.006-37.018a63.217 63.217 0 016.899-7.139c6.037-5.722 11.792-11.904 15.716-19.233 3.924-7.328 5.87-15.983 3.934-24.06-1.298-5.364-4.891-10.761-10.329-11.932z" fill="url(#paint2_radial_1552_6072)"/><path d="M114.116 101.12c.889-3.197 1.881-6.368 2.869-9.509 7.147-7.044 16.139-16.985 23.486-22.922-8.043 3.31-16.926 12.902-22.548 20.099l1.997-5.957c.692-2.021 1.724-4.857 2.831-7.866 4.054-3.906 8.215-7.73 12.559-11.344-3.735 2.432-7.456 4.86-11.103 7.407 1.234-3.35 2.41-6.558 3.177-8.807a55.003 55.003 0 00-5.181 9.757 32.438 32.438 0 00-2.122-8.938c.486 3.752 1.04 7.401 1.192 11.15-1.655 3.966-3.061 8.082-4.315 11.852.113-4.183.66-9.387.092-12.147-.567-2.76-.74-7.568-2.661-9.478 1.932 8.064 1.452 15.92 1.564 18.047.042.542.002 4.15-.147 7.07l-.755 2.537a250.61 250.61 0 00-2.151 7.135c-.573-2.731-1.862-6.285-2.157-7.24a36.366 36.366 0 00-4.37-9.842c-.066 1.79 1.443 4.105 2.074 5.81a62.911 62.911 0 012.087 6.595 34.404 34.404 0 011.122 9.371l-.142.579a156.884 156.884 0 00-1.758 61.446c-.885-17.947-1.825-36.086 1.649-53.749.405-2.106.882-4.205 1.405-6.289 5.433-6.59 12.173-12.025 18.855-17.374a56.097 56.097 0 00-17.549 12.607zm1.211-75.378a121.019 121.019 0 0116.231-8.473 39.786 39.786 0 00-14.956 6.358c.752-.53-1.699-8.42-2.041-9.39-.095 3.805.489 7.709.766 11.505z" fill="#367542" opacity=".23"/><path d="M88.909 86.847c-1.734-5.435-3.792-10.793-4.617-16.442a40.926 40.926 0 01-.35-10.224c.195-2.117 1.5-4.863 3.54-4.26.902.259 1.58 1.19 2.54 1.21.962.02 1.791-1.167 2.146-2.221 1.511-5.074-.166-10.456-.544-15.746-.378-5.29 1.062-11.603 6.008-13.518 1.445-.572 3.054-.663 4.514-1.184 4.438-1.55 6.709-6.284 9.025-10.366 3.366-5.913 8.865-11.774 15.668-11.318 7.393.443 12.419 8.676 11.78 16.064-.64 7.389-5.451 13.68-10.589 19.052-2.589 2.664-5.441 5.278-7.031 8.588-3.314 6.742-1.313 15.05-3.972 22.05-2.47 6.395-8.454 10.677-12.547 16.17-8.92 12.025-3.334 29.649-1.275 43.641 1.845 12.585 5.287 38.158 6.587 50.827.22 2.263-1.021.702-3.988-.098-3.536-.958-3.057-10.889-3.426-13.386-1.054-6.416-1.895-12.863-2.655-19.318-1.6-12.752-3.021-25.553-5.446-38.183a186.355 186.355 0 00-5.368-21.338z" fill="url(#paint3_radial_1552_6072)"/><path d="M108.074 44.937a181.07 181.07 0 0019.792-13.348 266.12 266.12 0 00-19.124 11.14c.3-.956.602-1.899.913-2.816a90.438 90.438 0 019.956-20.66l5.969-8.33c-8.408 8.324-13.603 19.704-17.709 31.663-1.246-2.417-4.051-14.775-4.32-15.779-1.317 1.325.499 7.152.91 8.96a58.817 58.817 0 002.755 8.774c-1.853 5.585-3.498 11.263-5.141 16.803-1.88-3.983-6.27-17.694-6.918-18.62.572 7.312 3.446 14.392 6.162 21.156l-.212.724a170.62 170.62 0 00-3.79 17.323l-.226 1.267a202.678 202.678 0 01-6.605-14.597c-.489-1.247-.951-2.5-1.312-3.686-.21 3.2 2.238 7.674 3.304 10.681.295 1.052 3.48 7.906 4.16 10.427a65.79 65.79 0 00-.76 12.584c.705 13.307 3.513 27.006 5.082 40.236.438 3.682 1.112 7.021 1.482 10.654.547 5.104 1.565 11.543 1.591 15.036-.067-13.306-2.661-30.483-4.609-43.634-.903-6.125-1.925-11.788-2.629-18.288a68.094 68.094 0 01.941-16.868l10.257-11.404a53.167 53.167 0 007.271-9.416c-6.019 5.246-12.079 10.586-16.849 16.976a112.303 112.303 0 013.371-15.267 69.89 69.89 0 00.729-2.336 115.887 115.887 0 0015.68-11.321 133.79 133.79 0 00-15.11 9.307 84.302 84.302 0 012.246-8.767c.899-2.716 1.827-5.674 2.743-8.574z" fill="#367542" opacity=".23"/><path d="M99.516 160.969c-5.498-17.413-11.008-34.864-18.539-51.526a28.563 28.563 0 00-4.436-7.513 28.134 28.134 0 00-8.76-5.953c-13.56-6.723-28.832-11.844-43.661-8.884-3.277.658-6.932 2.14-7.846 5.344-.915 3.204 1.091 6.059 3.245 8.305 6.119 6.404 14.44 10.349 23.02 12.548s17.477 2.772 26.323 3.305c2.812.151 5.645.379 7.973 1.912 2.327 1.533 3.55 4.164 4.878 6.573 2.763 4.911 3.445 8.718 5.694 13.87a71.179 71.179 0 013.537 11.461 171.624 171.624 0 007.154 23.409c.939 2.504 2.997 6.382 6.012 6.96 1.772-2.711.166-5.028-.773-7.684-1.415-4.003-2.551-8.098-3.82-12.127z" fill="url(#paint4_radial_1552_6072)"/><path d="M90.012 137.181c-1.168-2.979-2.334-5.945-3.49-8.928-1.751-4.462-3.56-9.032-6.786-12.581a22.052 22.052 0 00-4.091-3.473 29.851 29.851 0 00-8.584-12.326 15.491 15.491 0 00-1.451-1.074 33.764 33.764 0 003.614 4.686 23.65 23.65 0 014.436 7.514 52.64 52.64 0 00-12.132-4.398 9.144 9.144 0 00-2.381-2.956 55.214 55.214 0 01-4.947-4.354c-1.29-1.242-2.75-3.379-4.317-4.129.647.773 8.118 8.79 9.697 10.962l-.521-.13c-3.182-.781-6.378-1.558-9.616-2.046-1.111-.159-2.24-.284-3.364-.439-1.024-2.314-6.06-9.451-8.309-12.528a120.042 120.042 0 016.355 12.274 24.883 24.883 0 01-6.725-1.709 59.677 59.677 0 01-6.586-2.745 36.511 36.511 0 00-6.66-3.056 93.332 93.332 0 0015.61 7.71c-2.54.04-5.068.338-7.547.888a23.856 23.856 0 0011.056.466 49.075 49.075 0 009.42 2.433c1.618.237 3.253.387 4.878.553a29.194 29.194 0 01-11.733 2.991c2.81.513 5.71.181 8.33-.956 1.466-.55 2.879-1.237 4.287-1.895 1.708.162 3.4.454 5.064.875 2.7.799 5.316 1.857 7.811 3.161l.8.384a24.533 24.533 0 01-9.7.911c3.455 1.258 6.964.439 10.45-.166l.628-.177a26.821 26.821 0 013.871 2.345c5.514 4.152 8.06 11.048 10.328 17.551 1.82 5.199 3.635 10.395 5.444 15.588a39.604 39.604 0 00-3.139-11.226z" fill="#367542" opacity=".23"/><path d="M111.101 165.339c.195-6.503 2.312-19.232.285-25.415-1.045-3.18-1.8-6.953-2.845-10.133a16.098 16.098 0 01-.545-9.879c1.041-3.198 3.955-5.939 7.305-5.939 3.035.006 5.647 2.109 7.7 4.342 2.053 2.232 3.918 4.78 6.625 6.137 2.707 1.357 6.278 1.351 9.462 1.84 3.183.49 6.683 1.957 7.721 5.013a5.616 5.616 0 01-1.878 5.986 5.63 5.63 0 01-1.958 1.014c-2.136.53-4.346-.288-6.38-1.073l-10.4-3.998c-5.825-2.253-8.947 16.266-9.176 19.693-.228 3.426-1.4 7.242-1.377 10.875.01 2.058.404 14.705-1.163 16.128-2.922 2.661-4.214-.463-4.101-2.031.284-4.217.598-8.373.725-12.56z" fill="url(#paint5_radial_1552_6072)"/><path d="M125.151 129.473a21.493 21.493 0 00-9.294 1.419 6.267 6.267 0 011.923-4.691 6.416 6.416 0 015.192-.544c1.663.349 4.515 2.025 6.078 1.476-2.421-1.078-5.003-1.889-7.506-2.764a6.322 6.322 0 00-3.669-.491 5.331 5.331 0 00-3.183 3.951c-.1.333-.168.684-.252 1.026-.302-.635-.604-1.214-.941-1.922a9.427 9.427 0 01-.938-2.504c-.288-1.566.896-4.403 2.564-4.871a3.304 3.304 0 012.075.289c.796.322 1.547.743 2.236 1.254-.697-.51-.852-1.504-1.789-1.933a5.236 5.236 0 00-2.866-.344c-3.128.547-3.746 3.82-2.902 6.433.612 1.834 1.71 3.477 2.297 5.319a47.794 47.794 0 00-.103 6.684 208.73 208.73 0 01-1.957 34.948c3.57-12.93 3.076-26.573 3.689-39.973.41.033.823.01 1.227-.068 1.708-.327 3.308-1.039 4.984-1.482a7.608 7.608 0 015.107.088c-.05-.816-1.121-1.18-1.972-1.3z" fill="#367542" opacity=".23"/><path d="M131.99 188.642c-5.106-16.554-29.238-14.081-37.362-1.243a20.145 20.145 0 004.488 25.155 21.143 21.143 0 0012.974 3.649c.279.005.553-.003.824-.024a2.089 2.089 0 011.951 1.127c.072.158.157.31.252.455 3.405 5.962 6.182 11.118 7.567 17.925 1.385 6.806 1.824 13.546 2.929 20.292.3-9.649-.551-19.299-2.534-28.747a32.621 32.621 0 01-.621-5.222c-.146-2.837-1.411-4.779-1.04-7.401a1.935 1.935 0 01.858-1.334c5.311-3.719 10.993-10.559 11.074-17.32a23.838 23.838 0 00-1.36-7.312z" fill="url(#paint6_radial_1552_6072)"/><path style="mix-blend-mode:multiply" opacity=".45" d="M131.62 195.858a19.987 19.987 0 01-3.563 5.013c-1.553 1.225-3.592 1.659-5.185 2.84-1.161.796-2.04 1.956-3.253 2.615a9.07 9.07 0 01-4.189 1.01c-3.641.151-7.588-.789-9.888-3.602a18.437 18.437 0 00-2.555-3.185c-1.892-1.461-4.47-1.125-6.535-2.316-1.763-.999-4.095-5.409-3.393-7.446a20.106 20.106 0 00-.807 9.207 18.784 18.784 0 006.87 12.585 21.144 21.144 0 0012.975 3.649c.278.005.553-.003.824-.024a2.097 2.097 0 011.95 1.127c.073.158.157.31.253.455 3.405 5.962 6.182 11.119 7.567 17.925 1.385 6.806 1.823 13.546 2.929 20.293.3-9.65-.551-19.3-2.534-28.748a32.621 32.621 0 01-.621-5.222c-.146-2.837-1.411-4.778-1.04-7.401a1.926 1.926 0 01.858-1.334c5.311-3.719 10.993-10.559 11.074-17.32.009-.907-.06-1.814-.207-2.709a53.087 53.087 0 01-1.53 2.588z" fill="url(#paint7_radial_1552_6072)"/><path style="mix-blend-mode:screen" opacity=".32" d="M109.977 181.554a4.442 4.442 0 00-2.852 2.766 3.992 3.992 0 002.026 3.762 12.554 12.554 0 006.39 1.748c3.388.183 7.097-.318 9.461-2.795.37-.36.659-.795.847-1.276a3.54 3.54 0 00.047-1.756c-1.468-7.89-11.423-4.486-15.919-2.449z" fill="url(#paint8_radial_1552_6072)"/><path style="mix-blend-mode:multiply" opacity=".32" d="M97.778 185.602a2.42 2.42 0 00-.437 2.24 1.889 1.889 0 001.31 1.016 4.984 4.984 0 001.639.066 4.001 4.001 0 002.67-.944c.382-.536.729-1.095 1.039-1.675.286-.412.681-.731 1.067-1.13a1.8 1.8 0 00.505-1.359c-.126-.795-1.025-1.235-1.836-1.311a6.458 6.458 0 00-5.957 3.097z" fill="url(#paint9_radial_1552_6072)"/><path d="M106.33 190.215a3.205 3.205 0 00-1.572.663c-.193.151-.396.415-.263.641.132.226.29.195.462.216a4.65 4.65 0 001.729-.153.772.772 0 00.332-.116.773.773 0 00.243-.253.57.57 0 00-.324-.712 1.334 1.334 0 00-.842-.04l.235-.246zm12.869 1.645a9.703 9.703 0 00-1.741 1.001c-.288.205-.574.618-.324.866a7.328 7.328 0 001.696-.172c.27-.041.525-.151.741-.319a.628.628 0 00.2-.72.422.422 0 00-.307-.224.412.412 0 00-.359.12l.094-.552zm8.779-3.253a9.872 9.872 0 00-1.148 1.236c-.131.175-.255.473-.067.6a.378.378 0 00.221.048 2.082 2.082 0 001.967-1.327.615.615 0 00.039-.357.478.478 0 00-.548-.275 1.205 1.205 0 00-.573.327l.109-.252zm-20.364 7.71c-.455-.094-1.089-.082-1.206.339a.608.608 0 00.335.653c.236.113.494.172.756.175.317.049.641.015.941-.098a.674.674 0 00.34-.315.671.671 0 00.052-.46.653.653 0 00-.628-.363 1.82 1.82 0 00-.732.205l.142-.136zm-11.195-2.045c-.103.029-.184.134-.126.243a.39.39 0 00.248.193c.653.26 1.374.292 2.047.089a.422.422 0 00.288-.205c.07-.199-.104-.372-.32-.45a2.206 2.206 0 00-1.752.022l-.385.108zm27.15 4.968a1.331 1.331 0 00-.975 1.063l1.283-.361c.153-.007.302-.049.436-.122a.45.45 0 00-.015-.646 1.746 1.746 0 00-.969.147l.24-.081zm-21.166 5.196l-.976.274a.695.695 0 00.667.601 1.89 1.89 0 00.95-.266.43.43 0 00.241-.179.322.322 0 00-.097-.363.319.319 0 00-.119-.06.93.93 0 00-.542.041l-.124-.048zm15.778 3.872a2.96 2.96 0 00-1.733.486c-.231.162-.431.536-.184.675a.465.465 0 00.346-.001l1.733-.486c.167-.047.372-.105.369-.312-.002-.206-.185-.266-.357-.287a1.012 1.012 0 01-.489-.112l.315.037zm-4.378-30.139a3.658 3.658 0 00-2.078.39.562.562 0 00-.243.22.319.319 0 00.214.369.737.737 0 00.464.022 5.344 5.344 0 001.694-.572.3.3 0 00.186-.177c.03-.188-.25-.248-.437-.223l.2-.029z" fill="#920A29"/><defs><radialGradient id="paint0_radial_1552_6072" cx="0" cy="0" r="1" gradientUnits="userSpaceOnUse" gradientTransform="rotate(-15.684 713.144 -299.857) scale(130.753 130.659)"><stop stop-color="#BFE7A1"/><stop offset=".34" stop-color="#1A892C"/><stop offset=".81" stop-color="#08511E"/><stop offset="1" stop-color="#157928"/></radialGradient><radialGradient id="paint1_radial_1552_6072" cx="0" cy="0" r="1" gradientUnits="userSpaceOnUse" gradientTransform="matrix(58.5784 -16.4481 16.43637 58.5366 103.078 179.769)"><stop stop-color="#BFE7A1"/><stop offset=".64" stop-color="#1A892C"/><stop offset="1" stop-color="#0F6333"/></radialGradient><radialGradient id="paint2_radial_1552_6072" cx="0" cy="0" r="1" gradientUnits="userSpaceOnUse" gradientTransform="matrix(108.47243 -23.84326 23.82651 108.39624 108.343 168.984)"><stop stop-color="#BFE7A1"/><stop offset=".23" stop-color="#1A892C"/><stop offset=".81" stop-color="#08511E"/><stop offset="1" stop-color="#157928"/></radialGradient><radialGradient id="paint3_radial_1552_6072" cx="0" cy="0" r="1" gradientUnits="userSpaceOnUse" gradientTransform="rotate(-15.684 656.177 -299.506) scale(101.491 101.418)"><stop stop-color="#BFE7A1"/><stop offset=".64" stop-color="#1A892C"/><stop offset="1" stop-color="#0F6333"/></radialGradient><radialGradient id="paint4_radial_1552_6072" cx="0" cy="0" r="1" gradientUnits="userSpaceOnUse" gradientTransform="matrix(86.34006 -24.24325 24.22597 86.27854 100.714 168.34)"><stop stop-color="#BFE7A1"/><stop offset=".64" stop-color="#1A892C"/><stop offset="1" stop-color="#0F6333"/></radialGradient><radialGradient id="paint5_radial_1552_6072" cx="0" cy="0" r="1" gradientUnits="userSpaceOnUse" gradientTransform="matrix(67.92204 -19.07169 19.05812 67.87371 121.51 174.648)"><stop stop-color="#BFE7A1"/><stop offset=".59" stop-color="#289136"/><stop offset=".64" stop-color="#1A892C"/><stop offset="1" stop-color="#0F6333"/></radialGradient><radialGradient id="paint6_radial_1552_6072" cx="0" cy="0" r="1" gradientUnits="userSpaceOnUse" gradientTransform="matrix(33.34495 -9.36286 9.35618 33.32117 111.226 187.582)"><stop stop-color="#C70B2E"/><stop offset="1" stop-color="#810824"/></radialGradient><radialGradient id="paint7_radial_1552_6072" cx="0" cy="0" r="1" gradientUnits="userSpaceOnUse" gradientTransform="matrix(33.34495 -9.36286 9.35618 33.32117 111.226 187.581)"><stop stop-color="#C70B2E"/><stop offset="1" stop-color="#810824"/></radialGradient><radialGradient id="paint8_radial_1552_6072" cx="0" cy="0" r="1" gradientUnits="userSpaceOnUse" gradientTransform="matrix(5.82189 -1.63472 1.6948 6.0359 113.401 181.262)"><stop stop-color="#C70B2E"/><stop offset="1" stop-color="#810824"/></radialGradient><radialGradient id="paint9_radial_1552_6072" cx="0" cy="0" r="1" gradientUnits="userSpaceOnUse" gradientTransform="matrix(3.04186 -.85412 .85351 3.0397 101.013 183.56)"><stop stop-color="#C70B2E"/><stop offset="1" stop-color="#810824"/></radialGradient></defs></svg>