<svg width="178" height="307" fill="none" xmlns="http://www.w3.org/2000/svg"><path d="M116.458 183.54c-.607-6.369-4.646-32.8-5.029-36.899-.464-5.013-3.621-26.317-5.012-34.953-1.391-8.636-4.987-28.137-5.64-31.317-.653-3.18-5.294-22.824-5.535-25.693-.24-2.87-2.213-11.732-2.77-7.797-.556 3.935 4.473 31.524 4.92 37.75.447 6.227 6.576 44.15 9.729 64.893 1.336 8.851 5.21 28.259 6.643 35.21a4.742 4.742 0 012.694-1.194z" fill="url(#paint0_radial_1552_6067)"/><path style="mix-blend-mode:multiply" opacity=".55" d="M94.37 60.487c-.473-2.384-.928-4.887-1.476-7.372 1.164 9.639 4.144 26.705 4.51 31.511.464 6.235 6.576 44.15 9.729 64.893 1.337 8.851 5.21 28.259 6.644 35.21.241-.219.509-.407.796-.561-1.555-7.444-5.206-25.971-6.512-34.565-3.162-20.769-9.278-58.696-9.725-64.88-.177-2.385-3.292-20.824-3.966-24.236z" fill="url(#paint1_radial_1552_6067)"/><path style="mix-blend-mode:multiply" opacity=".55" d="M103.163 123.966a7001.894 7001.894 0 013.97 25.554c1.337 8.851 5.21 28.258 6.644 35.209a4.737 4.737 0 012.681-1.189c-.607-6.37-4.646-32.8-5.029-36.899-.224-2.397-1.058-8.481-2.015-15.141-2.209-2.409-4.106-5.062-6.251-7.534z" fill="url(#paint2_radial_1552_6067)"/><path d="M132.063 270.641a10.8 10.8 0 00-2.336 1.425 3.744 3.744 0 00-1.37 2.254c-.038.224-.122.518-.341.493-.219-.025-.27-.261-.434-.332-.165-.072-.38.042-.531.177-.152.135-.43.143-.54-.017-.169.127.038.409.236.413.205-.041.412-.068.62-.08.286.059.463.379.754.45a.692.692 0 00.692-.413c.103-.266.181-.541.231-.822.145-.481.435-.907.831-1.218.497-.362 1.13-.531 1.623-.906.493-.375.62-.586.957-.839.337-.253 3.65-1.484 3.014-1.918-.637-.434-2.938 1.092-3.406 1.333z" fill="url(#paint3_radial_1552_6067)"/><path d="M134.966 270.796c-.586.392-1.176.687-1.812 1.096a5.044 5.044 0 00-2.416 4.008c.063.478.034.964-.084 1.432a3.41 3.41 0 01-1.02 1.155 1.603 1.603 0 00-.628 1.319c.367-.122.548-.506.767-.818a19.53 19.53 0 001.311-1.462 7.278 7.278 0 00.51-2.094 7.24 7.24 0 013.71-4.046 4.708 4.708 0 001.471-1.193c.333-.476.067-1.146-.502-.703-.215.156-.371.531-.556.733-.227.22-.479.412-.751.573z" fill="url(#paint4_radial_1552_6067)"/><path d="M133.028 272.482c-.329.615-.552 1.293-.932 1.883-.277.359-.532.735-.763 1.126a8.418 8.418 0 00-.253 3.202c-.042.559-.13 1.114-.261 1.66.881-.73.873-2.061 1.054-3.161a12.33 12.33 0 014.139-6.843c.224-.215.755-.856.325-1.134-.43-.277-.59.38-.809.607a13.74 13.74 0 00-2.5 2.66z" fill="url(#paint5_radial_1552_6067)"/><path d="M136.539 270.665c-.843 1.685-2.694 2.878-3.672 4.581a11.079 11.079 0 00-1.091 3.763 29.005 29.005 0 00-.599 5.957l1.808-7.765a6.286 6.286 0 01.671-1.909c.441-.569.911-1.114 1.408-1.635.687-.89 1.007-1.994 1.639-2.921.148-.231 1.067-1.015.768-1.239-.3-.223-.839.94-.932 1.168z" fill="url(#paint6_radial_1552_6067)"/><path d="M136.598 276.95a62.253 62.253 0 001.585 10.018 2.66 2.66 0 01-.025 1.735 1.42 1.42 0 01-.565-1.019c-.122-.366-.025-.792-.046-1.192a13.004 13.004 0 00-.599-2.427 18.044 18.044 0 01-.362-1.887c-.161-.986-.317-1.959-.46-2.936a9.81 9.81 0 01-.152-1.256c-.016-.808-.227-1.777-.185-2.578.042-1.55.189-3.095.438-4.626.114-.543.304-1.07.418-1.614.189-.905.13-2.094.737-2.844.502.493.03 1.648-.076 2.216a63.54 63.54 0 00-.484 2.76 31.665 31.665 0 00-.224 5.65z" fill="url(#paint7_radial_1552_6067)"/><path d="M135.456 272.009c-.19.484-.312 1.003-.438 1.55-.489 1.568-1.219 3.047-1.691 4.623-.181.594-.316 1.201-.463 1.812-.207.939-.414 1.879-.637 2.81a5.883 5.883 0 01-.552 1.588 7.451 7.451 0 01-1.134 1.446 15.174 15.174 0 00-1.872 2.815.613.613 0 00.628-.097c.161-.153.296-.331.401-.527.67-1.066 1.614-1.943 2.255-3.055a22.94 22.94 0 001.72-5.798c.257-.957.594-1.884.944-2.815a63.875 63.875 0 012.753-6.535c.177-.354.514-.818.539-1.206-.48.077-.876.742-1.133 1.109a10.41 10.41 0 00-1.32 2.28z" fill="url(#paint8_radial_1552_6067)"/><path d="M137.214 271.844c-.035.795.001 1.592.105 2.381.087.533.207 1.061.359 1.579.851 3.143 1.85 6.236 2.997 9.28a20.55 20.55 0 011.222 3.96c.122.367.177.868.569.948.019-.169.024-.34.013-.51-.118-2.671-1.53-5.303-2.386-7.827-.666-1.996-1.058-3.424-1.661-5.442a23.724 23.724 0 01-.324-2.574 11.405 11.405 0 01.472-4.946c.115-.269.139-.568.067-.852a.434.434 0 00-.346-.307.435.435 0 00-.239.026.43.43 0 00-.19.147c-.236.261-.3.956-.376 1.277a17.708 17.708 0 00-.282 2.86z" fill="url(#paint9_radial_1552_6067)"/><path d="M141.83 274.348a20.547 20.547 0 003.629 2.202 59.035 59.035 0 0010.399 4.423c.271.111.574.115.848.012.278-.092-1.046-.564-1.501-.749-1.206-.623-1.783-.627-3.086-1.33a28.393 28.393 0 00-2.714-1.229c-.78-.316-.932-.602-1.708-.905a11.827 11.827 0 01-1.374-.665 70.777 70.777 0 01-4.203-2.488 6.35 6.35 0 01-1.117-1.243 6.096 6.096 0 01-1.256-2.586c-.122-.366-.594-2.287-1.087-2.249-1.176.097.872 4.048 1.134 4.453a10.223 10.223 0 002.036 2.354z" fill="url(#paint10_radial_1552_6067)"/><path d="M142.361 271.981a15.628 15.628 0 004.877 3.372 20.407 20.407 0 005.801 1.127c.511.064 1.027.09 1.542.075.127-.042.468-.072.426-.282-.042-.211-.4-.106-.544-.114-.543-.029-1.083-.046-1.635-.1a19.45 19.45 0 01-3.326-.618 14.778 14.778 0 01-5.805-3.035 11.208 11.208 0 01-1.079-1.045 5.427 5.427 0 01-.986-1.609c-.101-.303-.599-2.342-1.193-1.638-.278.303-.009 1.239.143 1.567a7.46 7.46 0 001.779 2.3z" fill="url(#paint11_radial_1552_6067)"/><path d="M143.018 269.907c-.105.747-.168 1.5-.189 2.254.012 1.133.333 2.262.274 3.391a9.836 9.836 0 01-.78 3.013l-2.1 5.587a1.487 1.487 0 001.092-.94 24.693 24.693 0 002.028-6.055c.26-.937.41-1.901.447-2.873-.004-.898-.219-1.795-.236-2.73 0-1.727.75-3.48.24-5.136-.059-.177-.131-.392-.337-.421-.742-.16-.418 1.108-.392 1.395.055.838.04 1.679-.047 2.515z" fill="url(#paint12_radial_1552_6067)"/><path d="M141.37 277.942c1.244 2.507 2.458 5.051 3.482 7.658a8.626 8.626 0 001.26 2.473c.034.101.241.172.287.059a12.934 12.934 0 01-1.556-3.695c-.198-.594-.265-1.217-.476-1.807a12.553 12.553 0 00-.835-1.828c-1.146-2.215-2.17-4.486-3.207-6.752a9.902 9.902 0 01-.78-2.127c-.219-1.036-.122-2.094-.257-3.13-.102-.809-1.071-1.441-1.063-.32.024 1.086.19 2.163.494 3.206a33.884 33.884 0 002.651 6.263z" fill="url(#paint13_radial_1552_6067)"/><path d="M148.296 274.902a68.289 68.289 0 003.465 8.871c.229.483.563.909.978 1.247a2.975 2.975 0 00-.341-.687c-1.674-2.742-2.15-6.024-3.145-9.09a28.01 28.01 0 00-3.465-7.06 16.433 16.433 0 01-1.244-1.958 1.874 1.874 0 00-.573-.834c-.287-.185-.712-.114-.708.236.004.35.666.901.826 1.129a38.139 38.139 0 011.615 2.565 40.889 40.889 0 012.592 5.581z" fill="url(#paint14_radial_1552_6067)"/><path d="M141.661 268.956c1.532 3.945 3.287 7.8 5.257 11.546.478.842.787 1.769.91 2.729-.004.186.024.372.085.548a.438.438 0 00.408.299 14.16 14.16 0 00-1.724-5.548 80.122 80.122 0 01-4.249-9.705 5.342 5.342 0 01-.303-1.5c.004-.408-.316-1.495-.725-.656-.392.552.143 1.693.341 2.287z" fill="url(#paint15_radial_1552_6067)"/><path d="M144.422 266.322a7.69 7.69 0 011.024 1.132 17.337 17.337 0 003.651 3.74c1.484 1.036 3.288 1.642 4.734 2.732.565.43 1.243.99 1.977.745a5.001 5.001 0 01-1.391-.673c-.443-.316-.818-.682-1.231-.994-1.956-1.651-4.81-2.37-6.441-4.354-.337-.421-.62-.888-.932-1.318-.312-.429-.877-1.112-1.34-1.659a1.866 1.866 0 00-.881-.661c-.186-.051-.397-.051-.599-.11a3.036 3.036 0 01-.59-.294c-.283-.131-.767-.152-.847.282-.08.434.434.459.742.539a6.481 6.481 0 012.124.893z" fill="url(#paint16_radial_1552_6067)"/><path d="M147.811 268.773a19.8 19.8 0 002.146 1.25 8.21 8.21 0 002.234.757 4.236 4.236 0 002.55-.064 1.208 1.208 0 00-.851-.193 9.41 9.41 0 01-4.473-1.486c-2.318-1.347-4.455-3.077-7.06-4.315-.451-.215-1.484-.572-1.025.215.46.788.738.147 1.349.547 1.61 1.036 3.587 2.287 5.13 3.289z" fill="url(#paint17_radial_1552_6067)"/><path d="M150.678 276.354l.021.063a15.218 15.218 0 012.504 1.777.89.89 0 00.375.24.267.267 0 00.316-.232.36.36 0 00-.177-.235 11.701 11.701 0 01-1.602-1.264 9.595 9.595 0 00-1.429-1.377c-.4-.273-.851-.488-1.248-.749a7.594 7.594 0 01-1.319-1.175 32.075 32.075 0 01-3.714-5.362c-.375-.619-.754-1.25-1.142-1.865a1.116 1.116 0 00-.519-.544c-1.062-.362.152 1.509.283 1.732a34.962 34.962 0 001.572 2.438 32.394 32.394 0 003.684 4.389 18.202 18.202 0 002.395 2.164z" fill="url(#paint18_radial_1552_6067)"/><path d="M116.403 183.754c-2.125-4.346-12.2-21.953-13.561-24.77-1.648-3.425-9.695-17.649-13.043-23.386-3.347-5.736-11.377-18.519-12.768-20.625-1.391-2.106-10.302-14.666-11.175-16.65-.872-1.983-4.852-7.678-4.384-4.716.468 2.961 11.723 21.157 13.675 25.449 1.951 4.292 16.667 29.45 24.588 43.295 3.372 5.897 11.575 18.608 14.556 23.077a4.947 4.947 0 012.112-1.674z" fill="url(#paint19_radial_1552_6067)"/><path style="mix-blend-mode:multiply" opacity=".55" d="M102.804 158.996c-1.648-3.424-9.695-17.648-13.042-23.385-1.7-2.902-4.578-7.615-7.192-11.827-.32 2.157-.654 4.314-1.003 6.472.038.113-.05.269-.063.4 5.5 9.666 13.265 22.917 18.231 31.695 3.373 5.897 11.576 18.608 14.556 23.077a4.949 4.949 0 012.074-1.661c-2.125-4.347-12.199-21.953-13.561-24.771z" fill="url(#paint20_radial_1552_6067)"/><path d="M109.426 179.692a30.608 30.608 0 00-2.344-7.911c-1.639-3.231-5.576-9.009-7.022-11.617-1.446-2.607-9.742-20.778-10.99-23.887-1.247-3.109-8.405-20.101-9.118-21.984-.712-1.883-7.338-16.271-8.932-19.784-1.593-3.513-6.597-18.345-8.426-22.86-1.83-4.516-7.6-20.174-8.094-21.4-.493-1.225-8.894-19.923-9.632-23.188-.738-3.265-4.123-11.348-3.933-11.79.19-.443 3.453 5.125 5.46 9.413C48.4 28.972 56.59 43.036 57.973 47.097c1.382 4.06 11.052 26.52 11.626 28.112.573 1.593 6.774 16.517 7.958 19.057 1.185 2.54 8.911 18.289 9.936 20.896 1.024 2.608 6.247 13.884 7.866 18.736 1.618 4.853 6.774 15.505 8.527 19.457 1.754 3.951 5.269 13.268 5.67 14.595.4 1.327 2.706 4.911 3.081 6.415.376 1.504 1.05 4.874-.236 5.696-1.285.822-2.824.591-2.976-.369z" fill="url(#paint21_radial_1552_6067)"/><path style="mix-blend-mode:multiply" opacity=".55" d="M103.916 153.359c-1.344-3.02-4.725-9.954-6.896-15.24-.902 3.025-2.002 6.004-3.183 8.954 2.601 5.691 5.417 11.689 6.197 13.1 1.446 2.607 5.383 8.386 7.023 11.616a30.629 30.629 0 012.343 7.911c.177.952 1.805 1.196 3.04.391 1.235-.805.602-4.218.236-5.696-.367-1.479-2.685-5.101-3.082-6.415-.396-1.315-3.916-10.603-5.678-14.621z" fill="url(#paint22_radial_1552_6067)"/><path style="mix-blend-mode:multiply" opacity=".55" d="M110.708 179.573a31 31 0 00-2.331-7.915c-1.649-3.214-5.59-9.005-7.032-11.6-1.441-2.594-9.746-20.791-10.993-23.9-1.248-3.108-8.368-20.029-9.101-21.933-.734-1.904-7.314-16.28-8.903-19.78-1.59-3.5-6.597-18.345-8.422-22.848-1.826-4.503-7.6-20.173-8.094-21.399-.232-.695-6.867-13.803-7.318-14.692a198.407 198.407 0 01-2.466-5.033c2.517 6.449 8.06 18.812 8.46 19.802.498 1.238 6.252 16.887 8.094 21.398 1.842 4.512 6.825 19.364 8.426 22.86 1.602 3.497 8.19 17.898 8.903 19.781.713 1.883 7.879 18.858 9.118 21.984 1.24 3.125 9.548 21.293 10.99 23.887 1.441 2.595 5.383 8.386 7.022 11.617a30.608 30.608 0 012.344 7.911c.143.766 1.168 1.015 2.243.74a1.135 1.135 0 01-.94-.88z" fill="url(#paint23_radial_1552_6067)"/><path d="M74.047 47.928C70.801 41.99 56.937 31.645 55.9 31.064c-1.037-.58-4.797-2.205-3.288-.63 1.51 1.575 14.653 14.435 16.845 17.679 2.192 3.243 9.851 20.896 10.555 22.333.704 1.436 7.49 23.467 8.09 25.388.598 1.92 7.262 25.439 7.671 27.213.409 1.773 6.728 23.96 7.2 25.249.472 1.289 3.452 11.867 4.784 16.492 1.273 4.406 7.145 23.779 7.811 25.186a6.676 6.676 0 013.469.542s-4.236-15.438-4.261-15.514c-.468-2.372-4.907-23.557-6.378-27.546-1.471-3.99-5.998-24.05-9.333-34.804-3.334-10.755-9.695-29.066-12.19-38.064-2.496-8.998-9.582-20.72-12.828-26.659z" fill="url(#paint24_radial_1552_6067)"/><path style="mix-blend-mode:multiply" opacity=".55" d="M81.078 70.397c-.657-1.466-8.24-19.144-10.496-22.366-1.383-1.955-13.004-12.992-13.928-13.61 4.498 4.551 11.243 11.458 12.807 13.703 2.255 3.222 9.788 20.917 10.508 22.362.721 1.445 7.491 23.468 8.09 25.389.598 1.92 7.263 25.439 7.672 27.212.409 1.774 6.727 23.961 7.199 25.25.473 1.289 3.453 11.867 4.785 16.492 1.273 4.406 7.145 23.779 7.811 25.186l.202-.067.502-.687.114-.123c-1.362-3.871-6.353-20.35-7.533-24.436-1.332-4.625-4.304-15.22-4.772-16.496-.468-1.276-6.82-23.48-7.2-25.25-.38-1.769-7.048-25.342-7.672-27.213-.624-1.87-7.431-23.88-8.089-25.346z" fill="url(#paint25_radial_1552_6067)"/><path d="M113.422 191.209a37.268 37.268 0 00-4.59-7.864c-2.525-3.02-8.047-8.2-10.21-10.638-2.162-2.438-15.542-19.714-17.658-22.73-2.116-3.016-14.012-19.34-15.264-21.155-1.252-1.816-10.1-15.829-12.671-19.156-2.572-3.327-12.052-16.37-15.184-20.789-3.132-4.418-13.455-21.126-14.286-22.31-.83-1.183-12.047-18.212-13.738-21.552-1.69-3.34-7.305-11.073-7.238-11.63.068-.555 4.84 4.608 8.04 8.68 3.199 4.073 12.06 15.975 14.589 19.977 2.529 4 18.05 26.138 19.074 27.692 1.024 1.554 11.39 15.861 13.3 18.342 1.91 2.481 13.944 17.284 15.736 19.79 1.791 2.506 10.125 13.25 13.143 18.085 3.018 4.835 11.103 14.834 13.953 18.616 2.85 3.782 8.987 12.829 9.763 14.143.775 1.314 4.063 4.557 4.839 6.081.776 1.525 2.445 4.929 1.459 6.142-.987 1.214-2.606 1.249-3.057.276z" fill="url(#paint26_radial_1552_6067)"/><path style="mix-blend-mode:multiply" opacity=".55" d="M114.687 189.776a37.791 37.791 0 00-4.586-7.851c-2.525-3.02-8.047-8.2-10.21-10.638-2.162-2.438-15.533-19.689-17.7-22.688-2.167-2.999-14.025-19.336-15.268-21.168-1.244-1.832-10.05-15.845-12.621-19.172-2.571-3.327-12.128-16.43-15.188-20.802-3.06-4.372-13.46-21.14-14.277-22.327-.818-1.188-22.182-32.161-22.245-31.719-.063.443 5.577 8.293 7.238 11.63 1.66 3.335 12.895 20.372 13.738 21.552.843 1.179 11.187 17.95 14.286 22.31 3.098 4.359 12.62 17.487 15.192 20.814 2.571 3.327 11.381 17.268 12.671 19.155 1.29 1.887 13.144 18.085 15.264 21.156 2.12 3.07 15.47 20.258 17.688 22.692 2.217 2.434 7.676 7.593 10.209 10.638a37.265 37.265 0 014.591 7.863c.451.973 2.07.855 3.052-.372a1.25 1.25 0 00.265-.636c-.906.401-1.783.258-2.099-.437z" fill="url(#paint27_radial_1552_6067)"/><path d="M115.859 183.473c-.4-3.981-1.252-12.517-1.383-13.582-.156-1.353-1.686-21.907-1.896-23.592-.211-1.686.215-23.707.139-25.325-.076-1.618-.038-18.356-2.268-23.65-2.23-5.296-5.965-31.195-11.862-45.841-5.897-14.647-11.04-22.312-9.24-21.129 1.8 1.183 9.931 14.944 13.51 23.398 3.579 8.453 12.92 40.628 13.974 44.925 1.054 4.297 1.109 17.016 1.256 25.463.148 8.447-.459 20.446-.438 26.829.021 6.382.978 16.076 1.386 19.998.409 3.922.127 13.482.22 15.529.092 2.048 1.875 10.09 2.347 12.095.473 2.005 2.947 8.201 3.836 11.5.89 3.298 3.997 14.002 5.86 17.565 1.863 3.564-4.869 5.922-5.969 1.907-1.442-5.249-3.98-11.466-5.029-16.129-1.05-4.664-3.781-12.305-4.544-14.971-.763-2.667-2.9-7.894-3.023-8.682-.122-.788 2.555-4.475 2.622-4.357.068.117.612-.738.502-1.951z" fill="url(#paint28_radial_1552_6067)"/><path d="M124.134 223.783c-.89-3.088-1.21-6.282-2.272-9.382-.974-2.919-4.612-14.078-5.872-17.351-1.164-3.024-1.501-4.92-2.622-7.186 3.743 11.264 7.431 22.532 10.766 33.919zm3.865-1.766c-1.02-3.058-2.66-5.825-3.596-8.968-.885-2.949-4.396-14.15-5.265-17.553-.805-3.13-2.086-8.362-2.482-10.856 1.568 5.586 3.216 12.338 5.189 18.842 1.972 6.504 4.185 12.928 6.154 18.535zm-1.935 5.616c-1.8-6.492-3.545-12.988-5.463-19.454-.961-3.26-5.374-16.913-6.609-20.531 2.196 7.342 3.958 13.383 5.977 19.731 2.129 6.761 4.215 13.48 6.095 20.254z" fill="#426E47" opacity=".32"/><path d="M130.271 226.047c-2.281-6.331-4.485-12.688-6.808-19.019-1.163-3.151-5.568-18.674-5.981-23.283 1.918 7.225 3.954 15.814 6.019 22.259 2.192 6.74 4.397 13.434 6.77 20.043zm-11.597-26.002c.612 1.833 1.143 3.678 1.729 5.518a9401.419 9401.419 0 006.803 21.492c-.885-2.654-1.496-5.539-2.331-8.252-.835-2.713-1.534-5.105-2.365-7.637-1.901-5.7-3.68-11.412-5.239-17.225-.692-2.578-1.543-5.215-2.167-7.844a124.023 124.023 0 003.57 13.948zm.654-.737c.611 1.832 1.147 3.69 1.72 5.535 2.273 7.153 4.544 14.311 6.812 21.475-.885-2.654-1.509-5.535-2.327-8.24a428.621 428.621 0 00-2.365-7.637c-1.901-5.699-3.68-11.411-5.24-17.224-.691-2.578-1.429-5.253-2.061-7.865a127.01 127.01 0 003.461 13.956z" fill="#426E47" opacity=".32"/><path style="mix-blend-mode:multiply" opacity=".55" d="M99.647 53.475c-2.77-6.87-5.379-12.249-7.162-15.867l-.152-.118c1.7 3.492 3.908 8.176 6.23 13.96 5.898 14.645 9.595 40.558 11.863 45.84 2.268 5.282 2.225 22.008 2.267 23.651.043 1.643-.371 23.618-.139 25.324.232 1.706 1.766 22.274 1.922 23.626.072.594.384 3.72.721 7.006.194-2.452.401-4.529.346-5.031-.156-1.352-1.686-21.906-1.91-23.587-.223-1.681.215-23.707.152-25.329-.063-1.622-.038-18.356-2.268-23.65-2.229-5.296-5.998-31.17-11.87-45.825z" fill="url(#paint29_radial_1552_6067)"/><path d="M129.217 222.171c-1.079-3.235-2.162-6.483-3.077-9.773l-.691-2.072c-.127-.379-.22-1.458-.574-1.719-.354-.261-.704.502-.818.961-.113.459-.042.843-.189 1.243-.148.4-.439.666-.51 1.125-.072.459-.047.577-.093.86a1.028 1.028 0 01-.447.724c-.291.182-.691.119-.974.325a1.339 1.339 0 00-.383.493 9.62 9.62 0 01-.763.999c1.218 4.369 3.233 9.693 4.548 14.226 1.1 4.014 7.849 1.665 5.969-1.907a36.887 36.887 0 01-1.998-5.485z" fill="url(#paint30_linear_1552_6067)"/><path d="M125.137 229.53a10.96 10.96 0 01.4 5.961 11.117 11.117 0 01-2.618 3.106 28.448 28.448 0 00-3.136 3.953 14.863 14.863 0 00-.662 15.079c2.116 4.195 7.828 10.828 15.382 12.746 7.554 1.918 13.409-6.144 14.459-10.286 1.172-4.491 2.104-9.324.818-13.895a17.414 17.414 0 00-10.412-11.16c-1.185-.391-2.951-.42-3.941-1.157a7.863 7.863 0 01-1.569-2.089 27.077 27.077 0 01-3.372-5.896c-.982-2.734-1.707-4.444-2.386-6.732-.341-1.023-1.079-.286-1.311.283a3.73 3.73 0 01-.683 1.155c-1.311 1.252-2.655-.126-3.692-.791a71.12 71.12 0 002.66 9.491l.063.232z" fill="url(#paint31_radial_1552_6067)"/><path d="M124.88 239.292c-1.944 3.021-4.456 5.853-5.131 9.393-1.003 5.207 2.294 10.245 5.843 14.187 3.549 3.941 8.03 7.516 13.156 6.916a9.961 9.961 0 01-4.776-1.216 34.3 34.3 0 01-9.788-8.573c-.392-.628-.687-1.175-1.155-1.82a12.53 12.53 0 01-1.45-2.325 13.956 13.956 0 01-.784-6.563 7.635 7.635 0 01.746-2.988c.456-.943.992-1.845 1.602-2.696a39.223 39.223 0 003.334-4.834c1.337-2.735.683-6.632-.198-9.484a22.93 22.93 0 01.692 5.696 11.753 11.753 0 01-2.091 4.307z" fill="#956530"/><path d="M127.299 241.278a30.56 30.56 0 01-1.205 3.843 17.825 17.825 0 00-1.366 4.669c-.489 4.474 2.015 8.694 4.62 12.376a22.335 22.335 0 004.178 4.729 9.313 9.313 0 002.714 1.608c.46.156.932.265 1.379.425.241.111.501.176.767.194.139-.047.556-.186.674-.127a18.186 18.186 0 01-7.731-5.187 28.075 28.075 0 01-2.967-4.263 27.416 27.416 0 01-1.324-2.451 16.793 16.793 0 01-1.281-4.137 10.772 10.772 0 01-.097-3.492c.207-1.059.504-2.098.889-3.105a55.426 55.426 0 001.138-3.835 20.4 20.4 0 00.835-3.775 34.108 34.108 0 00-1.484-9.715c.632 3.244 1.227 8.776.346 11.948a1.804 1.804 0 00-.085.295z" fill="#956530"/><path d="M131.409 254.4c1.53 5.472 4.885 10.223 8.173 14.856-1.745-5.527-5.771-10.138-7.389-15.707a58.93 58.93 0 01-1.53-12.129 58.084 58.084 0 00-2.825-13.101 72.267 72.267 0 012.121 13.645 43.367 43.367 0 001.45 12.436zm8.102-3.77c1.867 5.599 1.851 11.615 1.838 17.517 1.227-4.032.763-8.371.042-12.512a36.65 36.65 0 00-1.716-6.955 49.737 49.737 0 00-3.861-7.7c-1.1-1.866-2.967-4.052-3.899-5.876a63.932 63.932 0 01-3.035-6.823 51.906 51.906 0 004.683 10.416c2.104 3.905 4.54 7.713 5.948 11.933z" fill="#956530"/><path d="M129.896 227.282c1.45 2.788 3.693 6.857 6.171 8.768 1.037.792 2.218 1.381 3.271 2.139a15.979 15.979 0 014.852 6.12 33.01 33.01 0 012.336 7.506c.548 2.138.712 4.356.484 6.551-.522 3.447-2.702 6.393-4.822 9.178a12.556 12.556 0 003.368-3.848 12.857 12.857 0 001.387-2.456c.346-.972.556-1.988.624-3.017.615-7.466-1.889-15.352-7.487-20.337a13.6 13.6 0 00-2.255-1.664 14.31 14.31 0 01-5.716-5.381l-2.213-3.559z" fill="#956530"/><path d="M130.119 240.759a4.866 4.866 0 00-2.546 2.689 3.003 3.003 0 00.784 2.729 5.672 5.672 0 002.609 1.503c1.898.494 3.883.556 5.809.183a11.044 11.044 0 005.792-2.522 4.942 4.942 0 001.467-5.545 6.913 6.913 0 00-2.989-2.724c-2.112-1.234-2.913-.306-4.772.819-1.859 1.126-4.148 1.763-6.154 2.868z" fill="#B68841" opacity=".32"/><path style="mix-blend-mode:multiply" opacity=".32" d="M149.598 253.065c-1.521 5.76-3.608 7.93-9.577 10.09-6.399 2.303-11.984-.833-16.082-5.407a26.51 26.51 0 01-5.505-10.353 8.438 8.438 0 01-.219-1.542 14.983 14.983 0 00.923 11.825c2.116 4.196 7.828 10.829 15.382 12.747 7.554 1.918 13.409-6.144 14.459-10.286 1.049-4.142 1.905-8.275 1.151-12.391-.059.286-.447 5.022-.532 5.317z" fill="url(#paint32_radial_1552_6067)"/><defs><radialGradient id="paint0_radial_1552_6067" cx="0" cy="0" r="1" gradientUnits="userSpaceOnUse" gradientTransform="matrix(64.77392 -21.60645 21.59107 64.72782 107.075 153.347)"><stop stop-color="#054F3F"/><stop offset=".49" stop-color="#398267"/><stop offset="1" stop-color="#65A873"/></radialGradient><radialGradient id="paint1_radial_1552_6067" cx="0" cy="0" r="1" gradientUnits="userSpaceOnUse" gradientTransform="matrix(64.74863 -21.59789 21.5825 64.70253 107.062 153.349)"><stop offset=".49" stop-color="#398267"/><stop offset="1" stop-color="#65A873"/></radialGradient><radialGradient id="paint2_radial_1552_6067" cx="0" cy="0" r="1" gradientUnits="userSpaceOnUse" gradientTransform="matrix(64.77392 -21.60645 21.59107 64.72782 107.075 153.346)"><stop offset=".49" stop-color="#398267"/><stop offset="1" stop-color="#65A873"/></radialGradient><radialGradient id="paint3_radial_1552_6067" cx="0" cy="0" r="1" gradientUnits="userSpaceOnUse" gradientTransform="matrix(3.6927 -1.23176 1.23088 3.69007 131.173 272.44)"><stop stop-color="#D7E2E3"/><stop offset=".58" stop-color="#A0A9AB"/></radialGradient><radialGradient id="paint4_radial_1552_6067" cx="0" cy="0" r="1" gradientUnits="userSpaceOnUse" gradientTransform="rotate(-18.447 911.624 -272.04) scale(4.63927 4.63596)"><stop stop-color="#D7E2E3"/><stop offset=".58" stop-color="#A0A9AB"/></radialGradient><radialGradient id="paint5_radial_1552_6067" cx="0" cy="0" r="1" gradientUnits="userSpaceOnUse" gradientTransform="matrix(4.22384 -1.40893 1.40793 4.22082 133.598 274.694)"><stop stop-color="#D7E2E3"/><stop offset=".58" stop-color="#A0A9AB"/></radialGradient><radialGradient id="paint6_radial_1552_6067" cx="0" cy="0" r="1" gradientUnits="userSpaceOnUse" gradientTransform="rotate(-18.447 920.498 -274.957) scale(5.94572 5.94149)"><stop stop-color="#D7E2E3"/><stop offset=".58" stop-color="#A0A9AB"/></radialGradient><radialGradient id="paint7_radial_1552_6067" cx="0" cy="0" r="1" gradientUnits="userSpaceOnUse" gradientTransform="matrix(7.5498 -2.51836 2.51657 7.54442 137.75 277.578)"><stop stop-color="#D7E2E3"/><stop offset=".58" stop-color="#A0A9AB"/></radialGradient><radialGradient id="paint8_radial_1552_6067" cx="0" cy="0" r="1" gradientUnits="userSpaceOnUse" gradientTransform="matrix(7.44862 -2.48462 2.48285 7.44332 133.269 278.722)"><stop stop-color="#D7E2E3"/><stop offset=".58" stop-color="#A0A9AB"/></radialGradient><radialGradient id="paint9_radial_1552_6067" cx="0" cy="0" r="1" gradientUnits="userSpaceOnUse" gradientTransform="rotate(-18.447 928.38 -292.793) scale(8.11871 8.11293)"><stop stop-color="#D7E2E3"/><stop offset=".58" stop-color="#A0A9AB"/></radialGradient><radialGradient id="paint10_radial_1552_6067" cx="0" cy="0" r="1" gradientUnits="userSpaceOnUse" gradientTransform="rotate(-18.447 918.498 -316.552) scale(8.11871 8.11293)"><stop stop-color="#D7E2E3"/><stop offset=".58" stop-color="#A0A9AB"/></radialGradient><radialGradient id="paint11_radial_1552_6067" cx="0" cy="0" r="1" gradientUnits="userSpaceOnUse" gradientTransform="matrix(5.75403 -1.91936 1.91799 5.74993 147.56 272.27)"><stop stop-color="#D7E2E3"/><stop offset=".58" stop-color="#A0A9AB"/></radialGradient><radialGradient id="paint12_radial_1552_6067" cx="0" cy="0" r="1" gradientUnits="userSpaceOnUse" gradientTransform="matrix(6.22194 -2.07542 2.07394 6.2175 141.901 275.026)"><stop stop-color="#D7E2E3"/><stop offset=".58" stop-color="#A0A9AB"/></radialGradient><radialGradient id="paint13_radial_1552_6067" cx="0" cy="0" r="1" gradientUnits="userSpaceOnUse" gradientTransform="matrix(7.3348 -2.44665 2.4449 7.32958 141.97 278.18)"><stop stop-color="#D7E2E3"/><stop offset=".58" stop-color="#A0A9AB"/></radialGradient><radialGradient id="paint14_radial_1552_6067" cx="0" cy="0" r="1" gradientUnits="userSpaceOnUse" gradientTransform="matrix(7.32215 -2.44243 2.4407 7.31695 147.964 275.211)"><stop stop-color="#D7E2E3"/><stop offset=".58" stop-color="#A0A9AB"/></radialGradient><radialGradient id="paint15_radial_1552_6067" cx="0" cy="0" r="1" gradientUnits="userSpaceOnUse" gradientTransform="rotate(-18.447 919.907 -307.891) scale(6.73226 6.72748)"><stop stop-color="#D7E2E3"/><stop offset=".58" stop-color="#A0A9AB"/></radialGradient><radialGradient id="paint16_radial_1552_6067" cx="0" cy="0" r="1" gradientUnits="userSpaceOnUse" gradientTransform="matrix(5.24195 -3.24724 3.24517 5.23861 148.14 268.884)"><stop stop-color="#D7E2E3"/><stop offset=".58" stop-color="#A0A9AB"/></radialGradient><radialGradient id="paint17_radial_1552_6067" cx="0" cy="0" r="1" gradientUnits="userSpaceOnUse" gradientTransform="rotate(-25.896 656.381 -189.662) scale(5.63924 5.059)"><stop stop-color="#D7E2E3"/><stop offset=".58" stop-color="#A0A9AB"/></radialGradient><radialGradient id="paint18_radial_1552_6067" cx="0" cy="0" r="1" gradientUnits="userSpaceOnUse" gradientTransform="matrix(5.80462 -1.93622 1.93484 5.80048 148.111 271.986)"><stop stop-color="#D7E2E3"/><stop offset=".58" stop-color="#A0A9AB"/></radialGradient><radialGradient id="paint19_radial_1552_6067" cx="0" cy="0" r="1" gradientUnits="userSpaceOnUse" gradientTransform="matrix(35.96588 -11.99696 11.98842 35.94026 88.923 138.784)"><stop stop-color="#054F3F"/><stop offset=".49" stop-color="#398267"/><stop offset="1" stop-color="#65A873"/></radialGradient><radialGradient id="paint20_radial_1552_6067" cx="0" cy="0" r="1" gradientUnits="userSpaceOnUse" gradientTransform="matrix(35.96588 -11.99696 11.98842 35.94026 88.923 138.784)"><stop offset=".49" stop-color="#398267"/><stop offset="1" stop-color="#65A873"/></radialGradient><radialGradient id="paint21_radial_1552_6067" cx="0" cy="0" r="1" gradientUnits="userSpaceOnUse" gradientTransform="matrix(70.06134 -4.22646 3.78492 62.74204 78.17 97.219)"><stop offset=".49" stop-color="#398267"/><stop offset="1" stop-color="#65A873"/></radialGradient><radialGradient id="paint22_radial_1552_6067" cx="0" cy="0" r="1" gradientUnits="userSpaceOnUse" gradientTransform="matrix(70.06125 -4.22622 3.78471 62.74205 78.177 97.2)"><stop offset=".49" stop-color="#398267"/><stop offset="1" stop-color="#65A873"/></radialGradient><radialGradient id="paint23_radial_1552_6067" cx="0" cy="0" r="1" gradientUnits="userSpaceOnUse" gradientTransform="rotate(-18.447 339.49 -185.876) scale(63.5633 63.518)"><stop offset=".49" stop-color="#398267"/><stop offset="1" stop-color="#65A873"/></radialGradient><radialGradient id="paint24_radial_1552_6067" cx="0" cy="0" r="1" gradientUnits="userSpaceOnUse" gradientTransform="matrix(58.5899 -19.54366 19.52973 58.54815 88.57 109.159)"><stop offset=".49" stop-color="#398267"/><stop offset="1" stop-color="#65A873"/></radialGradient><radialGradient id="paint25_radial_1552_6067" cx="0" cy="0" r="1" gradientUnits="userSpaceOnUse" gradientTransform="matrix(58.45082 -19.49727 19.48338 58.40918 86.596 109.816)"><stop offset=".49" stop-color="#398267"/><stop offset="1" stop-color="#65A873"/></radialGradient><radialGradient id="paint26_radial_1552_6067" cx="0" cy="0" r="1" gradientUnits="userSpaceOnUse" gradientTransform="matrix(65.45687 -21.83413 21.81856 65.4102 60.014 112.195)"><stop offset=".49" stop-color="#398267"/><stop offset="1" stop-color="#65A873"/></radialGradient><radialGradient id="paint27_radial_1552_6067" cx="0" cy="0" r="1" gradientUnits="userSpaceOnUse" gradientTransform="matrix(65.40631 -21.81726 21.80173 65.35973 59.816 112.276)"><stop offset=".49" stop-color="#398267"/><stop offset="1" stop-color="#65A873"/></radialGradient><radialGradient id="paint28_radial_1552_6067" cx="0" cy="0" r="1" gradientUnits="userSpaceOnUse" gradientTransform="matrix(69.3139 -23.12084 23.10438 69.26458 110.473 130.416)"><stop offset=".49" stop-color="#398267"/><stop offset="1" stop-color="#65A873"/></radialGradient><radialGradient id="paint29_radial_1552_6067" cx="0" cy="0" r="1" gradientUnits="userSpaceOnUse" gradientTransform="rotate(-18.447 368.84 -269.593) scale(52.9649 52.9272)"><stop offset=".49" stop-color="#398267"/><stop offset="1" stop-color="#65A873"/></radialGradient><radialGradient id="paint31_radial_1552_6067" cx="0" cy="0" r="1" gradientUnits="userSpaceOnUse" gradientTransform="matrix(34.6727 -14.21607 14.20606 34.64828 128.522 231.716)"><stop stop-color="#D7AB52"/><stop offset="1" stop-color="#956530"/></radialGradient><radialGradient id="paint32_radial_1552_6067" cx="0" cy="0" r="1" gradientUnits="userSpaceOnUse" gradientTransform="matrix(29.73886 -12.19328 12.18467 29.71786 130.976 237.695)"><stop stop-color="#D7AB52"/><stop offset="1" stop-color="#956530"/></radialGradient><linearGradient id="paint30_linear_1552_6067" x1="129.529" y1="230.9" x2="123.46" y2="214.346" gradientUnits="userSpaceOnUse"><stop stop-color="#D7AB52"/><stop offset="1" stop-color="#B8C4C5"/></linearGradient></defs></svg>