<svg width="261" height="335" fill="none" xmlns="http://www.w3.org/2000/svg"><path d="M135.485 182.367s-.624-38.779 2.664-55.626c3.288-16.848 8.302-56.513 9.713-61.538 1.411-5.025 6.669-33.154 7.448-31.99.778 1.162-.445 12.17-.723 22.858-.278 10.69-.322 26.63-2.231 35.927-1.909 9.298-7.565 36.228-9.395 43.492-1.831 7.264-4.72 34.121-3.728 47.713.991 13.592-3.748-.836-3.748-.836z" fill="url(#paint0_linear_1552_6070)"/><path d="M152.34 49.677a620.115 620.115 0 01-13.263 87.259 45.106 45.106 0 00-1.666 12.588c-.414-6.866 1.722-13.515 3.514-20.185 3.416-12.666 5.677-25.624 7.888-38.557.403-2.273.797-4.563 1.12-6.85a208.315 208.315 0 001.492-24.89l.915-9.365z" fill="#589C00"/><path d="M83.444 296.446c-.14.035-.237.03-.29-.102a.335.335 0 01-.008-.299c.243-.692 1.268-1.235 1.929-1.469a2.496 2.496 0 011.814-.055c.302.133.59.296.86.486.59.376.965.593 1.258.442.105-.084.2-.178.283-.282.12-.157.26-.297.416-.419a2.003 2.003 0 012 .137c.265.129.543.227.83.292.399.05.804.019 1.19-.09.381-.087.771-.13 1.162-.129.603.059 1.19.232 1.729.508.53.306 1.137.45 1.747.416l.212-.038c.209-.065.428-.088.646-.07.298.057.578.189.811.384l.177.062a2.337 2.337 0 003.014-.537l.579.443a3.065 3.065 0 01-3.953.716l-.214-.075a1.187 1.187 0 00-.49-.257c-.135.001-.27.021-.4.057l-.242.042a3.749 3.749 0 01-2.155-.46 4.565 4.565 0 00-1.46-.513 5.058 5.058 0 00-.988.119 3.562 3.562 0 01-1.452.112 4.719 4.719 0 01-.993-.349c-.617-.217-1.02-.358-1.342-.203-.104.083-.2.178-.283.282a2.068 2.068 0 01-.462.43c-.724.452-1.412-.001-2.046-.408a4.979 4.979 0 00-.732-.412 2.013 2.013 0 00-1.753.246 7.533 7.533 0 01-1.394.993z" fill="url(#paint1_radial_1552_6070)"/><path d="M90.068 307.357a.816.816 0 01-.08-.255 2.55 2.55 0 01.379-1.08 2.664 2.664 0 011.827-1.42c.255-.044.513-.066.772-.068.306.011.612-.03.904-.12.402-.217.74-.538.976-.928a5.63 5.63 0 01.84-.905 4.816 4.816 0 011.838-.767c.787-.189 1.456-.364 1.74-.928a2.54 2.54 0 00.105-.302 1.334 1.334 0 011.259-.97l.195-.03c.655-.137.979-1.181 1.234-2.066a4.271 4.271 0 00-.264.388 3.34 3.34 0 01-.773.914 2.658 2.658 0 01-1.338.391 2.95 2.95 0 00-.918.2 2.88 2.88 0 00-.513.414 3 3 0 01-.52.438 3.544 3.544 0 01-2.765.187 4.797 4.797 0 00-1.908-.12 4.145 4.145 0 00-.79.316 4.207 4.207 0 01-.962.368 4.676 4.676 0 01-2.257-.213 5.055 5.055 0 00-1.589-.262 2.368 2.368 0 00-1.593.754c-.201.211-.632 1.317-.85 1.296a.248.248 0 01-.19-.066c-.556-.548.268-1.487.654-1.86a3.034 3.034 0 011.914-.824 5.638 5.638 0 011.809.282 4.24 4.24 0 001.914.22c.278-.085.547-.193.806-.324a3.852 3.852 0 013.158-.303c.73.262 1.532.23 2.236-.09.154-.099.294-.215.42-.347a2.451 2.451 0 011.837-.767c.35-.002.695-.095.999-.27.232-.209.429-.455.581-.728.332-.505.743-1.151 1.491-1.029l.434.053-.146.415-.225.641c-.312 1.09-.692 2.454-1.805 2.684l-.253.038a.638.638 0 00-.692.562l-.132.377c-.473.823-1.366 1.031-2.22 1.254a4.265 4.265 0 00-1.612.563c-.263.23-.5.488-.708.768a3.21 3.21 0 01-1.266 1.151 3.45 3.45 0 01-1.166.184 5.044 5.044 0 00-.65.04 1.887 1.887 0 00-1.224.869 1.53 1.53 0 00-.255.729c-.067.189.094.457-.078.622a.382.382 0 01-.308.095.396.396 0 01-.273-.171z" fill="url(#paint2_radial_1552_6070)"/><path d="M95.93 310.742c-.368-.524-.099-1.531.024-2.081a3.193 3.193 0 011.241-2.006c.2-.127.408-.238.625-.332.215-.09.42-.202.613-.335a3.276 3.276 0 00.906-1.898 5.318 5.318 0 01.627-1.785 5.66 5.66 0 011.753-1.531 3.677 3.677 0 001.669-1.616c.084-.281.138-.569.161-.861.03-.408.128-.808.289-1.184.016-.065.038-.128.066-.189l.614.385a1.026 1.026 0 00-.031.088c-.155.44.102 1.039.416 1.671a2.242 2.242 0 01.56 1.934 2.247 2.247 0 01-1.21 1.608 3.16 3.16 0 00-.731.633 3.377 3.377 0 00-.552 1.571 5.203 5.203 0 01-.412 1.535 5.313 5.313 0 01-1.032 1.29 3.123 3.123 0 00-1.006 1.496 3.217 3.217 0 00.301 1.518c.1.318.461 1.221.25 1.5-.521.72-.867-1.152-.953-1.309a2.93 2.93 0 01.907-3.79 3.42 3.42 0 001.223-2.395 3.992 3.992 0 01.671-1.91c.255-.292.545-.55.863-.77.37-.209.671-.52.866-.896.163-.465-.134-1.106-.436-1.735l-.11-.25-.093.264a4.411 4.411 0 01-1.949 1.97 4.914 4.914 0 00-1.547 1.306 5.347 5.347 0 00-.552 1.571 3.82 3.82 0 01-1.157 2.29 3.244 3.244 0 01-.74.418 4.106 4.106 0 00-.523.282 2.574 2.574 0 00-.998 1.796c-.089.252-.006 1.947-.38 1.928a.228.228 0 01-.126-.044.498.498 0 01-.108-.137z" fill="url(#paint3_radial_1552_6070)"/><path d="M104.856 311.476a1.899 1.899 0 01-.587-.785 3.54 3.54 0 01-.439-1.849c.14-.733.473-1.415.963-1.977.398-.446.682-.98.83-1.558.037-.224.051-.451.04-.678a2.76 2.76 0 01.203-1.341c.105-.175.225-.34.357-.496a2.92 2.92 0 00.267-.358c.266-.514.015-1.166-.253-1.853a2.906 2.906 0 01-.202-2.443l.404-.748.253.809c.171.291.437.514.753.631.38.18.713.447.97.779a2.831 2.831 0 01.561 2.427c-.05.181-.112.357-.186.528-.079.17-.141.346-.185.528-.092.504.267.969.689 1.499.502.505.813 1.168.881 1.876a2.879 2.879 0 01-.688 1.637c-.156.197-.292.41-.406.634a2.66 2.66 0 00-.196 1.484c.074.393.504.897.405 1.3a.253.253 0 01-.31.159c-.593-.081-.785-1.066-.87-1.547a3.007 3.007 0 01.297-1.732c.134-.254.286-.498.455-.73.302-.341.495-.765.554-1.217a2.452 2.452 0 00-.732-1.415c-.459-.584-.971-1.259-.823-2.082.046-.255.133-.501.256-.729l.145-.415a2.17 2.17 0 00-.439-1.806 2.155 2.155 0 00-.717-.534 3.36 3.36 0 01-.534-.329c.062.414.182.817.356 1.198a2.958 2.958 0 01.214 2.447 2.364 2.364 0 01-.353.484 2.157 2.157 0 00-.259.375 1.99 1.99 0 00-.142 1.009 3.78 3.78 0 01-.047.816 4.403 4.403 0 01-.952 1.868 3.532 3.532 0 00-.84 1.626 3.47 3.47 0 00.715 1.987.46.46 0 01.053.414c-.159.17-.311.202-.461.107z" fill="url(#paint4_radial_1552_6070)"/><path d="M113.913 311.635c-.542-.106-.79-1.774-.89-2.092a5.472 5.472 0 01.306-2.843.873.873 0 00.088-.251.435.435 0 00-.161-.184 4.392 4.392 0 00-.408-.327c-.533-.413-1.108-.869-1.155-1.662.013-.203.05-.403.111-.597.046-.11.086-.224.119-.339.05-.505-.356-.916-.821-1.404a6.322 6.322 0 01-.749-.884 5.338 5.338 0 01-.527-1.357c-.204-.665-.368-1.245-.874-1.535l-2.121-1.282 2.393.629a.705.705 0 00.439-.044.785.785 0 011.006.354c.131.208.233.434.302.67l.145.39c.206.359.479.676.804.932l3.079 2.86c.401.338.736.748.988 1.209.244.59.353 1.226.321 1.863 0 .24.005.468.018.712a4.512 4.512 0 001.004 2.372c.271.308.568.592.889.849.258.231.555.872-.082.677-1.434-.504-2.395-2.436-2.524-3.837l-.026-.772a3.755 3.755 0 00-.263-1.504 3.789 3.789 0 00-.849-1.004l-2.981-2.897a4.061 4.061 0 01-1.002-1.17 4.435 4.435 0 01-.174-.471 1.805 1.805 0 00-.219-.501l-.089-.031-.062-.022c.254.417.437.873.543 1.349.107.41.262.806.462 1.179.194.278.416.536.663.769.506.531 1.087 1.13 1.002 1.975-.04.156-.093.307-.159.453-.065.117-.11.245-.133.377-.006.421.414.753.873 1.097l.441.353c.201.151.341.37.391.617.025.205-.014.414-.111.597a4.765 4.765 0 00-.259 2.507c.054.329.724 1.962.346 2.154a.326.326 0 01-.094.066z" fill="url(#paint5_radial_1552_6070)"/><path d="M87.236 304.074c-.121-.621 1.126-1.962 1.504-2.111.357-.11.73-.151 1.102-.122.915.011 1.915-.061 2.276-.725.06-.13.107-.264.141-.403.052-.188.117-.373.194-.553.507-.881 1.534-.986 2.429-1.081a3.137 3.137 0 001.89-.593 3.45 3.45 0 00.459-.785c.165-.488.482-.911.904-1.207.41-.207.866-.3 1.324-.27.519-.029.852-.053 1.046-.282.072-.139.124-.287.154-.44a1.232 1.232 0 01.861-.883l.107.701c-.088-.031-.18.191-.302.458a2.437 2.437 0 01-.321.594 1.912 1.912 0 01-1.602.538 2.083 2.083 0 00-.977.166 1.93 1.93 0 00-.625.895 3.64 3.64 0 01-.585.981 3.57 3.57 0 01-2.331.805c-.836.088-1.559.173-1.888.749a2.517 2.517 0 00-.15.427 2.663 2.663 0 01-.186.528c-.546.994-1.796 1.092-2.909 1.083a2.649 2.649 0 00-.836.087 1.686 1.686 0 00-.859.997c-.093.264-.194.836-.623.728a.336.336 0 01-.198-.282z" fill="url(#paint6_radial_1552_6070)"/><path d="M92.807 309.292c-.846-.65.197-2.091.795-2.545.209-.152.426-.288.647-.436a3.55 3.55 0 001.184-.996 5.43 5.43 0 00.225-.641c.097-.328.244-.638.436-.92a3.37 3.37 0 011.622-.998c.5-.132.954-.397 1.315-.767.223-.348.362-.744.406-1.156.08-.412.22-.81.415-1.181.209-.344.462-.659.753-.936a2.672 2.672 0 00.794-1.218 1.51 1.51 0 01.23-.653.884.884 0 01.756-.384.63.63 0 01.318.1c.096.06.173.145.225.246l-.65.322.075.026c.013.005-.075-.026-.119.057a1.086 1.086 0 00-.132.378l-.097.276a3.22 3.22 0 01-.902 1.321 3.458 3.458 0 00-.636.765c-.16.314-.277.648-.349.993a3.196 3.196 0 01-.512 1.458 3.51 3.51 0 01-1.622.998c-.5.132-.953.397-1.314.767-.138.225-.25.465-.336.715a3.525 3.525 0 01-.337.757c-.365.52-.848.945-1.41 1.241-.2.127-.401.255-.593.399a1.917 1.917 0 00-.755 1.062c-.083.239.13.837-.137.955a.3.3 0 01-.277-.097l-.018.092z" fill="url(#paint7_radial_1552_6070)"/><path d="M98.51 309.149c-.3-.274-.174-1.077-.11-1.379.169-.726.507-1.4.988-1.969.164-.225.348-.428.52-.636a5.95 5.95 0 001.279-1.951c.079-.248.139-.5.18-.756.068-.441.196-.872.379-1.279.167-.316.374-.608.617-.871.184-.22.351-.454.5-.699a4.13 4.13 0 00.361-1.554c.027-.347.078-.693.152-1.034a2.754 2.754 0 011.147-1.658 1.463 1.463 0 011.162-.171l-.234.666a.856.856 0 00-.617.108 2.053 2.053 0 00-.746 1.32 8.002 8.002 0 00-.145.937 4.802 4.802 0 01-.438 1.809 4.437 4.437 0 01-.582.812c-.201.231-.378.48-.53.746-.14.329-.238.674-.29 1.027a6 6 0 01-.195.836 6.382 6.382 0 01-1.421 2.197c-.172.208-.34.403-.5.616a4.164 4.164 0 00-.846 1.608c-.093.264-.014 1.407-.334 1.394a.403.403 0 01-.298-.119z" fill="url(#paint8_radial_1552_6070)"/><path d="M106.272 308.529a4.23 4.23 0 01.386-1.743 13.07 13.07 0 01.719-1.766l.035-.101c.102-.213.181-.436.234-.666a3.38 3.38 0 00-.164-1.583l-.04-.169a16.864 16.864 0 01-.479-3.063 5.58 5.58 0 01.547-3.126l.199-.325.684.466-.393.596a5.328 5.328 0 00-.282 2.372c.029.995.155 1.985.375 2.956l.052.173c.215.625.267 1.295.151 1.945a4.421 4.421 0 01-.283.805l-.035.1a13.652 13.652 0 00-.847 2.413c-.08.227-.579 1.647-.848.846a.065.065 0 00.037-.026.062.062 0 00.012-.044.065.065 0 00-.06-.06z" fill="url(#paint9_radial_1552_6070)"/><path d="M91.445 303.632a.409.409 0 01-.119-.183c.01-.231.09-.454.225-.641a1.778 1.778 0 011.334-.661l.536.004a1.87 1.87 0 001.069-.147c.29-.247.496-.58.588-.951a2.575 2.575 0 012.395-1.912c.682-.17 1.283-.312 1.484-.806.044-.102.08-.207.11-.314a1.48 1.48 0 01.406-.832 1.52 1.52 0 011.05-.295c.11.009.22.005.329-.011.668-.091 1.171-.761 1.589-2.111l.679.239c-.357 1.018-.86 2.451-2.187 2.606a3.417 3.417 0 01-.417.023.958.958 0 00-.576.108.989.989 0 00-.163.466 2.589 2.589 0 01-.15.427c-.296.842-1.183.996-1.971 1.228a2.8 2.8 0 00-1.457.646c-.2.246-.349.53-.434.836a2.477 2.477 0 01-.864 1.292 2.67 2.67 0 01-1.5.25l-.477-.012a1.132 1.132 0 00-.691.279c-.137.15-.124.352-.257.489a.414.414 0 01-.53-.017z" fill="url(#paint10_radial_1552_6070)"/><path d="M87.286 298.177a.49.49 0 01-.45-.045.184.184 0 01-.1-.036l.035-.1c.393-1.119 2.35-1.138 3.246-.837l.34.119c.241.126.51.191.781.19.284-.096.534-.274.717-.511.182-.186.38-.358.59-.513a3.404 3.404 0 012.112-.303l3.255.268a1.521 1.521 0 001.885-.821c.25-.447.632-.806 1.095-1.027l.255.682a1.717 1.717 0 00-.749.726 2.98 2.98 0 01-.883.904 2.837 2.837 0 01-1.656.209l-3.237-.276a2.67 2.67 0 00-1.665.193c-.17.121-.328.26-.47.413a2.035 2.035 0 01-1.111.711 2.062 2.062 0 01-1.173-.242 2.976 2.976 0 00-1.937-.116c-.263.064-.574.307-.88.412z" fill="url(#paint11_radial_1552_6070)"/><path d="M110.998 310.443c-.229-.236-.177-.543-.202-.876a8.498 8.498 0 01-.122-1.342 3.002 3.002 0 01.899-2.197l.128-.125a1.09 1.09 0 00.245-.253c.07-.201.096-.474-.083-.89a7.553 7.553 0 00-1.634-2.508l-.378-.373a7.186 7.186 0 01-.871-.941 2.515 2.515 0 01-.505-1.942 4.93 4.93 0 01.208-.591c.061-.134.11-.272.146-.415a1.255 1.255 0 00-.611-1.4l.352-.639a2.014 2.014 0 01.955 2.227 3.884 3.884 0 01-.185.528 3.042 3.042 0 00-.159.453 1.698 1.698 0 00.383 1.363c.235.307.501.589.792.843l.386.389a8.59 8.59 0 011.795 2.735 1.67 1.67 0 01.027 1.534c-.108.161-.24.305-.391.427l-.119.1a2.422 2.422 0 00-.668 1.699 9.58 9.58 0 01.059 2.167.22.22 0 01-.062.176.222.222 0 01-.226-.079l-.159-.07z" fill="url(#paint12_radial_1552_6070)"/><path d="M129.635 204.019s8.531-17.011 26.212-38.434c17.682-21.422 61.253-68.246 68.19-75.566 6.937-7.32 16.737-16.84 16.217-14.877-.52 1.963-5.129 12.755-12.456 23.963s-26.062 31.243-38.315 48.755c-12.253 17.511-46.847 55.387-53.211 63.572-6.365 8.185-9.304-2.758-6.637-7.413z" fill="url(#paint13_linear_1552_6070)"/><path d="M125.67 230.033s6.556-16.053 7.372-18.378c.817-2.326 5.615-16.793 6.273-21.885.657-5.092 9.731-18.016 11.759-19.323 2.027-1.307-3.718 7.166-5.108 9.798a81.41 81.41 0 00-5.517 13.778c-1.33 4.954-3.236 12.192-5.037 17.08-1.801 4.888-7.559 19.513-8.213 20.653-.655 1.139-1.739.646-1.529-1.723z" fill="url(#paint14_linear_1552_6070)"/><path d="M130.915 211.557s21.553-30.836 26.947-38.232c5.395-7.396 61.666-59.926 71.598-68.411 9.931-8.486 5.292-2.477-1.81 5.153-7.102 7.63-29.996 25.386-42.117 39.103-12.122 13.717-28.896 36.94-31.532 41.79-2.635 4.849-19.062 31.95-23.595 34.679-4.532 2.729-1.971-10.52.509-14.082z" fill="url(#paint15_linear_1552_6070)"/><path d="M132.502 219.992s5.439-47.677 4.704-68.154c-.736-20.477-.654-63.681-7.342-81.293-6.687-17.61-12.626-49.304-25.982-63.737s-2.579-2.19-.126 2.893c2.454 5.083 13.392 24.752 14.564 39 1.171 14.248 7.778 43.917 9.075 51.729 1.298 7.812 2.125 50.037 2.084 55.91-.042 5.873-2.637 35.671-2.421 43.103.216 7.432-2.708 28.233-3.822 32.812-1.113 4.579-6.469 16.493-8.725 21.871a83.54 83.54 0 01-3.999 8.409l6.623.052s4.124-14.521 4.888-16.173c.763-1.652 9.827-22.189 10.479-26.422z" fill="url(#paint16_linear_1552_6070)"/><path d="M127.435 221.347s19.338-21.151 23.857-26.172c4.518-5.021 27.311-26.272 44.563-22.289 17.252 3.983 16.245 3.954 18.137 5.084 1.892 1.131-9.907-1.643-14.215-1.688-4.308-.044-12.632.083-24.28 7.302-11.649 7.219-18.256 14.768-23.327 18.465-5.071 3.698-17.528 15.956-19.408 20.463-1.122 2.713-4.546 8.923-5.171 11.104-.624 2.181-1.524-9.219-.156-12.269z" fill="url(#paint17_linear_1552_6070)"/><path d="M126.691 213.969s5.113-29.126 16.852-47.989c11.739-18.864 41.134-54.528 48.322-60.433 7.189-5.905 21.089-21.468 21.987-20.645.897.824-1.411 2.569-6.317 7.327-4.907 4.757-13.661 18.019-17.612 23.959-3.951 5.941-19.203 24.588-25.345 32.823-6.141 8.235-17.885 25.219-20.139 29.708-2.255 4.489-9.92 21.931-11.279 28.739-1.36 6.809-5.924 13.931-6.469 6.511z" fill="url(#paint18_linear_1552_6070)"/><path d="M132.753 211.03s24.205-30.3 37.467-41.188c13.261-10.889 42.412-38.294 46.662-41.263 4.25-2.969 26.251-21.321 26.128-19.925-.123 1.397-8.061 9.115-15.123 17.154-7.062 8.039-17.213 20.33-24.605 26.29-7.392 5.961-28.914 23.111-34.95 27.543-6.035 4.432-25.359 23.329-33.283 34.426-7.923 11.097-2.296-3.037-2.296-3.037z" fill="url(#paint19_linear_1552_6070)"/><path d="M128.166 216.648s8.626-19.011 9.591-27.313c.966-8.302 4.325-42.533 6.885-51.391 2.559-8.857 8.334-35.28 29.988-41.54 21.655-6.261 40.862-25.185 47.171-28.83 6.31-3.643 23.863-13.151 24.727-12.636.865.515-6.912 6.567-11.126 12.612-4.214 6.046-21.529 15.44-26.581 18.48a61.808 61.808 0 01-14.336 6.262c-4.198 1.25-11.599 3.255-15.632 5.806-4.032 2.552-16.236 23.582-20.867 40.353-4.632 16.771-5.059 30.5-8.214 38.88-3.155 8.38-14.704 32.337-17.057 39.037l-.737 2.099c-1.758 5.369-3.261 10.814-5.04 16.161-1.704 5.135-3.969 10.015-5.819 15.084a60.724 60.724 0 01-2.892 6.142c-.071.202-.289.421-.477.313l.367-2.455a14.659 14.659 0 01-2.121 4.352c-.209-.172-.148-.504-.085-.764l1.16-4.633c-.465.077-.675.596-.938.984a2.673 2.673 0 01-.976.886 33.848 33.848 0 012.295-7.539c2.606-6.78 5.025-13.626 7.317-20.516a100.154 100.154 0 013.397-9.834z" fill="url(#paint20_linear_1552_6070)"/><path d="M106.64 268.813c-2.109 1.984-4.557 3.483-6.811 5.275-4.884 3.848-8.825 9.679-8.231 15.874.027.804.27 1.587.702 2.266a8.287 8.287 0 002.514 1.814c3.347 2.136 5.458 6.788 9.425 6.798 1.808-.001 3.478-1.052 5.287-1.137 1.047.051 2.089.158 3.124.32 4.06.268 7.727-2.934 9.07-6.797 1.342-3.863.747-8.082-.414-11.977-1.162-3.895-2.844-7.635-3.76-11.585a19.43 19.43 0 01.903-11.826c-5.11-4.279-8.889 8.174-11.809 10.975z" fill="url(#paint21_radial_1552_6070)"/><path style="mix-blend-mode:multiply" opacity=".76" d="M122.113 291.825l.124-.352c.123-.352.133-.744.177-1.109l.08-.227a22.263 22.263 0 00-.844-7.977c-.361-1.186-1.032-2.777-1.775-1.061-.617 1.435-.029 3.703.095 5.201.233 1.896.1 3.819-.393 5.665a7.643 7.643 0 01-3.313 4.485 2.792 2.792 0 01-3.304-.045 3.269 3.269 0 01-.499-2.604c.303-2.915 1.195-5.736 1.687-8.627a14.428 14.428 0 00-.669-8.636 35.724 35.724 0 01-3.203 13.587 11.092 11.092 0 01-3.343 4.572 4.709 4.709 0 01-5.347.297 4.933 4.933 0 01-1.77-4.857 17.443 17.443 0 012.068-4.922 60.21 60.21 0 004.34-10.548c-1.92 1.684-2.962 4.128-4.148 6.38a41.969 41.969 0 01-4.226 6.522 1.108 1.108 0 01-.568.45 3.35 3.35 0 01-1.762-1.099 4.476 4.476 0 01.313-4.31 25.926 25.926 0 012.583-4.74 74.075 74.075 0 015.658-6.697l-.126-.044c-1.378 1.027-2.806 1.994-4.16 3.072-4.883 3.848-8.824 9.679-8.23 15.874.027.804.27 1.587.702 2.266a8.285 8.285 0 002.514 1.814c3.347 2.136 5.458 6.788 9.425 6.797 1.809 0 3.478-1.051 5.288-1.136 1.046.051 2.088.157 3.123.32a9.137 9.137 0 008.089-4.727c.399-.654.727-1.348.981-2.07.175-.495.319-1.001.433-1.514z" fill="url(#paint22_radial_1552_6070)"/><path d="M230.251 119.438a620.946 620.946 0 01-65.797 58.856 44.4 44.4 0 00-9.293 8.639c4.058-5.521 9.966-9.348 15.56-13.328 10.688-7.542 20.689-16.145 30.663-24.672 1.744-1.505 3.5-3.006 5.207-4.567a208.017 208.017 0 0016.949-18.249l6.711-6.679zm-31.44 55.05a29.476 29.476 0 00-17.227 2.422 73.977 73.977 0 00-14.921 9.416 189.015 189.015 0 00-31.246 29.31 20.802 20.802 0 00-2.891 4.209 196.918 196.918 0 0118.295-19.428c3.522-3.267 7.329-5.982 10.978-9.092 3.65-3.109 7.602-6.197 11.643-9.014 4.963-3.51 10.477-7.221 16.68-7.866l8.689.043z" fill="#589C00"/><path d="M228.029 89.19a3270.196 3270.196 0 01-20.004 24.335c-2.841 3.463-5.695 6.923-8.711 10.241-4.77 5.215-9.939 10.036-14.909 15.054-5.745 5.818-11.241 11.894-16.691 18-7.15 7.966-14.445 16.106-18.352 26.227a123.427 123.427 0 019.083-14.078c1.407-1.793 2.922-3.492 4.462-5.182 7.19-7.881 14.38-15.762 21.811-23.403 7.431-7.641 15.045-15.444 21.972-23.7a220.08 220.08 0 0017.542-22.996l3.797-4.498zm-32.639 16.015a1960.935 1960.935 0 00-36.322 44.046 33.295 33.295 0 00-4.342 6.41l30.855-38.497 9.809-11.959z" fill="#3F8600"/><path d="M242.381 57.817l-41.852 29.214a45.453 45.453 0 01-8.311 4.96c7.003-2.44 13.06-6.935 18.999-11.373 7.431-5.551 14.857-11.1 22.277-16.645l8.887-6.156zm-79.816 53.552a87.182 87.182 0 00-8.264 16.413c-1.465 3.608-2.859 7.256-3.984 10.983-3.873 12.759-4.533 26.266-7.096 39.358a137.121 137.121 0 01-9.193 29.076 120.427 120.427 0 007.781-17.33 111.57 111.57 0 003.736-16.916c2.182-13.255 4.05-26.619 8.054-39.431a98.162 98.162 0 018.122-19.428c3.659-6.396 8.552-10.792 13.617-16.002-5.093 3.196-9.419 8.355-12.773 13.277zm-55.862-98.953s11.319 20.071 12.489 31.99c1.17 11.917 8.096 37.943 9.901 45.636 1.806 7.694 3.361 46.277 3.339 58.892-.021 12.615-2.748 50.034-2.748 50.034s2.636-25.774 2.714-29.093c.077-3.319 1.473-29.02.08-46.339-.968-11.89-.688-21.054-2.485-32.232-.539-3.295-3.867-16.028-4.617-18.72a202.1 202.1 0 01-5.77-29.276c-.347-3.115-6.685-21.804-12.903-30.892z" fill="#589C00"/><path style="mix-blend-mode:screen" opacity=".32" d="M98.55 285.09c1.663-1.675 2.187-3.934 2.962-6.02.775-2.085 4.046-7.94 2.831-6.813a6.171 6.171 0 00-2.392 3.07 17.876 17.876 0 01-2.383 3.484 18.377 18.377 0 00-2.51 3.128c-.76 1.315-.706 5.387 1.492 3.151z" fill="url(#paint23_radial_1552_6070)"/><path style="mix-blend-mode:screen" opacity=".32" d="M102.774 288.677a6.853 6.853 0 00-.848 2.413c-.058.424.002.855.173 1.247.172.392.449.728.8.973.511.278 1.11.346 1.67.191a5.466 5.466 0 002.858-2.061c3.238-4.03 3.827-9.612 3.153-14.734a1.084 1.084 0 00-.148-.504c-1.159-1.607-3.571 4.295-3.819 4.801l-3.839 7.674z" fill="url(#paint24_radial_1552_6070)"/><path style="mix-blend-mode:screen" opacity=".32" d="M114.298 293.118c-.064.543-.103 1.178.313 1.522a1.145 1.145 0 001.285.042c.394-.279.71-.654.919-1.089a14.484 14.484 0 001.941-7.296 22.619 22.619 0 00-.826-5.938c-.119-.465-.321-2.061-.906-2.125-.585-.065-.91 1.304-.984 1.716-.819 4.301-1.159 8.812-1.742 13.168z" fill="url(#paint25_radial_1552_6070)"/><defs><radialGradient id="paint1_radial_1552_6070" cx="0" cy="0" r="1" gradientUnits="userSpaceOnUse" gradientTransform="matrix(6.94316 2.43826 -2.43652 6.9382 93.437 296.164)"><stop stop-color="#DBCCBA"/><stop offset=".6" stop-color="#C8AE92"/><stop offset="1" stop-color="#D5BEA9"/></radialGradient><radialGradient id="paint2_radial_1552_6070" cx="0" cy="0" r="1" gradientUnits="userSpaceOnUse" gradientTransform="matrix(7.157 2.51329 -2.5115 7.1519 93.352 300.9)"><stop stop-color="#DBCCBA"/><stop offset=".6" stop-color="#C8AE92"/><stop offset="1" stop-color="#D5BEA9"/></radialGradient><radialGradient id="paint3_radial_1552_6070" cx="0" cy="0" r="1" gradientUnits="userSpaceOnUse" gradientTransform="matrix(5.7105 2.00533 -2.0039 5.70645 100.935 304.254)"><stop stop-color="#DBCCBA"/><stop offset=".6" stop-color="#C8AE92"/><stop offset="1" stop-color="#D5BEA9"/></radialGradient><radialGradient id="paint4_radial_1552_6070" cx="0" cy="0" r="1" gradientUnits="userSpaceOnUse" gradientTransform="matrix(5.2451 1.84195 -1.84063 5.24136 107.487 305.08)"><stop stop-color="#DBCCBA"/><stop offset=".6" stop-color="#C8AE92"/><stop offset="1" stop-color="#D5BEA9"/></radialGradient><radialGradient id="paint5_radial_1552_6070" cx="0" cy="0" r="1" gradientUnits="userSpaceOnUse" gradientTransform="rotate(19.35 -837.264 481.698) scale(6.97223 6.96726)"><stop stop-color="#DBCCBA"/><stop offset=".6" stop-color="#C8AE92"/><stop offset="1" stop-color="#D5BEA9"/></radialGradient><radialGradient id="paint6_radial_1552_6070" cx="0" cy="0" r="1" gradientUnits="userSpaceOnUse" gradientTransform="rotate(19.35 -831.107 426.94) scale(6.22567 6.22124)"><stop stop-color="#DBCCBA"/><stop offset=".6" stop-color="#C8AE92"/><stop offset="1" stop-color="#D5BEA9"/></radialGradient><radialGradient id="paint7_radial_1552_6070" cx="0" cy="0" r="1" gradientUnits="userSpaceOnUse" gradientTransform="matrix(5.48408 1.92587 -1.9245 5.48017 97.635 302.92)"><stop stop-color="#DBCCBA"/><stop offset=".6" stop-color="#C8AE92"/><stop offset="1" stop-color="#D5BEA9"/></radialGradient><radialGradient id="paint8_radial_1552_6070" cx="0" cy="0" r="1" gradientUnits="userSpaceOnUse" gradientTransform="matrix(5.25768 1.84631 -1.845 5.25394 101.862 302.137)"><stop stop-color="#DBCCBA"/><stop offset=".6" stop-color="#C8AE92"/><stop offset="1" stop-color="#D5BEA9"/></radialGradient><radialGradient id="paint9_radial_1552_6070" cx="0" cy="0" r="1" gradientUnits="userSpaceOnUse" gradientTransform="matrix(4.35203 1.52833 -1.52724 4.34895 107.233 302.463)"><stop stop-color="#DBCCBA"/><stop offset=".6" stop-color="#C8AE92"/><stop offset="1" stop-color="#D5BEA9"/></radialGradient><radialGradient id="paint10_radial_1552_6070" cx="0" cy="0" r="1" gradientUnits="userSpaceOnUse" gradientTransform="matrix(4.89292 1.71822 -1.717 4.88944 97.172 299.275)"><stop stop-color="#DBCCBA"/><stop offset=".6" stop-color="#C8AE92"/><stop offset="1" stop-color="#D5BEA9"/></radialGradient><radialGradient id="paint11_radial_1552_6070" cx="0" cy="0" r="1" gradientUnits="userSpaceOnUse" gradientTransform="rotate(19.35 -822.364 423.764) scale(5.26582 5.26208)"><stop stop-color="#DBCCBA"/><stop offset=".6" stop-color="#C8AE92"/><stop offset="1" stop-color="#D5BEA9"/></radialGradient><radialGradient id="paint12_radial_1552_6070" cx="0" cy="0" r="1" gradientUnits="userSpaceOnUse" gradientTransform="rotate(19.35 -834.55 474.031) scale(5.30582 5.30204)"><stop stop-color="#DBCCBA"/><stop offset=".6" stop-color="#C8AE92"/><stop offset="1" stop-color="#D5BEA9"/></radialGradient><radialGradient id="paint21_radial_1552_6070" cx="0" cy="0" r="1" gradientUnits="userSpaceOnUse" gradientTransform="matrix(33.10587 11.62563 -11.61735 33.08228 116.894 257.236)"><stop stop-color="#FEF6DF"/><stop offset="1" stop-color="#E4D0C2"/></radialGradient><radialGradient id="paint22_radial_1552_6070" cx="0" cy="0" r="1" gradientUnits="userSpaceOnUse" gradientTransform="matrix(22.3263 7.84022 -7.83465 22.31045 111.139 273.626)"><stop stop-color="#FEF6DF"/><stop offset=".5" stop-color="#DDC4B3"/></radialGradient><radialGradient id="paint23_radial_1552_6070" cx="0" cy="0" r="1" gradientUnits="userSpaceOnUse" gradientTransform="matrix(5.28284 1.85515 -1.85383 5.27908 100.258 278.658)"><stop stop-color="#FEF6DF"/><stop offset="1" stop-color="#E4D0C2"/></radialGradient><radialGradient id="paint24_radial_1552_6070" cx="0" cy="0" r="1" gradientUnits="userSpaceOnUse" gradientTransform="matrix(6.61613 2.32342 -2.32176 6.6114 107.26 284.923)"><stop stop-color="#FEF6DF"/><stop offset="1" stop-color="#E4D0C2"/></radialGradient><radialGradient id="paint25_radial_1552_6070" cx="0" cy="0" r="1" gradientUnits="userSpaceOnUse" gradientTransform="matrix(5.77339 2.02741 -2.02597 5.76928 116.523 286.741)"><stop stop-color="#FEF6DF"/><stop offset="1" stop-color="#E4D0C2"/></radialGradient><linearGradient id="paint0_linear_1552_6070" x1="162.088" y1="55.995" x2="133.305" y2="161.125" gradientUnits="userSpaceOnUse"><stop stop-color="#6B9A33"/><stop offset="1" stop-color="#237507"/></linearGradient><linearGradient id="paint13_linear_1552_6070" x1="150.978" y1="183.275" x2="232.768" y2="85.509" gradientUnits="userSpaceOnUse"><stop stop-color="#105608"/><stop offset="1" stop-color="#6B9A33"/></linearGradient><linearGradient id="paint14_linear_1552_6070" x1="135.539" y1="200.12" x2="140.532" y2="201.874" gradientUnits="userSpaceOnUse"><stop stop-color="#6B9A33"/><stop offset="1" stop-color="#237507"/></linearGradient><linearGradient id="paint15_linear_1552_6070" x1="144.996" y1="198.698" x2="230.888" y2="97.047" gradientUnits="userSpaceOnUse"><stop stop-color="#2C7A0C"/><stop offset=".32" stop-color="#6B9A33"/><stop offset="1" stop-color="#237507"/></linearGradient><linearGradient id="paint16_linear_1552_6070" x1="94.06" y1="243.88" x2="99.284" y2="210.443" gradientUnits="userSpaceOnUse"><stop stop-color="#FFF0DA"/><stop offset=".32" stop-color="#6B9A33"/><stop offset="1" stop-color="#237507"/></linearGradient><linearGradient id="paint17_linear_1552_6070" x1="137.044" y1="193.942" x2="200.778" y2="216.323" gradientUnits="userSpaceOnUse"><stop stop-color="#6B9A33"/><stop offset="1" stop-color="#237507"/></linearGradient><linearGradient id="paint18_linear_1552_6070" x1="211.677" y1="110.005" x2="151.383" y2="170.138" gradientUnits="userSpaceOnUse"><stop stop-color="#6B9A33"/><stop offset="1" stop-color="#005B00"/></linearGradient><linearGradient id="paint19_linear_1552_6070" x1="233.714" y1="130.579" x2="144.605" y2="193.394" gradientUnits="userSpaceOnUse"><stop stop-color="#6B9A33"/><stop offset="1" stop-color="#237507"/></linearGradient><linearGradient id="paint20_linear_1552_6070" x1="144.91" y1="261.949" x2="191.612" y2="109.313" gradientUnits="userSpaceOnUse"><stop stop-color="#F6E0C5"/><stop offset=".11" stop-color="#93423E"/><stop offset=".34" stop-color="#6B9A33"/><stop offset="1" stop-color="#237507"/></linearGradient></defs></svg>