<svg width="247" height="272" fill="none" xmlns="http://www.w3.org/2000/svg"><path d="M107.3 176.402a9.942 9.942 0 01-1.943-5.203c.101-2.444.422-10.688.475-12.54.054-1.852.193-28.953.14-30.762-.053-1.809.206-19.543.086-22.205-.12-2.662.258-7.369-1.357-10.257-1.615-2.89-2.227-3.477-2.305-5.745-.079-2.268-.164-1.411-1.368-3.734-1.205-2.322-.448-4.47.443-4.69.891-.223 2.361-.797.664-2.39-1.698-1.592-3.949-5.308-2.413-6.99.889-.95 2.076-.865 2.845-2.05a3.763 3.763 0 00.445-3.291c-.816-2.283-3.778-3.471-4.139-5.876a5.098 5.098 0 011.078-3.467 4.797 4.797 0 012.818-2.275 7.908 7.908 0 001.331-.225c1.896-.744 2.132-3.854 1.476-5.44-.656-1.586 1.475-4.535 4.384-5.212 2.909-.676 3.146-.522 3.768-2.4a10.019 10.019 0 013.199-4.006c1.196-1.08 2.64-2.332 4.411-1.996a4 4 0 012.878 3.73 26.262 26.262 0 01-.519 4.948 6.04 6.04 0 001.023 4.362 9.67 9.67 0 011.405 3.976c.645 2.982 1.96 7.498-.044 10.094-1.745 2.318-4.577 3.918-5.235 6.842a2.57 2.57 0 00.108 1.7 4.505 4.505 0 001.891 1.53 4.572 4.572 0 012.462 3.863 4.799 4.799 0 01-2.062 3.337c-1.052.826-2.27 1.435-3.303 2.294a15.972 15.972 0 00-3.486 4.059 1.026 1.026 0 00-.142.582c.056.22.168.422.324.587a4 4 0 01.116 4.142 9.322 9.322 0 01-2.913 3.115 23.728 23.728 0 00-3.401 2.695 7.798 7.798 0 00-1.562 4.666c-.238 6.787-.13 13.581.323 20.357.318 4.328.815 16.255 1.054 22.428.238 6.174.253 17.887.555 20.25a49.356 49.356 0 01-.799 10.994c-.47.749-1.791 2.059-2.711.203z" fill="url(#paint0_linear_1552_6068)"/><path d="M107.296 103.197c-.272-11.557 3.176-22.838 4.492-34.322.601-5.339.761-10.784 1.997-15.968 1.235-5.183 3.77-10.407 8.145-13.55-2.852 3.706-5.758 7.523-7.117 11.977a42.37 42.37 0 00-1.312 8.428 335.393 335.393 0 01-5.907 39.23l-.298 4.205z" fill="#720539"/><path d="M113.359 56.232a104.23 104.23 0 0110.017-7.322c-3.559 1.258-6.392 3.708-9.738 5.278-.78-1.081-.496-2.3-.63-3.554-.134-1.253-1.251-3.143-1.031-4.104a11.266 11.266 0 00.358 5.572c.109.397 1.372 3.83 1.024 4.13z" fill="#720539"/><path d="M112.43 66.92l10.202-10.28c-2.211 2.203-5.299 3.782-7.61 6.002-2.703 2.591-3.675 1.175-5.017-1.935l-2.672-5.93a18.65 18.65 0 002.25 6.65c.275.56 2.937 5.405 2.847 5.492zm-4.504 6.882a14.262 14.262 0 002.536 4.238 61.91 61.91 0 009.363-9.374 48.846 48.846 0 00-8.821 7.71c-1.245-2.21-2.623-4.327-3.997-6.459a46.382 46.382 0 00-2.608-3.94c1.138 2.65 2.364 5.225 3.527 7.825zm-.638 13.94c.191.992.6 1.93 1.197 2.746a53.83 53.83 0 008.574-9.566 79.926 79.926 0 00-8.135 7.314c-1.59-3.5-2.478-7.569-4.403-10.876.665 3.466 1.886 6.959 2.767 10.382z" fill="#720539"/><path d="M103.537 73.57a43.682 43.682 0 015.478 2.294l-.708-2.051a6.47 6.47 0 01-4.818-.612l.048.368z" fill="#720539"/><path d="M116.216 49.687a13.444 13.444 0 004.926-1.747 3.77 3.77 0 001.499-1.363c1.202-2.175-.133-4.75-2.375-2.868-.952.755-3.449 5.878-4.05 5.978zm-.768-8.112a22.442 22.442 0 00-1.942 4.367c-.151.621-.35 1.437.189 1.76.538.323 1.31-.311 1.61-.979.682-1.561.667-3.526 1.924-4.686.62-.576 3.441-2.014 1.73-3.048-1.262-.732-3.031 1.798-3.511 2.586zm5.282 10.762a18.097 18.097 0 00-3.925 2.76 6.044 6.044 0 00-1.907 4.279c-.017.257.063.512.225.713.406.414 1.102.035 1.465-.384a21.821 21.821 0 011.659-1.515 29.115 29.115 0 012.835-1.613 5.021 5.021 0 002.25-2.194c1.171-2.608-.798-3.088-2.602-2.046zm-9.545 7.697c-1.024-.249-1.483-1.403-1.771-2.42l-1.587-5.651c-.731-2.632 1.633-6.705 2.86-2.84a21.226 21.226 0 01.498 10.911zm2.952 7.986c-.367.665-.607 1.703.084 2.022.305.106.639.09.931-.047 1.383-.554 2.222-1.968 3.383-2.905 1.162-.938 9.214-5.434 4.445-6.98-3.191-1.038-7.58 5.654-8.843 7.91zm-11.93-8.814a1.803 1.803 0 00-.237.97c.129.439.388.827.744 1.114 2.068 1.875 4.421 3.82 5.104 6.59.183.717.376 1.614 1.085 1.8a3.154 3.154 0 00.993-2.5 9.353 9.353 0 00-.705-2.735l-1.62-4.618c-.946-2.877-3.874-3.81-5.364-.621zM113.9 77.219a15.946 15.946 0 00-1.652 5.26c1.5-.526 2.418-2.043 3.804-2.83 1.595-.914 3.936-.838 4.925-2.42a2.856 2.856 0 00-.124-2.686 2.862 2.862 0 00-2.297-1.4c-1.926.079-3.841 2.588-4.656 4.076zm-4.621 17.22a7.251 7.251 0 005.139-3.013c1.112-1.58.744-3.507-1.398-2.712-1.887.705-3.574 3.86-3.741 5.725zm-.963-17.334a9.086 9.086 0 00-4.351-1.965c-.752-.183-1.695-.084-2.115.568L105.295 77a3.639 3.639 0 011.834 1.146c.689 1.004.209 2.409.588 3.557.105.3.327.628.65.597.323-.03.463-.38.539-.691a7.442 7.442 0 00-.243-4.296l-.347-.208zm-4.509 11.407c.652 1.886.724 4.07 2.043 5.584a3.308 3.308 0 00.849-2.754 16.929 16.929 0 00-.768-2.93 16.278 16.278 0 01-.654-3.793c-.06-1.385-1.08-2.662-2.275-1.308-1.194 1.354.361 3.927.805 5.2z" fill="#4BAF47"/><path d="M106.912 104.776s-.848 56.421-.385 63.198c0 0 1.019-40.626.908-44.451-.111-3.825-.523-18.747-.523-18.747zm.832-.374l.113 59.576.538-32.228c.044-2.882-.651-27.348-.651-27.348z" fill="#842238"/><path style="mix-blend-mode:multiply" opacity=".43" d="M107.3 176.402a9.942 9.942 0 01-1.943-5.203c.101-2.444.422-10.688.475-12.54.054-1.852.193-28.953.14-30.762-.053-1.809.206-19.543.086-22.205-.12-2.662.258-7.369-1.357-10.257-1.615-2.89-2.227-3.477-2.305-5.745-.079-2.268-.164-1.411-1.368-3.734-1.205-2.322-.448-4.47.443-4.69.891-.223 2.361-.797.664-2.39-1.698-1.592-3.949-5.308-2.413-6.99.889-.95 2.076-.865 2.845-2.05a3.763 3.763 0 00.445-3.291c-.816-2.283-3.778-3.471-4.139-5.876a5.098 5.098 0 011.078-3.467 4.797 4.797 0 012.818-2.275 7.908 7.908 0 001.331-.225c1.896-.744 2.132-3.854 1.476-5.44-.656-1.586 1.475-4.535 4.384-5.212 2.909-.676 3.146-.522 3.768-2.4a10.019 10.019 0 013.199-4.006c1.196-1.08 2.64-2.332 4.411-1.996a4 4 0 012.878 3.73 26.262 26.262 0 01-.519 4.948 6.04 6.04 0 001.023 4.362 9.67 9.67 0 011.405 3.976c.645 2.982 1.96 7.498-.044 10.094-1.745 2.318-4.577 3.918-5.235 6.842a2.57 2.57 0 00.108 1.7 4.505 4.505 0 001.891 1.53 4.572 4.572 0 012.462 3.863 4.799 4.799 0 01-2.062 3.337c-1.052.826-2.27 1.435-3.303 2.294a15.972 15.972 0 00-3.486 4.059 1.026 1.026 0 00-.142.582c.056.22.168.422.324.587a4 4 0 01.116 4.142 9.322 9.322 0 01-2.913 3.115 23.728 23.728 0 00-3.401 2.695 7.798 7.798 0 00-1.562 4.666c-.238 6.787-.13 13.581.323 20.357.318 4.328.815 16.255 1.054 22.428.238 6.174.253 17.887.555 20.25a49.356 49.356 0 01-.799 10.994c-.47.749-1.791 2.059-2.711.203z" fill="url(#paint1_linear_1552_6068)"/><path d="M108.883 172.044a52.085 52.085 0 008.236-2.6c1.955-1.101 13.767-9.933 19.281-16.405 5.515-6.472 8.291-8.743 9.8-10.995 1.509-2.251 4.285-5.592 4.985-8.465.7-2.874.719-8.244 2.482-10.187 1.763-1.942 6.23-5.749 8.572-5.507 2.343.241 5.335-.552 8.276-1.302 2.941-.751 5.115-2.127 5.689-1.274.574.852 1.206 1.075-.562 3.77a42.327 42.327 0 01-4.791 6.429 47.268 47.268 0 00-5.197 6.07c-1.335 2.047-1.113 1.922-3.76 2.594-2.647.671-3.24-.501-4.602.812a24.367 24.367 0 00-2.382 2.285c-1.108 1.28-1.382.774-2.729 2.078-1.347 1.303-9.22 9.683-10.497 11.154-1.278 1.471-7.859 8.547-9.358 10.252-1.5 1.705-8.942 8.147-10.174 9.094a56.22 56.22 0 01-8.342 4.673 12.96 12.96 0 01-3.593.893c-.607.181-2.184-2.863-1.334-3.369z" fill="url(#paint2_linear_1552_6068)"/><path d="M154.831 134.042a30.938 30.938 0 00-5.478 6.659c1.152-2.078 3.832-4.071 5.523-5.771a468.372 468.372 0 015.607-5.668 367.643 367.643 0 016.904-6.544c1.042-.953 2.123-1.842 3.181-2.749.797-.684 2.353-2.622 3.357-2.857-3.557 1.875-6.707 5.002-9.629 7.704-3.289 2.97-6.357 6.103-9.465 9.226z" fill="#720539"/><path d="M165.336 124.041l6.937-2.341a326.8 326.8 0 01-5.812 1.326c.458-1.259.869-2.722 1.443-4.008-.416.749-1.946 4.777-2.568 5.023zm-1.38 2.79a9.257 9.257 0 00-3.391 1.642 47.858 47.858 0 005.274-1.992l2.435-1.039c-1.44.445-2.882.957-4.318 1.389zm-4.703 4.324a7.136 7.136 0 00-3.524 2.131c2.064-.868 5.539-1.558 7.081-3.156-1.215.23-2.406.573-3.557 1.025z" fill="#720539"/><path d="M170.693 120.3c-.126.09-.233.204-.315.334a.382.382 0 00-.035.233.38.38 0 00.106.21.48.48 0 00.323.079 5.014 5.014 0 004.656-3.227c.575-1.573-1.427-.114-1.839.17a45.365 45.365 0 00-2.896 2.201zm-2.48 3.194a3.335 3.335 0 00-2.227 1.651 5.572 5.572 0 001.655-.09l1.644-.272c.334-.042.662-.123.978-.241a3.328 3.328 0 001.071-.85c.19-.214.459-.587.208-.854-.25-.267-.491-.01-.782.056-.897.193-1.75.314-2.547.6zm-7.027 5.528a.558.558 0 00-.276.399c.021.252.358.334.61.313.784-.2 1.579-.359 2.38-.476.285.069.57.139.88.105a2.664 2.664 0 002.051-.872c.533-.61.315-1.294-.581-1.389a7.441 7.441 0 00-2.56.651 8.888 8.888 0 00-2.504 1.269zm-.673 3.153a7.604 7.604 0 00-1.729.511.564.564 0 00-.36.406.427.427 0 00.252.432c.165.081.346.126.531.129.97.083 1.945.091 2.916.025a3.181 3.181 0 001.179-.275c.699-.392 2.03-2.138.592-2.433-1.071-.22-2.377.915-3.381 1.205z" fill="#4BAF47"/><path style="mix-blend-mode:multiply" opacity=".43" d="M108.883 172.044a52.085 52.085 0 008.236-2.6c1.955-1.101 13.767-9.933 19.281-16.405 5.515-6.472 8.291-8.743 9.8-10.995 1.509-2.251 4.285-5.592 4.985-8.465.7-2.874.719-8.244 2.482-10.187 1.763-1.942 6.23-5.749 8.572-5.507 2.343.241 5.335-.552 8.276-1.302 2.941-.751 5.115-2.127 5.689-1.274.574.852 1.206 1.075-.562 3.77a42.327 42.327 0 01-4.791 6.429 47.268 47.268 0 00-5.197 6.07c-1.335 2.047-1.113 1.922-3.76 2.594-2.647.671-3.24-.501-4.602.812a24.367 24.367 0 00-2.382 2.285c-1.108 1.28-1.382.774-2.729 2.078-1.347 1.303-9.22 9.683-10.497 11.154-1.278 1.471-7.859 8.547-9.358 10.252-1.5 1.705-8.942 8.147-10.174 9.094a56.22 56.22 0 01-8.342 4.673 12.96 12.96 0 01-3.593.893c-.607.181-2.184-2.863-1.334-3.369z" fill="url(#paint3_linear_1552_6068)"/><path d="M145.536 144.432a175.085 175.085 0 01-17.023 17.215c-5.033 4.437-10.455 8.669-16.771 10.997a39.745 39.745 0 0013.873-7.891c1.393-1.21 2.685-2.514 4.009-3.782 3.07-2.913 6.325-5.63 9.567-8.35l6.345-8.189z" fill="#842238"/><path d="M113.03 168.311s17.279-18.716 22.858-23.761c5.578-5.044 20.557-19.837 24.979-23.682 4.422-3.845 10.373-8.785 12.345-12.993a29.136 29.136 0 016.071-9.49c2.536-2.468 3.741-4.71 2.946-8.88-.796-4.17-2.076-5.223-.481-7.659 1.595-2.436 2.855-1.073 4.371-2.226 1.515-1.153-.363-2.625 2.004-3.721 2.366-1.096 6.252-1.727 8.078-.774 1.826.952 4.586 4.942 7.332 4.034a14.23 14.23 0 006.808-5.416c.84-1.701 4.76-4.613 6.389-3.078 1.63 1.535 2.967 2.917 3.918 2.956.951.04 4.054-1.151 4.975-.597.922.553.958 1.138 1.796 1.246.838.108 1.058-1.415 2.305-1.015 1.248.4 1.097 1.13 2.004 1.969.908.838.801 1.388 1.332 3.149.532 1.761 1.463 1.261 2.866 3.33a7.666 7.666 0 01-.737 8.322c-1.876 2.066-4 2.508-4.759 3.653-.76 1.145.875 2.037-.38 4.542s-2.024 4.141-4.917 5.26c-2.894 1.119-3.369 1.044-4.26 2.39-.89 1.347-2.329 3.93-2.987 3.194-.658-.736 1.516-.59-1.497-2.078-3.013-1.489-1.139.339-1.269 1.267a23.332 23.332 0 01-2.778 8.304c-1.887 2.79-2.364 3.003-4.123 3.576-1.758.572-2.227 1.651-3.817.125a26.16 26.16 0 01-3.205-3.742c-1.825-2.309-3.475-3.589-5.882-2.722-2.407.867-2.413-.121-3.545-.15-1.131-.029-.252 1.035-1.918-.18-1.666-1.215-1.58-1.962-3.744-1.529-2.163.433-2.476-.425-4.639.008-2.164.433-7.692 1.554-11.049 4.52-3.358 2.967-17.348 15.505-19.851 17.953-2.504 2.447-14.509 13.426-16.755 16.169-2.246 2.744-19.333 20.218-20.081 20.529-.748.312-2.707-.659-.703-2.803z" fill="url(#paint4_linear_1552_6068)"/><path d="M229.462 80.471l-20.794 10.332c-2.885 1.423-5.773 2.858-8.563 4.455-2.79 1.596-5.624 3.483-8.373 5.309l-23.996 15.928c4.633-3.246 10.003-5.296 14.776-8.329 4.773-3.033 9.193-7.263 14.189-10.255 3.701-2.238 7.791-3.82 11.678-5.697a182.19 182.19 0 0016.4-9.305l4.683-2.438z" fill="#720539"/><path d="M213.872 86.285a41.664 41.664 0 01-2.094 3.754c2.32-.043 4.636.226 6.885.8l7.394 1.527a31.817 31.817 0 00-12.166-3.06c1.504.079 3.404-10.99 2.598-12.297a45.69 45.69 0 01-2.617 9.276z" fill="#720539"/><path d="M198.677 96.39a41.355 41.355 0 0118.618 2.768 24.652 24.652 0 00-16.913-3.065c1.709-.31 2.779-4.533 3.427-5.842 1.504-3.02 3.423-5.885 2.566-9.522-1.144 2.67-1.653 5.548-3.015 8.096-.607 1.14-3.478 7.462-4.683 7.566zm-8.111-1.345c-1.056 3.376-2.211 6.934-4.792 9.363 6.772-.366 13.471 1.307 20.048 2.978a35.033 35.033 0 00-17.777-3.796c1.286-3.306 4.428-9.109 3.805-12.633-.467 1.353-.856 2.725-1.284 4.088z" fill="#720539"/><path d="M177.372 110.396c6.881-1.546 14.028-.189 21.083.255a47.84 47.84 0 00-18.981-1.786 5.69 5.69 0 001.759-3.219 43.634 43.634 0 011.732-5.817 44.594 44.594 0 01-2.491 5.495c-.431.814-2.162 4.876-3.102 5.072zm36.56-24.302l1.214-2.447c-.186.366-3.808-3.464-4.091-3.821a63.827 63.827 0 002.877 6.268zm-12.193 6.066a3.572 3.572 0 001.394-2.006c-1.446-1.216-1.731-3.314-3.106-4.54-.836 1.29 2.224 6.19 1.712 6.545zm3.544 3.811l1.374-.008a.988.988 0 01.467.114c.285.069.381.463.447.753.361 1.39.79 2.784 1.064 4.194-1.002-.559-2.666-5.05-3.352-5.053zm-10.588 8.485c-.21.524.343 1.016.836 1.3a118.337 118.337 0 008.496 4.552 10.143 10.143 0 00-3.881-2.714c-2.224-1.118-2.918-2.946-5.451-3.138zm-7.886-10.038c1.114 1.848 2.261 3.896 1.963 5.962.374-.687.6-1.444.666-2.223a6.542 6.542 0 01-2.577-3.672l-.052-.067z" fill="#720539"/><path d="M219.641 74.884a.973.973 0 00-.488.141c-.208.17-.353.406-.409.668a39.458 39.458 0 00-1.601 7.358.96.96 0 00.052.574c.226.426.859.306 1.343.122a30.307 30.307 0 004.869-3.092 6.922 6.922 0 002.282-2.269c2.038-4.083-3.823-3.851-6.048-3.502zm9.938.941c-.3-.348-.85.053-1.122.44a29.16 29.16 0 00-2.201 3.796 4.372 4.372 0 004.08-.98 2.407 2.407 0 00.87-2.16 1.333 1.333 0 00-1.855-.892l.228-.204zm-3.028 8.037a23.98 23.98 0 01-5.645 3.177 2.266 2.266 0 00-.851.396.654.654 0 00-.205.84c.149.15.34.25.548.285 3.433.836 7.046 1.717 10.462.821a4.629 4.629 0 003.026-2.005c.276-.564.4-1.19.361-1.818-.226-5.1-4.839-3.51-7.696-1.696zm-11.73-10.879a24.074 24.074 0 00-.31 6.903 7.645 7.645 0 01-4.41-2.061 1.188 1.188 0 01-.411-.621 1.21 1.21 0 01.193-.79 9.03 9.03 0 014.901-4.29c.094.517.049 1.05-.13 1.545l.167-.686zm-4.707 15.321c.482-.213.92-.516 1.288-.893a2.88 2.88 0 00.149-3.145 8.541 8.541 0 00-2.279-2.42c-1.341 1.168-2.061 4.352-2.494 6.016-.735 2.905 1.464 1.426 3.336.442zm-13.067 6.949a14.455 14.455 0 01-3.613 2.383c-.313.157-.755.283-.944-.01a.733.733 0 010-.563 11.035 11.035 0 00-.119-3.566c-.508-2.537.625-6.621 4.167-5.84 3.542.78 2.418 5.73.509 7.596zm11.902-1.543a5.844 5.844 0 003.018 1.352 30.271 30.271 0 017.51 2.968 8.197 8.197 0 001.647.785c1.416.44 5.36-.148 5.227-2.25-.101-1.725-3.628-2.735-4.898-3.21a18.544 18.544 0 00-6.478-1.235c-.546-.01-6.309 1.288-6.026 1.59zm4.07 6.27a8.329 8.329 0 00-1.679-.71 1.721 1.721 0 00-1.688.397 1.941 1.941 0 00-.072 2.094 4.357 4.357 0 003.643 2.451c.621.042 1.264-.062 1.879.005 1.252.154 7.085 1.726 5.115-2.017-.949-1.794-5.515-1.412-7.198-2.22zm-12.345-1.65c-1.602.666-2.921 1.853-4.504 2.55-.432.196-.982.597-.753 1.009a.768.768 0 00.474.308 43.292 43.292 0 009.901 2.22c.25.056.512.039.753-.05a1.331 1.331 0 00.558-1.111 4.722 4.722 0 00-1.825-4.274 4.733 4.733 0 00-4.604-.652zm8.233 8.67a6.273 6.273 0 00-2.327 2.628c-.12.257-.293.486-.507.672-.428.293-1.133.258-1.318.734-.184.477.283.865.689 1.114a15.265 15.265 0 003.123 1.433 3.05 3.05 0 002.189.081 3.366 3.366 0 001.36-1.698c1.198-2.437.616-7.035-3.209-4.964zm-6.588 4.798c-.675-.384-1.714-.678-2.085-.001a1.127 1.127 0 00.396 1.303c.364.308.843.48 1.188.756 1.523 1.07 1.641 3.457 3.145 4.55a2.28 2.28 0 003.612-1.253 2.271 2.271 0 00-.134-1.478c-.854-1.73-4.538-2.943-6.122-3.877zm-7.676-5.777a18.878 18.878 0 00-5.737-.219c-.737.095-1.647.394-1.729 1.128l7.215 1.361c.57.138 1.336.147 1.611-.362a.955.955 0 00-.269-1.149 3.002 3.002 0 00-1.125-.562l.034-.197zm-11.547-2.951a1.045 1.045 0 00-.265.58c.032.433.631.565 1.053.462a3.68 3.68 0 002.28-2.036c.514-1.04 1.864-4.44-.349-4.198-1.806.204-1.818 3.972-2.719 5.192z" fill="#4BAF47"/><path style="mix-blend-mode:multiply" opacity=".43" d="M113.03 168.311s17.279-18.716 22.858-23.761c5.578-5.044 20.557-19.837 24.979-23.682 4.422-3.845 10.373-8.785 12.345-12.993a29.136 29.136 0 016.071-9.49c2.536-2.468 3.741-4.71 2.946-8.88-.796-4.17-2.076-5.223-.481-7.659 1.595-2.436 2.855-1.073 4.371-2.226 1.515-1.153-.363-2.625 2.004-3.721 2.366-1.096 6.252-1.727 8.078-.774 1.826.952 4.586 4.942 7.332 4.034a14.23 14.23 0 006.808-5.416c.84-1.701 4.76-4.613 6.389-3.078 1.63 1.535 2.967 2.917 3.918 2.956.951.04 4.054-1.151 4.975-.597.922.553.958 1.138 1.796 1.246.838.108 1.058-1.415 2.305-1.015 1.248.4 1.097 1.13 2.004 1.969.908.838.801 1.388 1.332 3.149.532 1.761 1.463 1.261 2.866 3.33a7.666 7.666 0 01-.737 8.322c-1.876 2.066-4 2.508-4.759 3.653-.76 1.145.875 2.037-.38 4.542s-2.024 4.141-4.917 5.26c-2.894 1.119-3.369 1.044-4.26 2.39-.89 1.347-2.329 3.93-2.987 3.194-.658-.736 1.516-.59-1.497-2.078-3.013-1.489-1.139.339-1.269 1.267a23.332 23.332 0 01-2.778 8.304c-1.887 2.79-2.364 3.003-4.123 3.576-1.758.572-2.227 1.651-3.817.125a26.16 26.16 0 01-3.205-3.742c-1.825-2.309-3.475-3.589-5.882-2.722-2.407.867-2.413-.121-3.545-.15-1.131-.029-.252 1.035-1.918-.18-1.666-1.215-1.58-1.962-3.744-1.529-2.163.433-2.476-.425-4.639.008-2.164.433-7.692 1.554-11.049 4.52-3.358 2.967-17.348 15.505-19.851 17.953-2.504 2.447-14.509 13.426-16.755 16.169-2.246 2.744-19.333 20.218-20.081 20.529-.748.312-2.707-.659-.703-2.803z" fill="url(#paint5_linear_1552_6068)"/><path d="M145.764 135.891c-2.106 1.941-4.111 3.976-6.103 6.013-3.17 3.214-6.334 6.437-9.491 9.672l-16.637 16.925c5.878-4.135 10.317-9.964 15.277-15.172 4.96-5.209 10.592-9.966 15.958-14.815s10.663-9.976 15.996-14.97a30.447 30.447 0 002.869-2.934 7.022 7.022 0 011.577-1.632c-3.359 2.527-6.16 5.575-9.344 8.227-3.335 2.876-6.826 5.659-10.102 8.686z" fill="#842238"/><path d="M82.078 211.501a.781.781 0 01-.441-.217.16.16 0 01-.017-.21.148.148 0 01.194.048c.338.301.912.085 1.08.016l.277-.124c.312-.167.654-.27 1.007-.304.276.026.546.092.803.196l.337.082a2.292 2.292 0 001.577-.109l.438-.223c.254-.171.535-.297.832-.373a1.572 1.572 0 011.399.341.146.146 0 01-.047.194.152.152 0 01-.107.015.148.148 0 01-.088-.062 1.327 1.327 0 00-1.127-.275 2.35 2.35 0 00-.754.337c-.152.089-.31.17-.47.242-.56.24-1.185.282-1.772.117l-.362-.088a1.542 1.542 0 00-1.574.096l-.294.135a1.693 1.693 0 01-.891.166zm1.235 3.208a.146.146 0 01-.098-.106.133.133 0 01.103-.14c.368-.032.726-.13 1.059-.29.176-.106.34-.232.489-.375.215-.206.465-.372.737-.492a2.335 2.335 0 011.035-.077c.268.023.539.011.804-.037a2.789 2.789 0 001.204-.831 2.465 2.465 0 011.589-.888.15.15 0 01.09.04.15.15 0 01.043.088.114.114 0 01-.037.087.114.114 0 01-.04.026.129.129 0 01-.048.008c-.54.019-.938.415-1.369.832a3 3 0 01-1.33.896 3.192 3.192 0 01-.873.034 2.01 2.01 0 00-.92.064 1.94 1.94 0 00-.66.456c-.17.146-.35.281-.538.404a3.485 3.485 0 01-1.146.31l-.094-.009zm-1.35 3.743a.132.132 0 01-.082-.035.132.132 0 01-.042-.078.147.147 0 01.177-.107 6.467 6.467 0 003.352-1.199c.11-.097.212-.2.309-.309.188-.2.397-.379.623-.534.223-.141.462-.253.713-.333.233-.081.457-.188.667-.318a3.44 3.44 0 00.81-.899c.04-.169.21-.305.327-.442.115-.136.889-1.003 1.721-.759a.16.16 0 01.092.186.121.121 0 01-.024.05.12.12 0 01-.042.036.125.125 0 01-.053.016.128.128 0 01-.055-.007c-.531-.129-1.062.249-1.409.658l-.31.431a3.66 3.66 0 01-.897.975c-.228.144-.472.26-.728.344a3.733 3.733 0 00-.652.307c-.206.151-.398.32-.575.504l-.309.309a6.667 6.667 0 01-3.51 1.284l-.103-.08zm3.112.911a.134.134 0 01-.11-.11.16.16 0 01.121-.162 9.152 9.152 0 003.856-1.803 2.744 2.744 0 001.26-1.338c.171-.347.4-.662.679-.932.236-.191.5-.344.783-.453l.203-.102a5.78 5.78 0 002.126-1.744.13.13 0 01.093-.016.124.124 0 01.076.057.132.132 0 01.023.184 6.342 6.342 0 01-2.229 1.829l-.2.088a3.163 3.163 0 00-.731.412 3.23 3.23 0 00-.61.866 4.356 4.356 0 01-.518.778 3.972 3.972 0 01-.834.661 9.824 9.824 0 01-3.946 1.781l-.042.004zm-1.703 2.655a.146.146 0 01-.117-.138.146.146 0 01.122-.162 5.336 5.336 0 003.11-.943l.322-.305c.185-.208.396-.392.627-.547.214-.114.438-.206.67-.275.25-.056.489-.156.704-.295.333-.29.581-.666.717-1.087.151-.424.395-.81.714-1.128.28-.224.596-.398.935-.513l.364-.144a3.596 3.596 0 001.806-1.782.147.147 0 01.285.07 3.89 3.89 0 01-1.847 1.949l-.38.154a3.08 3.08 0 00-.851.451 2.972 2.972 0 00-.637 1.038 2.82 2.82 0 01-.808 1.174 3.08 3.08 0 01-.78.331 2.789 2.789 0 00-.61.249 2.576 2.576 0 00-.572.492c-.11.11-.219.221-.341.328a5.521 5.521 0 01-3.266 1.014l-.167.069zm-1.3 3.083a.146.146 0 01-.115-.151.146.146 0 01.132-.146l1.374-.008a1.89 1.89 0 00.543-.087 1.33 1.33 0 00.402-.3 6.554 6.554 0 012.804-1.483l.116.028c.246-.041.48-.128.694-.256a1.93 1.93 0 00.503-.714c.124-.298.31-.566.548-.785.298-.199.634-.332.987-.39.407-.093.788-.192.97-.491a1.76 1.76 0 00.16-.372.99.99 0 01.422-.665.133.133 0 01.108-.02.135.135 0 01.087.067.15.15 0 01.014.107.15.15 0 01-.062.088.772.772 0 00-.284.492 1.99 1.99 0 01-.192.447c-.25.406-.701.515-1.153.624-.31.044-.607.159-.865.338a1.892 1.892 0 00-.48.678 1.588 1.588 0 01-1.387 1.13l-.104-.026a6.048 6.048 0 00-2.69 1.415 1.56 1.56 0 01-.483.349 1.65 1.65 0 01-.656.101l-1.374.008-.02.022zm-.734 2.729a.723.723 0 01-.233-.057.146.146 0 11.07-.284c.395.178.833-.044 1.288-.276a1.987 1.987 0 011.453-.332l.22.054a.746.746 0 00.376.091.628.628 0 00.27-.263l.124-.175a2.135 2.135 0 011.242-.534c.389-.021.76-.166 1.061-.413.175-.23.296-.496.354-.778.068-.341.225-.658.457-.917a.76.76 0 011.054-.045.146.146 0 01-.048.194.174.174 0 01-.207-.05.49.49 0 00-.643.049 1.69 1.69 0 00-.367.774 2.15 2.15 0 01-.428.911c-.34.297-.768.472-1.219.498a1.87 1.87 0 00-1.067.439.664.664 0 00-.106.153.69.69 0 01-.442.378.696.696 0 01-.575-.091l-.181-.045a1.775 1.775 0 00-1.256.311 2.15 2.15 0 01-1.197.408zm-1.713 2.695a.147.147 0 01-.114-.152.13.13 0 01.008-.056.132.132 0 01.031-.049.138.138 0 01.106-.038l2.846.09a.5.5 0 00.258-.046.404.404 0 00.047-.195c.011-.07.028-.139.05-.207a.854.854 0 01.814-.295l.259.063c.136.055.28.09.427.104.44-.057.735-.424 1.04-.83a2.106 2.106 0 011.203-.941.134.134 0 01.181.044.15.15 0 01-.018.113.153.153 0 01-.04.043.149.149 0 01-.054.023 1.81 1.81 0 00-1.013.836 1.98 1.98 0 01-1.243.931 2.47 2.47 0 01-.543-.022l-.233-.057c-.09-.022-.404-.03-.549.168a.662.662 0 00-.037.155.765.765 0 01-.225.302.657.657 0 01-.42.09l-2.849-.077.068.003zm5.215 7.77a.507.507 0 01-.404-.427c.006-.135.039-.267.095-.389a1.94 1.94 0 00.07-.284 1.254 1.254 0 00-.236-.497 1.17 1.17 0 01-.28-.712c.012-.133.044-.264.095-.388l.094-.389a.185.185 0 01.05-.207.138.138 0 01.056-.021.15.15 0 01.113.027.14.14 0 01.04.045.77.77 0 01-.055.617c-.038.1-.063.205-.076.311a.933.933 0 00.226.535c.15.186.248.408.282.645a1.678 1.678 0 01-.085.349.718.718 0 00-.072.298.24.24 0 00.163.176.15.15 0 01.084-.07.143.143 0 01.156.045.147.147 0 01.013.169.318.318 0 01-.33.167zm-2.96-2.271l-.22-.053a2.884 2.884 0 00-.688.01.553.553 0 00-.288.108.56.56 0 00-.166.234.188.188 0 01-.02.078c-.143.253-.511.3-.864.338-.465.051-.987.28-.997.771a.133.133 0 00.143.145.148.148 0 00.145-.143c.063-.259.382-.442.734-.48.394-.041.875-.102 1.106-.484a.42.42 0 01.025-.104.462.462 0 01.035-.142l.148-.046c.246-.024.493-.019.737.015.05-.087.107-.169.17-.247zm6.58-2.057a.644.644 0 01-.423-.35 1.224 1.224 0 01-.037-.804c.061-.213.069-.437.022-.653a2.1 2.1 0 00-.128-.209l-.124-.223c-.292-.66.212-1.319.63-1.793a.145.145 0 01.2.002.148.148 0 01.01.2c-.561.617-.746 1.093-.575 1.464l.104.19c.063.083.115.174.154.27a1.47 1.47 0 01-.002.795c-.06.212-.057.436.008.646.052.086.134.15.23.18a.23.23 0 00.143.035.133.133 0 01.108-.02.134.134 0 01.086.067c.01.017.018.036.022.055a.148.148 0 01-.072.152.507.507 0 01-.356-.004zm2.6-2.562a.155.155 0 01-.08-.043.15.15 0 01-.04-.083 1.441 1.441 0 00-.493-.737 1.505 1.505 0 01-.569-.933c.005-.306.106-.603.29-.849.144-.189.244-.408.293-.641a.521.521 0 00-.109-.342.317.317 0 00-.194-.047.158.158 0 01-.057-.014.146.146 0 01-.083-.144.161.161 0 01.058-.102.157.157 0 01.112-.034.529.529 0 01.377.201.76.76 0 01.165.561 1.57 1.57 0 01-.325.771 1.2 1.2 0 00-.245.667c.024.294.246.512.49.75.285.228.484.548.561.905a.13.13 0 01-.023.109.124.124 0 01-.044.037.12.12 0 01-.055.016l-.029-.048zm2.47-3.1a.887.887 0 01-.637-.485 1.982 1.982 0 01-.01-1.195l.019-.078a1.328 1.328 0 00-.117-1.043 1.212 1.212 0 00-.347-.263l-.28-.205a.853.853 0 01-.288-.563.482.482 0 01.092-.376.146.146 0 01.106-.014c.036.008.068.03.088.061a.175.175 0 01-.05.208.187.187 0 00-.035.142.63.63 0 00.19.348c.078.071.164.133.256.186.15.084.286.191.403.317a1.56 1.56 0 01.183 1.279l-.022.09a1.692 1.692 0 000 1.015.599.599 0 00.441.327.306.306 0 00.284-.095.12.12 0 01.041-.037.126.126 0 01.108-.012.144.144 0 01.048.028.146.146 0 01.034.2.612.612 0 01-.558.207l.051-.042zm2.737-3.008l-.078-.019a.708.708 0 01-.403-.373c-.096-.19-.148-.4-.153-.613l.032-.129a.667.667 0 00-.198-.542.859.859 0 00-.259-.063 1.198 1.198 0 01-.33-.163.96.96 0 01-.284-.919l.04-.168a1.33 1.33 0 00-.013-.621.45.45 0 00-.266-.257.156.156 0 00-.094-.006.16.16 0 00-.08.046.157.157 0 01-.056.022.148.148 0 01-.06-.003.148.148 0 01-.093-.069.135.135 0 01.047-.195.453.453 0 01.436-.099.774.774 0 01.486.433c.067.253.073.517.017.773a.653.653 0 01-.037.155c-.05.207-.004.52.181.661a.86.86 0 00.26.063c.118.037.23.092.33.163a.994.994 0 01.322.764l-.032.129c-.002.179.024.357.078.527.05.096.135.171.237.208a.263.263 0 00.143.035.139.139 0 01.055-.021.132.132 0 01.06.002.14.14 0 01.093.07.146.146 0 01-.048.194.41.41 0 01-.333.015zm3.068-3.079a1.976 1.976 0 01-.921-.608 3.146 3.146 0 01-.98-1.61 3.05 3.05 0 01-.014-.566 2.517 2.517 0 00-.016-.607.771.771 0 00-.365-.473.313.313 0 00-.138-.032.312.312 0 00-.137.034.139.139 0 01-.055.021.151.151 0 01-.113-.027.145.145 0 01-.054-.151.148.148 0 01.062-.088.59.59 0 01.533.007 1.01 1.01 0 01.522.675c.03.221.04.443.03.666a2.814 2.814 0 00-.003.52c.151.575.476 1.09.93 1.474.43.434.748.594 1.031.498a.138.138 0 01.108-.02.138.138 0 01.087.068c.018.032.023.07.014.106a.15.15 0 01-.062.088.894.894 0 01-.459.025zm3.013-2.624a1.253 1.253 0 01-.925-.706 1.842 1.842 0 01-.125-.332.963.963 0 00-.226-.48.943.943 0 00-.403-.208 1.525 1.525 0 01-.492-.229 1.319 1.319 0 01-.35-.99 2.374 2.374 0 00-.064-.523 2.133 2.133 0 00-1.21-1.063.16.16 0 01-.075-.196.177.177 0 01.092-.075.177.177 0 01.118.002 2.323 2.323 0 011.346 1.233c.056.194.086.395.088.597.031.323.042.614.247.787.118.087.253.148.396.179.184.058.357.146.512.262.154.177.258.392.302.622.026.103.061.203.105.3a.999.999 0 001.064.533.114.114 0 01.055-.002.132.132 0 01.091.059c.01.016.016.033.019.052a.142.142 0 01-.018.113.134.134 0 01-.04.042.152.152 0 01-.054.023c-.15.028-.303.027-.453 0zm-22.178 13.71l-.065-.016a2.45 2.45 0 01-.814-.431.148.148 0 01-.012-.185.148.148 0 01.178-.049c.216.167.458.296.717.38a.66.66 0 00.655-.155l.026-.104a.614.614 0 01.186-.201.748.748 0 01.546-.1l1.618.174a.15.15 0 01.056.014.15.15 0 01.083.144.16.16 0 01-.17.137l-1.618-.175c-.129-.032-.259-.063-.339.041a.443.443 0 00-.115.136l-.029.116a.898.898 0 01-.903.274zm7.37 2.92a.94.94 0 01-.51-.275 4.017 4.017 0 01-.267-.367 3.034 3.034 0 00-.244-.347l-.273-.231a1.176 1.176 0 01-.535-.679 1.09 1.09 0 01.155-.634 72.2 72.2 0 01.053-.22.613.613 0 00-.025-.404.176.176 0 00-.13-.032.124.124 0 01-.052-.019.128.128 0 01-.06-.089.137.137 0 01.002-.056.15.15 0 01.058-.097.162.162 0 01.051-.024.14.14 0 01.058-.003.442.442 0 01.302.225.789.789 0 01.062.646 1.46 1.46 0 00-.056.233 1.023 1.023 0 00-.117.479.92.92 0 00.427.501 1.986 1.986 0 01.583.649c.07.113.15.219.237.319.163.177.442.272.583.142a.158.158 0 01.055-.022.148.148 0 01.06.003.148.148 0 01.093.069c.01.016.018.034.021.052a.133.133 0 01-.069.143.534.534 0 01-.462.038zm-7.85-.953l-.596-.145c-.077-.019-.113-.097-.091-.187a.132.132 0 01.12-.102.129.129 0 01.054.007 2.092 2.092 0 001.897-.072c.107-.096.206-.2.296-.312.1-.142.219-.27.353-.38a1.163 1.163 0 011.15-.159.147.147 0 01.048.028.135.135 0 01.03.156.144.144 0 01-.074.084.136.136 0 01-.055.015.138.138 0 01-.057-.008c-.142-.058-.297-.078-.45-.058a.874.874 0 00-.416.176 1.632 1.632 0 00-.302.338 4.847 4.847 0 01-.334.358 1.895 1.895 0 01-1.573.261z" fill="#9B4C5E"/><path d="M108.261 172.797a110.377 110.377 0 01-9.392-10.281c-3.589-4.7-7.369-10.022-8.81-19.203a57.49 57.49 0 011.003-21.969c1.063-3.744 2.75-8.927 1.736-11.464-1.015-2.537-6.014-3.138-7.266-5.884-1.252-2.745-3.085-4.234-1.484-11.536 1.6-7.302 1.91-7.844 1.179-10.134-.732-2.29-.242-4.638 2.203-5.098 2.444-.46 2.495-1.065 3.939-4.004 1.443-2.94 6.511-4.2 8.219-4.113 1.708.087 4.909 1.196 4.564 1.825-.346.628-2.389-.39-3.901.914-1.511 1.305-1.578 4.113-1.212 6.725.365 2.612 1.722 7.687 3.28 9.739 1.558 2.052 4.505 5.444 4.572 8.888.066 3.444-.701 4.231-1.539 6.316-.837 2.086-1.244 2.179-1.075 3.852.168 1.673 1.802 2.4 1.234 4.51-.569 2.11-.914 2.396-3.202 3.566s-4.832 2.937-5.699 4.919a31.503 31.503 0 01-2.834 4.986 6.324 6.324 0 00-1.602 2.86 55.133 55.133 0 00.305 15.307 55.147 55.147 0 004.96 12.644c2.069 3.506 10.852 11.158 11.117 11.648.265.489.254 5.436-.295 4.987z" fill="url(#paint6_linear_1552_6068)"/><path d="M91.034 107.997a9.54 9.54 0 013.201 1.109 3.267 3.267 0 011.703 3.376c-.172 1.097-.726 1.4-.631 2.589.094 1.188.603 1.861-.135 3.313-.738 1.451-3.086 4.444-3.515 5.587a27.306 27.306 0 01-1.668 3.241s.397-2.645 1.028-5.234c.63-2.588 1.56-6.119 1.791-7.351a7.432 7.432 0 00-1.774-6.63z" fill="#184D1A"/><path d="M107.106 173.311a135.312 135.312 0 012.178-15.923 165.795 165.795 0 0110.087-29.353c5.065-10.653 6.636-15.975 11.766-25.036 5.13-9.06 6.607-13.377 7.398-16.625.792-3.25 2.321-12.625 1.762-17.821a19.895 19.895 0 00-3.039-9.379c-.98-1.61-3.668-2.909-4.002-5.088-.333-2.179-.165-2.7.858-3.52 1.023-.82 1.211-.24 1.865-1.63.654-1.39.723-1.785 1.129-2.55a15.99 15.99 0 016.993-4.713c3.06-.79 5.426-.927 6.289-1.54a5.556 5.556 0 002.187-5.596c-.377-3.464-1.768-4.009-1.8-4.551-.033-.543-.704-.885.336-2.112 1.04-1.228.508-.905 1.06-2.1.552-1.196 1.557-1.774 3.323-1.193s4.548 2.397 5.544 2.42c1.089.26 2.14.659 3.127 1.187a4.429 4.429 0 012.355 2.22c.442.998 1.951.831 3.008 2.24a3.336 3.336 0 01.815 3.243c-.341.78-.924 1.708-.308 2.393.615.684 2.796 2.546 3.217 3.69.421 1.145.095 1.244.515 2.279.42 1.034 1.101 1.844 1.29 2.535.188.69-.41 1.683-.495 3.211-.084 1.53 1.27 4.026 1.516 5.662a11.736 11.736 0 01-.592 5.697c-.652 1.212-1.648 1.751-2.631 3.308a4.513 4.513 0 00-.57 3.467c.116 1.036.164 2.079.146 3.12-.093.664.158 1.547-.893 1.58-1.05.031-1.311.256-1.204 1.283.106 1.027-.271 1.113-1.004 2.936-.732 1.824-.129 3.63-.158 4.76a4.405 4.405 0 01-.928 2.517 5.046 5.046 0 00-.7 2.873c-.116 1.659-.531 1.448-1.42 2.561a4.72 4.72 0 00-1.277 2.198 1.795 1.795 0 01-2.17 1.364c-.829-.092-1.166.223-1.438 1.226-.272 1.004-1.215 2.79-2.822 2.178-1.608-.61-2.161-1.774-3.664-2.647-1.502-.873-3.319-.342-5.578.369a57.77 57.77 0 00-6.977 2.564c-1.315.722-1.683 1.276-3.478 2.224-1.796.948-4.007 4.673-4.861 5.534a56.76 56.76 0 00-4.041 6.9c-.47.914-7.162 17.739-7.838 19.727-8.13 23.907-11.151 41.996-10.771 42.185 1.917.974-1.578-.453-1.955.305-.376.758-2.066 1.951-2.15-.579z" fill="url(#paint7_linear_1552_6068)"/><path d="M106.196 173.666a108.192 108.192 0 01-8.513-6.901c-2.197-2.249-13.49-20.384-16.924-27.857-3.435-7.473-8.236-18.967-9.52-23.723-1.284-4.755-3.366-16.204-4.142-17.915-.777-1.711-.894-4.948-4.52-8.313-3.626-3.365-9.402-8.886-11.502-10.686-2.1-1.8-5.343-1.782-6.078-1.92-.734-.137-.063-.92-1.151-2.707s-3.518-3.243-4.41-6.23c-.891-2.987 2.641-4.758 4.133-8.742 1.492-3.983 2.377-4.63.124-6.14-2.253-1.508-1.134-2.95.066-4.947a14.517 14.517 0 014.705-5.627c2.364-1.48 6.36-3.181 6.194-3.852-.166-.671-1.527-1.113-.416-1.953 1.11-.84 1.849-.55 3.066-1.323 1.218-.773 2.149-.765 2.28 1.515.13 2.28.591 2.694 1.87 3.582a12.548 12.548 0 002.926 1.96c.777.19 2.91-.004 3.225.786.316.79.697 1.253 1.5 1.051.804-.202 2.402 1.408 3.462 1.954a10.31 10.31 0 013.338 2.184c.642.911-.316 1.295.178 2.197.494.901 1.33.173 1.28 1.56a1.77 1.77 0 00.803 1.821c.2.125.423.21.656.247.861.293 1.847 1.712 2.853 2.423 1.007.712 2.022.712 2.43 2.416.409 1.703 1.061 2.123.025 2.378-1.036.255-2.663.174-3.27.917-.606.744 1.393.477.089 2.284-1.305 1.807-3.206 2.29-3.862 3.46a4.606 4.606 0 00.518 4.24c.71.749 3.557 1.73 4.05 2.358.491.627.732.823.035 2.051-.698 1.23-.76 2.558-.066 2.919.694.36 1.563-.223 1.825.335a4.957 4.957 0 01.888 4.411c-.795 2.248-.205 1.459-.106 2.8.099 1.34.168 2.124-1.011 2.235-1.18.11-2.869.905-3.63.76a1.948 1.948 0 00-2.363.467c-1.261 1.064-2.108 2.736-3.295 5.244a27.81 27.81 0 00-2.591 7.596c.27 3.659.845 7.289 1.72 10.853.639 2.555 6.754 17.331 7.924 19.454 1.171 2.122 10.91 20.098 12.532 22.399 1.621 2.301 5.956 8.389 8.589 10.649 2.632 2.259 7.298 7.043 7.311 8.061.013 1.017-2.647.054-3.225-.731z" fill="url(#paint8_linear_1552_6068)"/><path d="M44.334 74.682c2.1-.077 4.193-.267 6.272-.57 1.463-.37 4.888-.632 5.757.306.87.938 1.595.155 1.256 2.335-.339 2.18.544 4.246 1.834 4.807 1.29.561 3.545.206 4.31.392a2.975 2.975 0 012.39 2.351c.51 1.224.567 2.59.16 3.85-.517 2.123 2.649 9.01 1.627 12.189a67.159 67.159 0 00-6.195-8.365c-3.164-3.513-5.421-7.765-9.672-10.144-4.25-2.38-8.22-5.458-7.739-7.15zM80.835 62.39s-.047 1.66-.984 1.844c-.936.183-4.473.789-5.148 1.872a4.553 4.553 0 00.874 5.026c1.507 1.477 2.302 1.479 3.384 1.318 1.082-.162 4.201-8.122 1.874-10.06zm56.996-1.459s2.915.71 2.92 3.22c.006 2.511-.182 8.183 1.134 9.258a28.638 28.638 0 004.214 2.754c1.46.877 3.804 3.985.945 4.906-2.859.922-4.66.88-4.434 2.937.227 2.057 1.348.946 1.296 2.51-.051 1.564-.877.842-1.29 1.975-.414 1.133-.473 1.942-1.62 2.142-1.147.2-3.085.496-3.826 2.359-.742 1.862-4.036 9.862-5.142 9.84-1.106-.023 2.441-10.018 3.93-14.33 1.49-4.314 2.637-16.457 2.011-18.899-.626-2.442-1.372-9.576-.138-8.672z" fill="#184D1A"/><path d="M158.786 42.562c-.389 2.648-.785 5.326-1.189 8.034-1.852 12.615-3.879 25.668-10.748 36.404a45.394 45.394 0 01-13.847 13.807c10.144-5.482 16.576-15.885 20.541-26.697 3.567-9.744 3.844-18.26 5.475-28.447.657-4.104 1.211-8.686.302-11.828.691 2.403-.174 6.292-.534 8.727zM92.052 91.201c.934 7.714 5.31 12.62 4.847 20.377-.405 7.292-2.962 10.522-4.89 14.44a24.834 24.834 0 005.326-19.27c-.792-5.143-3.352-9.784-4.406-14.867-1.176-5.647.222-11.669 2.09-17.027a45.509 45.509 0 00-2.734 7.396 31.196 31.196 0 00-.233 8.951zm-23.538-8.422c-1.446-6.454-6.228-11.664-8.5-17.88a47.21 47.21 0 01-1.972-8.803 62.656 62.656 0 01-1.208-14.307 31.306 31.306 0 001.073 8.776 53.025 53.025 0 011.075 5.897c.292 1.84.832 3.96 1.212 5.78 1.232 6.21 6.027 12.04 8.107 16.851a42.848 42.848 0 011.354 9.311c.084 5.286-.282 6.787.1 12.036-1.01-5.827.056-11.888-1.24-17.661z" fill="#720539"/><path d="M158.139 49.384c3.352-2.776 6.742-5.652 8.985-9.397l-8.259 6.53c-.122.107-.296.202-.426.115a.428.428 0 01-.121-.18c-1.093-2.72-1.944-6.383-3.642-8.703.06 1.386 4.148 11.075 3.463 11.635zM156.292 61.7a76.55 76.55 0 0116.233-7.33 31.223 31.223 0 00-15.263 5.317c.757-.515-3.614-7.187-4.122-7.86a28.002 28.002 0 00-6.703-6.28 24.376 24.376 0 019.855 16.153z" fill="#720539"/><path d="M150.94 64.853c1.63 2.55 3.032 5.578 2.264 8.504a52.401 52.401 0 0116.203-6.076c-5.172.111-10.176 1.84-15.087 3.523a53.008 53.008 0 00-4.48-8.701 18.99 18.99 0 00-6.377-5.982 36.427 36.427 0 017.477 8.732z" fill="#720539"/><path d="M147.435 73.61a17.499 17.499 0 011.729 9.293 130.383 130.383 0 0116.57-3.752 75.525 75.525 0 00-14.906 1.936c.245-.05-3.266-10.586-6.251-12.698.748 1.773 2.032 3.43 2.858 5.221zM142.9 93.072a8.93 8.93 0 00.007-3.467 1.704 1.704 0 001.524 1.235 5.668 5.668 0 002.074-.29c3.91-.953 7.763-.495 11.69-.84a37.48 37.48 0 00-7.759 1.263c-.884.196-7.392 1.339-7.536 2.1zm-50.874-6.045a31.459 31.459 0 015.363-6.468 38.78 38.78 0 01-4.954 4.003c-.744-.948-1.195-2.361-2.246-2.946.58 1.841 1.27 3.627 1.837 5.41zm-.212 6.502a4.895 4.895 0 002.105 1.5 25.567 25.567 0 016.602-6.88c-2.847 1.268-5.881 2.682-7.468 5.366-1.424-1.814-3.322-2.756-5.044-4.19 1.147 1.431 2.426 2.826 3.805 4.204zm4.692 9.466c1.413-3.66 4.617-6.28 7.696-8.724a161.544 161.544 0 00-6.986 4.907 5.779 5.779 0 00-2.068 2.239 7.068 7.068 0 00-3.643-1.944c-1.574-.465-3.19-.873-4.739-1.442.862.402 9.87 4.598 9.74 4.964zm-5.128 2.576a17.767 17.767 0 013.615 2.06 6.078 6.078 0 012.274 3.392c.03.213.094.462.295.538.2.077.439-.112.593-.294a755.997 755.997 0 004.828-5.515 70.92 70.92 0 00-5.569 3.881 8.005 8.005 0 00-3.993-3.715 20.583 20.583 0 00-4.157-1.3 33.99 33.99 0 012.114.953zM58.129 55.624a44.17 44.17 0 018.598-8.71 42.784 42.784 0 00-8.799 6.604l-6.319-5.995a5.041 5.041 0 00-2.622-1.572c-.468 1.189 10.2 8.258 9.142 9.673zm2.862 10.611c2.617-5.107 7.52-8.616 12.272-11.846a55.255 55.255 0 00-12.326 9.255 1.58 1.58 0 01-.583.42 1.547 1.547 0 01-1.01-.246c-3.953-1.854-7.908-4.093-12.004-5.584 1.03.84 13.635 8.011 13.651 8.001zm4.512 9.079c1.866-3.66 4.978-6.466 8.02-9.208a19.425 19.425 0 00-8.259 6.695 1.331 1.331 0 01-.494.51c-.32.104-.668.083-.974-.059-5.753-1.785-11.258-1.494-17.075-2.226 1.732-.182 19.236 3.438 18.782 4.288zm3.698 10.389a24.618 24.618 0 00-9.814-7.533 51.416 51.416 0 0110.302 9.475c-.447-.534 2.673-4.833 3.077-5.365.885-1.156 3.402-3.038 3.477-4.473a30.63 30.63 0 00-7.042 7.896z" fill="#720539"/><path d="M108.65 173.002a39.027 39.027 0 013.426-4.883c1.81-2.137 7.876-9.352 9.221-10.985 1.345-1.633 19.802-26.314 21.018-27.979 1.215-1.665 13.074-18.355 14.834-20.847 1.76-2.492 5.389-6.462 5.97-10.2.582-3.739.417-4.698 1.946-6.807 1.53-2.11.81-1.352 1.383-4.325.574-2.973 2.731-4.34 3.698-3.912.966.428 2.682.928 2.278-1.693-.404-2.622.167-7.556 2.754-7.981 2.587-.426 3.55 1.536 4.392.782.843-.755 2.766-1.328 2.432-6.264-.335-4.935.32-4.748 1.923-5.358 1.603-.61 2.195-1.522 3.423-2.224 1.228-.702 3.523.858 5.276.476a5.093 5.093 0 003.647-3.705c.451-1.85 4.508-3.015 7.614-1.627 3.106 1.387 3.199 1.739 5.086.47a12.548 12.548 0 018.496-1.083 25.51 25.51 0 016.485 2.444c1.431.773 2.824 1.305 2.594 2.25-.23.944-4.108 2.783-6.46 5.172-2.352 2.388-4.346 1.56-5.814 5.22-1.468 3.66-4.537 10.74-8.744 14.323-4.207 3.582-4.604.03-9.262 5.01-4.657 4.981.102 4.317-6.624 6.408-6.725 2.091-8.841 1.768-12.996 3.895-4.154 2.128-10.686 3.087-14.635 7.528a225.162 225.162 0 00-14.001 18.609c-2.736 4.133-10.666 15.226-14.795 20.966-4.129 5.741-12.205 16.305-13.698 18.602-1.492 2.296-7.523 8.971-8.429 9.368-.906.396-2.983.644-2.438-1.65z" fill="url(#paint9_linear_1552_6068)"/><path d="M159.895 106.947c7.869-10.615 18.901-18.39 28.144-27.833 4.305-4.436 8.237-9.196 13.043-13.043 4.807-3.848 10.712-6.742 16.86-6.52-5.139 1.326-10.458 2.773-14.811 5.826a47.493 47.493 0 00-7.114 6.672 382.748 382.748 0 01-32.863 31.263l-3.259 3.635z" fill="#720539"/><path d="M198.403 68.792a114.03 114.03 0 0114.161.392c-4.099-1.368-8.368-1.133-12.503-2.072.052-1.51 1.175-2.456 1.917-3.646.743-1.19 1.083-3.713 1.971-4.429a12.753 12.753 0 00-3.556 5.249c-.201.486-1.46 4.47-1.99 4.506z" fill="#720539"/><path d="M190.052 77.78l16.437-2.137c-3.566.502-7.447-.293-11.083.042-4.226.451-4.135-1.501-3.195-5.303l1.754-7.197a21.298 21.298 0 00-2.631 7.587c-.14.747-1.127 6.992-1.282 7.009zm-8.885 3.075a16.028 16.028 0 00-.686 5.577 69.846 69.846 0 0015.042-1.82 56.024 56.024 0 00-13.38.854c.412-2.875.663-5.762.913-8.649.157-1.771.437-3.595.42-5.382-.842 3.058-1.536 6.248-2.309 9.42zm-10.362 12.118a7.736 7.736 0 00-.807 3.314 60.29 60.29 0 0014.388-2.57 91.52 91.52 0 00-12.459.9c1.041-4.27 3.064-8.577 3.652-12.903-1.812 3.548-3.139 7.53-4.774 11.26z" fill="#720539"/><path d="M177.318 77.503a46.532 46.532 0 013.399 5.929c.283-.768.55-1.525.83-2.28a7.36 7.36 0 01-3.927-3.932l-.302.283zm-15.177-19.932c.881.215 1.661-.568 2.103-1.366a24.41 24.41 0 002.513-5.585c-.553.523-4.564 6.964-4.616 6.951zm4.611 2.193a10.191 10.191 0 00-3.038 4.416c-.478 1.062-1.825 2.873-.946 3.883 1.423-2.684 1.203-6.344 3.984-8.299zm-25.485.866a24.799 24.799 0 0110.565 4.507c-1.688-3.605-7.095-3.88-10.565-4.507zm6.673-3.063a5.367 5.367 0 00-.119 1.672 1.548 1.548 0 001.065 1.26 56.647 56.647 0 00-.542-7.687 30.924 30.924 0 01-.404 4.755zm3.166-14.627a29.289 29.289 0 012.78 10.44c-.152-1.065-1.701-2.813-1.995-4.201a33.428 33.428 0 01-.785-6.238zm12.543 29.053c-1.383 1.226-3.257 1.825-4.646 3.187-.764.774-3.409 3.406-3.117 4.574.51 2.017 2.735-2.555 3.127-3.09a32.813 32.813 0 014.636-4.671zm-6.514 10.631a7.6 7.6 0 00-1.713-1.528 2.003 2.003 0 00-2.173.019c1.609 1.338 5.396 4.66 7.489 4.292-1.141-.95-2.513-1.681-3.603-2.783zM67.306 51.127a36.489 36.489 0 00-1.81 5.51c-.314 1.295.017 3.596-1.463 4.264.157-3.91 1.858-6.389 3.273-9.774zm-21.411 12.02a10.525 10.525 0 006.243 1.014c1.693-.246 3.281-1.189 5.041-1.035a75.06 75.06 0 01-4.001.26c-1.768.049-5.72.553-7.283-.239zm1.987-12.885a18.902 18.902 0 007.22 1.114c-1.927-1.607-4.76-1.242-7.247-.778l.027-.336zm52.134 42.098l-1.868 6.482a2.399 2.399 0 001.556-1.485 7.351 7.351 0 00.397-2.193c.087-1.09.177-2.192.255-3.298l-.34.493zm-11.481 2.687a11.396 11.396 0 003.907 4.86c.155-.634-.318-1.23-.783-1.685l-2.016-1.863c-.546-.517-1.15-1.253-.895-1.96l-.213.648zM67.443 70.11c-.044.18.788-.248.84-.29.472-.42.251-1.035.297-1.56.108-.979.342-1.94.697-2.86a27.551 27.551 0 00-1.834 4.71z" fill="#720539"/><path d="M120.445 200.171c-.023.091-.045.181-.131.256-2.738 4.818-6.819 7.32-10.934 10.691a24.941 24.941 0 01-7.729 4.973 14.033 14.033 0 00-6.083 4.976 67.317 67.317 0 00-5.278 7.023c-2.425 3.701-4.866 7.412-7.632 10.879-.975 1.134-2.043 2.025-3.061 3.107a4.865 4.865 0 01-1.458 1.194c-.184.079-.429.129-.543-.022-.114-.151-.035-.365.048-.537 1.03-1.915 2.007-3.789 3.147-5.65a129.08 129.08 0 006.817-12.887c1.627-3.47 1.03-3.438 1.668-7.245a10.94 10.94 0 00.075-5.151c-.46-1.209-1.674-2.478-2.286-3.683a47.74 47.74 0 01-5.333-18.603c-.217-4.742.739-10.131 4.644-12.868 5.434-3.831 13.898-.727 18.986-5.054 2.479.357 6.198.467 7.141 2.795.331.835.35 1.772.74 2.593a6.47 6.47 0 002.071 2.37c3.282 2.691 6.67 4.723 7.383 9.12a18.648 18.648 0 01-2.252 11.723z" fill="url(#paint10_radial_1552_6068)"/><path d="M160.401 41.338c-.003.465.045 1.053.477 1.254a1.2 1.2 0 00.95-.125 10.646 10.646 0 002.93-2.343 6.658 6.658 0 002.164-3.587 7.117 7.117 0 00-.909-3.759c-.901-1.933-3.099-5.416-4.812-2.214-1.438 2.694-.724 7.817-.8 10.774zm-5.863-10.066a18.242 18.242 0 002.442 6.875c1.859-2.002 1.727-5.064 1.539-7.729-.278-4.77-4.997-3.987-3.981.854zm8.904 16.059a19.171 19.171 0 00-1.8 1.755 9.758 9.758 0 00-2.206 5.112.969.969 0 00.046.546c.212.422.83.367 1.249.167 2.214-1.092 2.654-4.193 4.659-5.72 1.152-.844 2.732-1.076 3.689-2.132a5.532 5.532 0 001.04-2.187c.545-1.842-.394-2.66-2.042-1.869-1.647.792-3.311 3.115-4.635 4.328zm8.933.449a13.987 13.987 0 00-2.876 1.89 4.766 4.766 0 00-1.611 2.953 3.87 3.87 0 004.45-.843c.371-.392.656-.857.835-1.366a2.05 2.05 0 00-.638-2.335l-.16-.3zm-7.406 16.938a.743.743 0 00-.043.456c.086.268.436.353.72.367a7.39 7.39 0 002.998-.42c.452-.14.852-.41 1.15-.777a5.764 5.764 0 00.466-1.915c.316-1.295 4.301-5.205.415-4.575-2.572.36-5.009 4.676-5.706 6.864zm-7.631 1.022a1.96 1.96 0 00.125 1.4 1.457 1.457 0 001.983.196 3.728 3.728 0 001.163-1.842 5.928 5.928 0 01.925-1.996c.793-.945 3.187-3.227.127-2.944-2.077.248-3.926 3.444-4.323 5.185zm-17.689-17.336a2.565 2.565 0 00-.199 1.323c.217.654.67 1.205 1.271 1.543a35.766 35.766 0 003.857 2.585c.421.24.972.457 1.333.16.202-.178.334-.423.374-.69a8.002 8.002 0 00.13-3.72 8.003 8.003 0 00-1.571-3.377c-1.921-2.14-4.33-.136-5.195 2.176zm3.163 8.024a29.262 29.262 0 00-2.671-2.666 4.175 4.175 0 00-2.015-1.136 1.56 1.56 0 00-1.794 1.113c-.18 1.135 1.214 1.776 1.931 2.664.524.662.746 1.553 1.438 2.037.453.234.954.356 1.464.356l3.028.3a4.006 4.006 0 00-1.681-2.563l.3-.105zm9.115 5.84c.171.413.433.781.767 1.078 1.372-1.297 1.576-6.471-1.012-6.718-3.229-.32-.321 4.474.245 5.64zm2.368-15.521a9.565 9.565 0 01.22 3.77c-.073.27-.04.557.093.804.238.318.79.192 1.027-.106.214-.34.311-.74.278-1.14.035-1.047.379-5.556-.559-6.21-2.105-1.5-1.196 2.15-1.059 2.882zm-8.764 16.375c-.901-.301-2.172-.378-2.551.503a1.482 1.482 0 00.449 1.48c.435.37.919.676 1.438.913a8.653 8.653 0 014.261 6.276c-.001.32.113.63.322.874.52.456 1.312-.147 1.564-.785 2.477-4.593-1.488-7.972-5.483-9.26zm16.492 11.438c-.492.334-.897.78-1.182 1.302a1.33 1.33 0 00.336 1.604 1.83 1.83 0 001.036.252 10.755 10.755 0 003.022-.237 3.663 3.663 0 002.385-1.736c.719-1.374 2.143-4.236.245-4.78-1.898-.545-4.582 2.53-5.842 3.594zm-12.878 13.603c-.053.22-.12.492-.009.656a.68.68 0 00.544.133l4.552-.153c3.139-.1 3.277-3.315.801-4.81-2.956-1.776-5.057 2.004-5.888 4.174zm16.707-7.187a6.375 6.375 0 00-4.452.588c-.3.127-.549.352-.704.638-.081.22-.097.459-.045.688a3.123 3.123 0 002.626 2.605 3.12 3.12 0 003.268-1.732 2.24 2.24 0 00.098-1.868 1.442 1.442 0 00-1.583-.824l.792-.095zm-6.124 8.243a6.113 6.113 0 01-1.236 1.92c-.358.24-.771.385-1.201.42-.368.048-.82.157-.869.529a.731.731 0 00.178.51 3.997 3.997 0 001.474 1.606 1.414 1.414 0 001.895-.512c.261-.622-.071-1.511.46-1.89.309-.198.724-.097 1.102-.074 1.563.12 3.683-2.105 2.393-3.626-1.065-1.26-3.55-.015-4.196 1.117zm46.125-24.48c-.426.225-.927.651-.734 1.096.109.19.283.336.491.407a7.375 7.375 0 007.371-.686 8.928 8.928 0 011.294-.918c1.099-.57 4.499-.276 4.939-1.745.44-1.47-1.598-1.665-2.687-1.587a28.238 28.238 0 00-10.674 3.433zm-1.473-2.909a2.05 2.05 0 011.015-2.59c1.611-.98 3.553-1.686 5.2-2.533 1.05-.54 2.149-1.218 1.837.736-.385 2.429-6.312 2.48-8.052 4.387zm-6.982-2.826a13.605 13.605 0 00-1.736 3.183l-1.906 4.444a3.986 3.986 0 00-.43 1.486 1.4 1.4 0 00.697 1.308c.369.142.78.133 1.144-.023a4.796 4.796 0 002.379-2.163c.563-.96.958-2.015 1.566-2.936a25.8 25.8 0 001.718-2.544c1.659-3.544-.612-6.277-3.432-2.755zm-.178 13.968c-.212.196-.43.472-.332.742.099.271.491.353.807.348l8.012.005a6.806 6.806 0 003.334-.56c4.256-2.432-1.638-3.867-3.555-3.827a12.41 12.41 0 00-8.266 3.292zm-12.19-6.848a8.87 8.87 0 00-.422 2.406c-.271 3.252-.532 6.52-.803 9.773a.996.996 0 00.055.507c.16.3.61.313.933.227a4.444 4.444 0 002.253-2.714 89.101 89.101 0 003.973-10.001c1.432-4.697-4.829-3.33-5.989-.198zm-8.778 8.939a4.594 4.594 0 00-2.062 5.819c1.39-.58 1.377-2.558 2.285-3.75a5.36 5.36 0 00.565-.74.763.763 0 00-.064-.865c-.221-.218-.674-.164-.707.198l-.017-.662zm-10.613 19.572c-.229.658-.369 1.515.164 1.919.532.404 1.396-.099 1.913-.645 1.262-1.406 5.716-8.37 3.173-9.702-3.179-1.652-4.701 6.739-5.25 8.428zm12.059-11.595a12.557 12.557 0 00-2.276 5.683c1.735-.701 3.676-1.627 4.156-3.43a1.427 1.427 0 00-.242-1.43c-.608-.6-1.627-.08-2.318.45l.68-1.274zm12.149-3.294a2.29 2.29 0 00-1.132.369.81.81 0 00-.256 1.048c.121.146.28.255.458.318a9.89 9.89 0 003.554.564c1.921.056 3.828.055 5.729.024 1.901-.03 6.127-2.62 2.286-3.748-2.641-.822-7.861.95-10.639 1.425zM179.27 91.511a.385.385 0 00-.076.311c.047.148.228.192.39.204a19.27 19.27 0 007.454-.748c3.634-1.116 3.307-3.828-.469-3.706a8.77 8.77 0 00-7.299 3.94zM96.905 73.365a18.493 18.493 0 00-2.724 6.563.334.334 0 00.31.473 2.812 2.812 0 002.637-1.812c.482-1.02.604-2.198.989-3.27.188-.349.284-.741.277-1.138a1.04 1.04 0 00-1.26-.8 1.053 1.053 0 00-.677 1.315l.448-1.33zm-7.845 5.728c-.424.28-.975.57-1.027 1.12l3.27.262a.533.533 0 00.66-.456c.459-1.15 2.986-5.1.825-5.188-1.633-.11-2.39 3.394-3.727 4.261zm9.057 4.167a5.865 5.865 0 00-4.203 3.788 1.89 1.89 0 00-.116 1.096.88.88 0 00.793.687c.159-.025.313-.07.459-.135l1.9-.812a3.53 3.53 0 002.206-1.794 1.798 1.798 0 00-1.54-2.294l.5-.537zm-9.844-.822a13.663 13.663 0 00-1.437 3.42c-.06.178-.074.369-.039.553.081.212.223.394.408.525l1.767 1.363c.122.108.266.19.422.24.414.1.728-.399.842-.81a6.992 6.992 0 00-.829-4.315c-.183-.429-.713-.9-.992-.544l-.142-.432zm-1.883 8.18a3.49 3.49 0 00.562 6.142c.126.058.263.092.401.098a.653.653 0 00.442-.797 2.667 2.667 0 00-.465-.909 3.597 3.597 0 01-.287-2.99c.152-.254.223-.547.205-.842-.07-.277-.488-.475-.655-.241l-.203-.461zm12.056.865a9.913 9.913 0 00-2.657 2.177 3.076 3.076 0 00-.903 2.523c.219.903 1.548 1.474 2.126.737.577-.737-.109-1.864.216-2.69.232-.442.556-.83.95-1.14a1.399 1.399 0 00.522-1.243c-.122-.455-.915-.634-1.068-.178l.814-.186zM93.38 101.63a21.333 21.333 0 00-4.767-1.38 3.037 3.037 0 00-1.368-.018 1.202 1.202 0 00-.877.952c-.06.808.907 1.235 1.697 1.428l5.479 1.334c.28.101.583.113.87.034a1.019 1.019 0 00.484-.731 1.007 1.007 0 00-.267-.834 2.87 2.87 0 00-1.638-.769l.388-.016zm5.888-.622a4.653 4.653 0 00-1.42 2.053 1.717 1.717 0 00.945 2.095c.953-.028 1.35-1.207 2.077-1.825a8.737 8.737 0 011.282-.757c.889-.551 2.607-3.04 1.449-4.09-1.157-1.05-3.591 1.786-4.333 2.524zm2.796 7.783a7.994 7.994 0 00-3.868 6.53l2.398-1.115a8.411 8.411 0 002.384-1.449 2.809 2.809 0 00.877-2.529 1.712 1.712 0 00-1.44-1.306 1.713 1.713 0 00-.683.049l.332-.18zm104.971-28.628a1.148 1.148 0 00-.438-1.19 1.2 1.2 0 00-1.449.319 7.68 7.68 0 00-.846 1.275 8.557 8.557 0 01-4.832 2.936c1.488-.474 1.774 4.546 4.036 2.697.576-.45.887-1.895 1.261-2.53.724-1.113 2.007-2.213 2.268-3.507zM57.753 42.466l-.162 2.977c-.15 1.28-.07 2.576.234 3.828.092.357.285.68.555.93a1.534 1.534 0 001.43.157c.46-.195.884-.468 1.253-.806l2.271-1.777a6.848 6.848 0 001.645-1.793 2.303 2.303 0 00.147-2.295c-.568-.989-1.902-1.15-2.875-1.715a6.665 6.665 0 01-2.143-2.47c-1.535-2.485-2.286 2.063-2.355 2.964zm-5.92-1.046a4.092 4.092 0 00-1.449.937 1.333 1.333 0 00-.252 1.597c.32.37.716.663 1.163.86 1.386.844 1.886 2.79 3.374 3.44a.627.627 0 00.428.105.547.547 0 00.266-.25 2.503 2.503 0 00.074-2.163 9.16 9.16 0 01-.643-2.145c-.079-1.143 1.013-2.975.176-3.878a21.318 21.318 0 01-3.137 1.498zm11.099 10.37a12.776 12.776 0 00-2.345 2.418 4.367 4.367 0 00-.782 3.21 4.982 4.982 0 001.028 2.032c.158.246.392.433.666.533a1.134 1.134 0 001.041-.446c1.173-1.264 1.002-3.266 1.775-4.805.21-.415.483-.801.717-1.197a7.166 7.166 0 00.713-1.8c.158-.648.176-1.795-.745-1.786-.44-.052-1.724 1.5-2.068 1.84zm4.833 1.849c-.239.34-.439.704-.595 1.089a1.052 1.052 0 00.256 1.145c.494.395 1.213.035 1.725-.32l3.718-2.535a4.41 4.41 0 001.042-.898 3.288 3.288 0 00.103-3.239c-.591-1.515-2.63-3.506-4.098-1.876-1.468 1.631-.996 4.762-2.151 6.634zm-1.419 7.511a8.603 8.603 0 00-2.654 3.179 4.42 4.42 0 00.927 4.586.846.846 0 00.315.227.786.786 0 00.668-.262 6.884 6.884 0 001.97-2.907 4.14 4.14 0 01.827-1.759c.47-.462 1.484-.461 1.653.142.169.603-.188 1.559.415 1.678a.854.854 0 00.416-.077c1.313-.544 2.174-1.883 3.5-2.424a13.279 13.279 0 002.584-.865 4.357 4.357 0 001.255-1.6c.463-.834.924-1.654 1.4-2.484.083-.174.13-.363.136-.556a1.159 1.159 0 00-.328-.738 7.467 7.467 0 00-3.188-2.573c-1.166-.284-2.243.591-3.226 1.188a52.206 52.206 0 00-6.67 5.245zM46.579 46.037a5.78 5.78 0 00-2.071 2.868.773.773 0 00.027.678.747.747 0 00.725.177c.756-.17 1.492-.418 2.197-.74a2.867 2.867 0 012.247-.042.839.839 0 00-.006-.934 2.079 2.079 0 00-.715-.667 13.016 13.016 0 00-2.582-1.288l.178-.052zm5.669 5.96c-.56.131-1.11.3-1.646.504a6.439 6.439 0 00-1.932.668 3.834 3.834 0 00-1.28 2.32 1.185 1.185 0 00-.048.537c.079.191.218.35.397.453 1.397 1.026 3.218 1.21 4.797 1.937.763.373 1.492.813 2.178 1.312.333.255.709.449 1.11.572a1.201 1.201 0 001.178-.275c.41-.448.28-1.152.08-1.736l-.644-2.145a9.482 9.482 0 00-.832-2.218 3.773 3.773 0 00-3.358-1.929zm-4.495 7.804a4.804 4.804 0 00-1.646-.565 3.293 3.293 0 00-3.171 2.655.505.505 0 00.025.404c.072.09.173.153.286.179a7.39 7.39 0 002.81.067l4.333-.438c.102-1.264-1.79-1.89-2.637-2.302zm8.254 5.151a2.588 2.588 0 00-.984-.24 2.48 2.48 0 00-.843.193l-2.349.799a2.12 2.12 0 00-.69.353 1.466 1.466 0 00-.348.641 2.743 2.743 0 00.944 2.602 5.336 5.336 0 002.63 1.148c.489.106.992.132 1.49.076.407-.038.798-.176 1.205-.214.839.008 1.673.12 2.485.33.622.152 1.38-.033 1.7-.613a1.53 1.53 0 00-.208-1.285 9.336 9.336 0 00-5.032-3.79zm-11.624-.213a3.173 3.173 0 00-3.156 2.138 1.12 1.12 0 00-.016.572c.085.206.213.391.376.544.575.565 1.102 1.105 1.794 1.644.207.208.46.364.74.454.726.177 1.395-.428 2.13-.578a6.702 6.702 0 011.644.071 1.48 1.48 0 001.51-.564c.136-.317.155-.673.051-1.002-.558-1.933-3.24-3.258-5.073-3.28zm24.854 7.523c-.719.812-1.491 1.899-1.052 2.91.217.391.498.742.831 1.04a4.905 4.905 0 011.122 2.152c.136.567.163 1.136.257 1.707.033.146.073.32.222.384a.48.48 0 00.349-.025c1.064-.426 1.513-1.647 2.293-2.485.78-.838 2.447-1.653 2.61-2.998.028-.45-.03-.901-.17-1.33l-.493-1.917c-1.034-3.98-4.334-1.302-5.969.562zm9.652 2.062a2.08 2.08 0 00-1.778 2.172c.117.429.157.875.118 1.318a1.96 1.96 0 00-.132.543c.04.394.523.553.905.509a2.453 2.453 0 001.632-1.07 7.12 7.12 0 00.882-1.814c.152-.318.2-.675.139-1.022a1.027 1.027 0 00-.835-.629 1.733 1.733 0 00-1.066.262l.135-.27zM76.9 82.039a4.206 4.206 0 00-.138 3.435c.101.297.278.562.513.77.286.181.61.298.946.34l1.969.48a1.335 1.335 0 001.791-.631c.1-.214.142-.451.121-.686.14-.912.254-1.83.313-2.749a3.17 3.17 0 00-.218-1.808c-1.286-2.493-4.384-.986-5.298.849zm-5.802 6.018a10.663 10.663 0 00-.2 1.83 35.004 35.004 0 00.009 3.347c.008.36.092.805.435.916a.813.813 0 00.64-.146c1.372-.845 1.722-2.68 2.733-3.955.536-.679 1.318-1.297 1.364-2.163.046-.867-.438-1.3-.675-1.96-.431-1.216 1.257-3.808-.872-2.956-1.622.633-3.091 3.566-3.434 5.087zm-9.126-13.795a3.295 3.295 0 00-2.392.076 1.4 1.4 0 00-.505 2.07 2.88 2.88 0 001.242.536 7.682 7.682 0 012.119 1.16l2.656 1.827c.164.142.367.23.583.252.41.004.683-.437.729-.851a3.396 3.396 0 00-.438-1.807 5.025 5.025 0 00-3.994-3.263z" fill="#4BAF47"/><path d="M132.614 102.399s-11.244 21.654-16.29 35.438c-5.046 13.785-8.044 29.247-7.801 33.091 0 0 6.622-27.18 9.085-34.698 2.462-7.517 15.006-33.831 15.006-33.831z" fill="#842238"/><path d="M133.36 103.225s-10.633 19.485-13.798 29.546c-3.164 10.061-9.941 32.076-9.817 38.495 0 0 8.267-32.977 9.715-36.779 1.864-4.838 13.9-31.262 13.9-31.262zm25.434 4.469a1697.51 1697.51 0 01-41.25 55.272c5.072-4.77 9.225-10.779 13.56-16.236a218.586 218.586 0 0012.905-17.601c1.662-2.598 3.064-5.369 4.924-7.823 1.86-2.453 4.02-4.505 5.573-6.992.96-1.576 1.747-3.4 3.316-4.375l.972-2.245zM90.57 129.726a65.783 65.783 0 00-.063 12.764 28.18 28.18 0 003.932 12.022c3.35 5.232 8.81 8.893 11.764 14.398a9.33 9.33 0 00-2.437-4.529l-4.66-5.825a49.008 49.008 0 01-3.367-4.536c-3.436-5.444-4.695-11.934-5.872-18.254l.703-6.04z" fill="#842238"/><path d="M70.13 104.755s1.483 14.361 13.308 37.521c4.88 9.539 14.508 24.649 21.942 28.942 0 0-13.632-16.868-17.89-23.554a136.958 136.958 0 01-9.644-19.324c-4.611-11.544-7.31-17.59-7.715-23.585z" fill="#842238"/><path d="M94.416 178.597c-2.757.055-5.619.537-7.582 2.458-2.105 2.106-2.404 5.475-1.769 8.386a75.84 75.84 0 003.075 8.386 54.053 54.053 0 011.74 6.937 48.522 48.522 0 011.194 7.887 49.398 49.398 0 01-.975 9.634 16.399 16.399 0 004.342-8.814c.54-3.57-.096-7.263.722-10.793 1.512-6.487 7.422-10.751 10.853-16.387 1.575-2.578 2.093-5.551-1.143-6.572a32.854 32.854 0 00-10.457-1.122zm14.499 9.594c-1.199 3.231-3.763 5.76-5.566 8.708-3.67 6.057-3.989 13.672-7.563 19.78 4.796-4.59 10.839-7.711 15.797-12.125 4.959-4.414 8.953-10.955 7.558-17.451-.595-2.736-2.788-5.451-5.86-5.006-3.072.444-3.495 3.756-4.366 6.094z" fill="#842238" opacity=".23"/><path d="M110.798 174.21l-5.216-1.119a12.895 12.895 0 005.271 2.189l-6.546-.786a12.009 12.009 0 005.676 2.219 73.437 73.437 0 01-10.557-1.05 24.483 24.483 0 0011.541 4.443c-6.85-.38-13.815-.966-20.238-3.381a42.886 42.886 0 0022.762 7.328 59.65 59.65 0 01-27.538-5.242 37.953 37.953 0 0015.27 6.6 113.338 113.338 0 0016.714 1.905 68.77 68.77 0 01-33.204-5.525c4.641 4.381 11.214 6.462 17.624 7.804 4.738.993 9.536 1.676 14.362 2.045-11.223 1.009-23.154-.704-33.136-6.084a41.095 41.095 0 0015.705 7.514 125.35 125.35 0 0017.399 2.868c-11.273 1.216-23.313-.387-33.177-6.026a62.068 62.068 0 0030.604 10.678 66.204 66.204 0 01-21.173-1.799 21.343 21.343 0 01-7.94-3.401 21.608 21.608 0 005.234 3.523 48.022 48.022 0 0022.316 5.218 45.358 45.358 0 01-25.221-3.485c5.241 4.732 12.637 7.096 19.852 7.332a35.895 35.895 0 01-14.219-.886 11.064 11.064 0 01-4.117-1.853 22.52 22.52 0 0014.205 5.051 22.307 22.307 0 01-12.98-.845c2.613 2.679 6.817 3.278 10.638 3.702a14.575 14.575 0 01-9.746-.153 15.609 15.609 0 006.878 2.238 9.083 9.083 0 01-7.452.118 11.723 11.723 0 006.865 1.672 25.07 25.07 0 01-6.528.549c1.076.367 2.192.607 3.325.714a8.428 8.428 0 01-3.759 1.292l2.837.691-3.72 1.918a4.787 4.787 0 004.07-1.326c.378-.486.784-.95 1.216-1.39a6.32 6.32 0 012.373-1.067 4.979 4.979 0 01-1.877.159 12.246 12.246 0 004.67-2.276l-1.952.128a34.255 34.255 0 004.102-1.743 14.714 14.714 0 01-3.323.068 16.238 16.238 0 006.84-2.283 16.169 16.169 0 01-5.109-.655 19.367 19.367 0 008.165-1.411 19.298 19.298 0 01-4.439-.985 18.785 18.785 0 008.407-2.066 73.963 73.963 0 01-8.989-1.573c4.756.419 9.947.737 13.75-1.751l-8.822-1.861c3.358.51 6.79-.1 9.766-1.734l-9.427-2.022c2.074.139 4.157.077 6.219-.185a9.462 9.462 0 005.355-2.549 86.481 86.481 0 00-9.958-2.097 29.95 29.95 0 005.965-.041 9.04 9.04 0 005.191-2.328l-12.853-2.212c4.549.532 9.35 1.044 13.551-.429a4.843 4.843 0 00-3.18-1.816 44.847 44.847 0 00-8.039-1.246 38.794 38.794 0 006.667-1.118l-14.092-3.268 12.172.73-9.795-3.895 6.194.371a13.35 13.35 0 00-3.092-2.124c1.131.038 2.263-.04 3.378-.233l-2.635-1.012a2.904 2.904 0 011.483-.374 2.904 2.904 0 011.466.434l-2.029-.796z" fill="#842238" opacity=".23"/><defs><linearGradient id="paint0_linear_1552_6068" x1="115.1" y1="166.793" x2="113.744" y2="96.494" gradientUnits="userSpaceOnUse"><stop stop-color="#951940"/><stop offset=".58" stop-color="#BA3D6E"/><stop offset="1" stop-color="#27771F"/></linearGradient><linearGradient id="paint1_linear_1552_6068" x1="115.1" y1="166.793" x2="113.744" y2="96.494" gradientUnits="userSpaceOnUse"><stop stop-color="#951940"/><stop offset=".58" stop-color="#BA3D6E"/><stop offset="1" stop-color="#27771F"/></linearGradient><linearGradient id="paint2_linear_1552_6068" x1="125.533" y1="167.175" x2="148.989" y2="137.162" gradientUnits="userSpaceOnUse"><stop stop-color="#951940"/><stop offset=".58" stop-color="#BA3D6E"/><stop offset="1" stop-color="#27771F"/></linearGradient><linearGradient id="paint3_linear_1552_6068" x1="125.533" y1="167.175" x2="148.989" y2="137.162" gradientUnits="userSpaceOnUse"><stop stop-color="#951940"/><stop offset=".58" stop-color="#BA3D6E"/><stop offset="1" stop-color="#27771F"/></linearGradient><linearGradient id="paint4_linear_1552_6068" x1="120.37" y1="177.27" x2="182.077" y2="114.708" gradientUnits="userSpaceOnUse"><stop stop-color="#951940"/><stop offset=".58" stop-color="#BA3D6E"/><stop offset="1" stop-color="#27771F"/></linearGradient><linearGradient id="paint5_linear_1552_6068" x1="120.37" y1="177.27" x2="182.077" y2="114.708" gradientUnits="userSpaceOnUse"><stop stop-color="#951940"/><stop offset=".58" stop-color="#BA3D6E"/><stop offset="1" stop-color="#27771F"/></linearGradient><linearGradient id="paint6_linear_1552_6068" x1="107.559" y1="163.961" x2="99.342" y2="119.101" gradientUnits="userSpaceOnUse"><stop stop-color="#951940"/><stop offset=".58" stop-color="#BA3D6E"/><stop offset="1" stop-color="#27771F"/></linearGradient><linearGradient id="paint7_linear_1552_6068" x1="116.974" y1="169.189" x2="143.626" y2="89.766" gradientUnits="userSpaceOnUse"><stop stop-color="#951940"/><stop offset=".58" stop-color="#BA3D6E"/><stop offset="1" stop-color="#27771F"/></linearGradient><linearGradient id="paint8_linear_1552_6068" x1="103.623" y1="160.123" x2="75.615" y2="95.024" gradientUnits="userSpaceOnUse"><stop stop-color="#951940"/><stop offset=".58" stop-color="#BA3D6E"/><stop offset="1" stop-color="#27771F"/></linearGradient><linearGradient id="paint9_linear_1552_6068" x1="123.095" y1="170.2" x2="171.559" y2="105.206" gradientUnits="userSpaceOnUse"><stop stop-color="#951940"/><stop offset=".58" stop-color="#BA3D6E"/><stop offset="1" stop-color="#27771F"/></linearGradient><radialGradient id="paint10_radial_1552_6068" cx="0" cy="0" r="1" gradientUnits="userSpaceOnUse" gradientTransform="matrix(29.42783 7.1691 -7.16402 29.40694 106.644 177.01)"><stop offset=".12" stop-color="#842238"/><stop offset="1" stop-color="#570019"/></radialGradient></defs></svg>