<svg width="183" height="212" fill="none" xmlns="http://www.w3.org/2000/svg"><path d="M23.271 171.391c-.354-8.773 4.142-21.229 7.566-28.944 2.006-4.716 5.247-11.872 10.07-14.61 7.73-4.566 8.672 3.447 13.922 6.625 5.535-8.235 6.79-20.586 15.52-27.034 9.49-6.816 11.976.481 13.695 9.121 4.35-6.74 6.767-19.629 13.358-24.613 8.519-5.878 10.533 9.687 13.071 15.083.88-5.118 6.665-20.112 10.74-23.442 8.751-7.405 11.324 4.08 13.064 10.785 4.062-2.37 25.503-14.79 28.168-7.11 3 8.416-19.544 19.478-24.772 23.351 5.861 1.482 22.417 9.688 8.999 13.164-6.522 2.136-18.49-2.757-25.74-2.161 3.283 5.966 16.847 15.295 5.182 17.462-8.609 1.698-16.721-1.62-26.387-3.117 3.923 3.327 14.354 12.531 8.358 16.736-5.996 4.205-20.097-3.704-26.76-3.869 2.579 3.492 13.79 12.335 5.13 15.934-5.57 2.146-17.57-5.385-23.08-6.092 1.062 3.263 6.22 10.246 3.863 13.231-2.767 4.129-13.34.631-17.482-.219-8.336-1.733-15.108-3.219-23.782-.592" fill="#558A4D"/><path d="M22.721 172.684a1.397 1.397 0 001.623-.408c15.665-18.337 128.588-78.8 129.728-79.413a1.404 1.404 0 10-1.321-2.473c-4.674 2.493-114.516 61.289-130.55 80.084a1.406 1.406 0 00.157 1.979c.11.093.232.171.363.231z" fill="#263E3A"/><path d="M114.897 112.889l2.489-.194c4.4-.325 16.817 4.956 21.203 6.964a1.402 1.402 0 002.094-1.192 1.389 1.389 0 00-.105-.566 1.42 1.42 0 00-.809-.783c-1.502-.704-13.48-6.194-20.299-7.129l8.506-16.615a1.399 1.399 0 00.198-1.144 1.4 1.4 0 00-.731-.903 1.4 1.4 0 00-1.65.293 1.399 1.399 0 00-.308.508l-10.588 20.761zm-19.529 11.564l23.882 9.862a1.42 1.42 0 001.075-.006 1.4 1.4 0 00.757-.764 1.38 1.38 0 00-.278-1.558 1.38 1.38 0 00-.466-.307l-22.327-9.178c-.298-4.466-.289-14.403 2.423-18.248a1.404 1.404 0 00-.802-2.273 1.415 1.415 0 00-1.49.662c-4.036 5.796-2.905 20.337-2.803 20.974l.03.836zm-27.042 16.705l2.853-1.39c8.69-4.235 26.224 6.552 26.398 6.659a1.405 1.405 0 101.475-2.383c-.702-.441-16.105-9.914-26.435-7.707 1.465-5.484 4.286-17.619 2.015-21.704a1.403 1.403 0 00-1.913-.539 1.405 1.405 0 00-.539 1.912c1.681 3.022-.951 15.15-2.964 22.103l-.89 3.049zm-17.775 10.619c.296.129.629.146.936.047 10.99-2.597 25.336 6.053 25.487 6.139a1.383 1.383 0 001.81-2.019 1.384 1.384 0 00-.409-.372c-.626-.388-15.54-9.356-27.595-6.477a1.411 1.411 0 00-1.055 1.705 1.394 1.394 0 00.826.977z" fill="#263E3A"/><path d="M76.714 122.549c-4.06 4.227-29.023 18.005-39.201 16.807a.568.568 0 01-.112-.048c-3.635-9.532-7.594-18.301-7.964-28.432-.224-13.134 3.56-25.31 9.293-36.8 12.041-24.151 36.135-43.22 60.12-54.702a57.372 57.372 0 017.787-3.07c6.909 40.286-.861 77.613-29.923 106.245z" fill="#95A469"/><path opacity=".08" d="M105.923 16.407L44.768 128.315a65.336 65.336 0 01-7.957 11.115.884.884 0 01-.121-.051c-3.635-9.532-7.59-18.31-7.96-28.442-.229-13.124 3.565-25.296 9.302-36.795 12.037-24.143 36.121-43.216 60.116-54.693a57.497 57.497 0 017.775-3.042z" fill="#fff"/><path d="M38.491 140.31a2.102 2.102 0 001.618-1.015c.498-.886 46.954-81.853 67.353-120.465a2.114 2.114 0 00.219-1.66 2.12 2.12 0 00-3.968-.319c-20.372 38.546-66.803 119.48-67.27 120.292a2.115 2.115 0 00.79 2.896c.379.225.82.32 1.258.271z" fill="#245B3C"/><path d="M94.64 59.796c4.749-.473 9.985-2.222 13.254-7.093a1.767 1.767 0 00-.481-2.457 1.772 1.772 0 00-2.457.482c-4.759 7.082-15.629 5.754-19.077 5.133l-5.052-23.865a1.762 1.762 0 00-3.204-.598 1.764 1.764 0 00-.248 1.327l5.51 26.07 1.063.287a33.848 33.848 0 0010.692.714zM83.448 84.715c6.878-.677 15.404-2.41 21.565-6.644a1.79 1.79 0 00-.709-3.23 1.788 1.788 0 00-1.337.294c-10.038 6.89-28.017 6.471-30.617 6.387-7.32-3.63-11.036-24.543-11.842-32.41a1.769 1.769 0 00-1.931-1.58 1.779 1.779 0 00-1.574 1.945c.307 3.152 3.47 30.783 14.265 35.44l.288.123.319.026c3.86.157 7.728.04 11.573-.35zm-29.865 27.808l-.506-.05-.4-.324c-11.721-9.27-13.324-38.686-13.387-39.933a1.76 1.76 0 011.68-1.856 1.78 1.78 0 011.855 1.68c.001.307 1.536 28.334 11.654 37.009 3.65.3 25.853 1.637 38.43-8.127a1.757 1.757 0 011.309-.351 1.766 1.766 0 011.525 1.984 1.764 1.764 0 01-.677 1.174c-7.263 5.61-17.103 7.851-25.385 8.677-5.35.539-10.74.579-16.098.117z" fill="#245B3C"/></svg>