<svg width="169" height="204" fill="none" xmlns="http://www.w3.org/2000/svg"><path d="M15 149.5C15 91.786 61.786 45 119.5 45H169v54.5C169 157.214 122.214 204 64.5 204H15v-54.5z" fill="#EEC044"/><path d="M18.1 130.457c-.269-6.645 3.136-16.077 5.73-21.92 1.519-3.571 3.974-8.99 7.626-11.064 5.854-3.458 6.567 2.61 10.543 5.017 4.192-6.236 5.142-15.59 11.753-20.473 7.186-5.162 9.07.364 10.372 6.907 3.294-5.104 5.125-14.865 10.116-18.64 6.452-4.45 7.977 7.336 9.898 11.423.667-3.876 5.048-15.23 8.134-17.753 6.628-5.608 8.576 3.09 9.894 8.168 3.076-1.794 19.313-11.2 21.331-5.384 2.272 6.373-14.8 14.75-18.76 17.683 4.439 1.123 16.977 7.337 6.815 9.97-4.939 1.617-14.002-2.088-19.493-1.637 2.487 4.518 12.759 11.583 3.925 13.224-6.52 1.286-12.663-1.227-19.984-2.361 2.971 2.52 10.87 9.49 6.33 12.675-4.54 3.185-15.22-2.805-20.266-2.93 1.954 2.644 10.443 9.341 3.885 12.067-4.218 1.625-13.305-4.079-17.478-4.614.804 2.471 4.71 7.76 2.925 10.02-2.095 3.127-10.102.478-13.239-.166-6.313-1.312-11.441-2.437-18.01-.448" fill="#558A4D"/><path d="M17.683 131.436a1.057 1.057 0 001.23-.309c11.863-13.887 97.38-59.676 98.243-60.14a1.064 1.064 0 10-1-1.873c-3.54 1.888-86.724 46.415-98.867 60.648a1.065 1.065 0 00.12 1.499c.083.071.175.13.274.175z" fill="#263E3A"/><path d="M87.49 86.152l1.884-.147c3.332-.246 12.736 3.754 16.057 5.275a1.065 1.065 0 10.893-1.924c-1.137-.534-10.208-4.692-15.372-5.4l6.442-12.582a1.063 1.063 0 10-1.886-.944l-8.019 15.722zM72.7 94.91l18.086 7.468a1.056 1.056 0 00.814-.004 1.067 1.067 0 00.573-.578 1.054 1.054 0 00-.21-1.181 1.067 1.067 0 00-.353-.232l-16.91-6.95c-.225-3.383-.219-10.908 1.835-13.82a1.065 1.065 0 10-1.735-1.22c-3.057 4.39-2.2 15.402-2.123 15.884l.022.633zm-20.48 12.651l2.161-1.053c6.58-3.207 19.86 4.962 19.991 5.043a1.073 1.073 0 00.832.185 1.069 1.069 0 00.821-1.328 1.062 1.062 0 00-.536-.661c-.531-.335-12.196-7.509-20.02-5.837 1.11-4.153 3.247-13.343 1.527-16.437a1.064 1.064 0 00-1.857 1.04c1.273 2.289-.72 11.473-2.245 16.739l-.674 2.309zm-13.46 8.042a1 1 0 00.708.035c8.323-1.966 19.188 4.585 19.301 4.65a1.053 1.053 0 001.41-.341 1.057 1.057 0 00-.348-1.471c-.474-.293-11.769-7.085-20.898-4.904a1.074 1.074 0 00-.814.872 1.075 1.075 0 00.64 1.159z" fill="#263E3A"/><path d="M58.573 93.468c-3.075 3.2-21.98 13.636-29.688 12.728a.431.431 0 01-.084-.036c-2.753-7.218-5.751-13.86-6.031-21.532-.17-9.946 2.695-19.167 7.037-27.869 9.119-18.29 27.365-32.731 45.53-41.426a43.468 43.468 0 015.896-2.325c5.233 30.509-.651 58.776-22.66 80.46z" fill="#95A469"/><path opacity=".08" d="M80.692 13.086L34.38 97.835a49.466 49.466 0 01-6.025 8.417.619.619 0 01-.092-.038c-2.753-7.219-5.748-13.867-6.028-21.54-.173-9.939 2.7-19.157 7.044-27.865 9.116-18.283 27.355-32.728 45.527-41.42a43.548 43.548 0 015.887-2.303z" fill="#fff"/><path d="M29.626 106.919a1.596 1.596 0 001.225-.769c.377-.671 35.559-61.988 51.008-91.229a1.608 1.608 0 10-2.84-1.499c-15.428 29.191-50.59 90.483-50.943 91.099a1.601 1.601 0 00.598 2.192c.286.171.62.243.952.206z" fill="#245B3C"/><path d="M72.148 45.945c3.597-.359 7.562-1.683 10.038-5.372a1.34 1.34 0 10-2.226-1.495c-3.603 5.363-11.835 4.357-14.447 3.887L61.687 24.89a1.338 1.338 0 00-2.062-.825 1.336 1.336 0 00-.551 1.377l4.172 19.743.805.218a25.6 25.6 0 008.097.54zm-8.476 18.871c5.21-.512 11.666-1.826 16.332-5.032a1.355 1.355 0 10-1.55-2.223c-7.602 5.218-21.217 4.9-23.187 4.837-5.543-2.75-8.357-18.587-8.967-24.544a1.34 1.34 0 00-1.463-1.197 1.347 1.347 0 00-1.192 1.473c.233 2.387 2.629 23.312 10.803 26.84l.219.092.24.02c2.925.119 5.854.03 8.765-.266zm-22.616 21.06l-.383-.038-.304-.246c-8.876-7.02-10.09-29.297-10.138-30.241a1.331 1.331 0 011.272-1.406 1.347 1.347 0 011.406 1.272c0 .233 1.163 21.457 8.825 28.027 2.765.228 19.578 1.24 29.104-6.154a1.339 1.339 0 012.111.715 1.34 1.34 0 01-.478 1.41c-5.5 4.249-12.952 5.946-19.224 6.572a65.537 65.537 0 01-12.191.089z" fill="#245B3C"/></svg>