<svg width="183" height="139" fill="none" xmlns="http://www.w3.org/2000/svg"><path d="M143.863 104.227c-2.083 4.739-18.571 23.807-27.373 25.928l-.116.026c-5.944-6.79-11.84-12.868-15.322-21.164-4.2-10.817-4.777-22.07-3.515-33.35 2.605-23.708 16.749-46.889 33.14-63.742a50.148 50.148 0 015.512-4.914c18.055 31.253 23.042 64.586 7.674 97.216z" fill="#EEC044"/><path opacity=".08" d="M135.635 7.269l-16.512 111.518a58.182 58.182 0 01-3.2 11.653l-.117.026c-5.971-6.804-11.871-12.858-15.301-21.154-4.2-10.817-4.777-22.07-3.515-33.35 2.592-23.731 16.742-46.875 33.161-63.749a49.968 49.968 0 015.484-4.944z" fill="#fff"/><path d="M117.591 130.643a1.898 1.898 0 001.036-1.378c.125-.797 13.913-82.197 19.035-120.464a1.874 1.874 0 00-1.615-2.108 1.877 1.877 0 00-2.108 1.615c-5.111 38.195-18.874 119.513-19.017 120.326a1.885 1.885 0 001.537 2.168c.385.063.78.007 1.132-.159z" fill="#245B3C"/><path d="M139.563 46.666c3.793-1.837 7.596-4.9 8.816-9.936a1.574 1.574 0 00-1.177-1.896 1.58 1.58 0 00-1.896 1.177c-1.779 7.33-11.212 9.557-14.258 10.092l-11.475-18.249a1.57 1.57 0 00-.979-.683 1.56 1.56 0 00-1.649 2.362l12.538 19.931.974-.102a30.33 30.33 0 009.106-2.696zm-1.645 24.116c5.487-2.671 12.057-6.713 15.856-12.111a1.552 1.552 0 00.047-1.718 1.541 1.541 0 00-1.569-.7 1.551 1.551 0 00-1.002.63c-6.233 8.777-21.217 13.934-23.429 14.639-7.226-.779-16.704-16.985-19.777-23.247a1.531 1.531 0 00-2.084-.718 1.57 1.57 0 00-.715 2.094c1.229 2.5 12.328 24.41 22.681 25.015l.277.013.265-.079a71.482 71.482 0 009.45-3.818zm-16.309 32.198l-.436.112-.426-.142c-12.529-4.09-22.877-28.016-23.31-29.031a1.56 1.56 0 012.524-1.73c.147.143.264.313.345.502.103.234 9.939 23.028 20.979 27.136 3.125-.873 21.936-6.525 29.433-18.482a1.554 1.554 0 01.975-.693 1.564 1.564 0 011.673 2.355c-4.315 6.871-11.784 11.742-18.404 14.959a77.05 77.05 0 01-13.353 5.014z" fill="#245B3C"/><path d="M114.5 130.742a6.166 6.166 0 01-.795-.252c-8.423-3.018-16.644-9.633-24.343-14.196-13.17-7.8-26.166-16.477-40.242-22.509-6.241-2.678-15.757-6.757-16.904-14.43a4.593 4.593 0 01.97-3.795c3.073-3.33 16.151-2.305 19.442.056-4.318-3.097-8.46-6.467-12.441-9.97-5.743-5.035-15.761-13.072-16.146-21.402a5.488 5.488 0 01.91-3.501c1.574-2.127 5.748-1.614 7.704-.263L49.43 52.082l-18.774-25.27c-3.38-4.534-6.56-11.952-2.248-16.936 3.207-3.705 7.247-1.628 9.988 1.426 8.256 9.237 15.733 19.287 23.526 28.922-2.053-5.678-4.352-11.595-4.513-17.694-.117-3.86 2.245-13.559 7.988-10.877 1.623.756 2.747 2.277 3.694 3.798 7.835 12.54 9.805 27.316 12.17 41.606-1.05-6.364-.616-14.21.612-20.485 1.591-8.129 9.69-15.357 14.69-4.254 1.246 2.805 1.68 5.841 2.12 8.856a291.17 291.17 0 008.2 39.11c3.695 12.577 10.664 24.328 13.568 37.047 1.04 4.643 1.677 15.116-5.95 13.411z" fill="#4BAF47"/><path d="M119.746 128.536l-.096.098a1.386 1.386 0 01-1.959-.051C107.837 118.229 34.855 20.788 31.754 16.64a1.386 1.386 0 112.213-1.659c.754 1.042 75.994 101.44 85.735 111.694a1.393 1.393 0 01.044 1.861z" fill="#263E3A"/><path d="M76.715 73.38l-1.747-.113c-16.086-1.088-39.335-18.455-40.315-19.215a1.386 1.386 0 111.666-2.21c.227.168 21.844 16.326 37.076 18.46l-4.69-28.07a1.388 1.388 0 012.738-.456l5.272 31.603z" fill="#263E3A"/><path d="M102.767 107.657l-3.584-2.245C83.347 95.481 50.83 86.698 50.533 86.62a1.385 1.385 0 11.72-2.67c1.259.334 29.16 7.87 46.034 17.134-3.443-9.55-11.802-35.274-8.297-50.979a1.387 1.387 0 012.708.603c-4.089 18.33 9.404 52.678 9.542 53.027l1.527 3.922z" fill="#263E3A"/></svg>